<svg width="531" height="721" viewBox="0 0 531 721" fill="none" xmlns="http://www.w3.org/2000/svg">
<rect x="1.5" y="1.5" width="528" height="718" fill="#EBE9E3"/>
<mask id="path-2-inside-1_163_1194" fill="white">
<path fill-rule="evenodd" clip-rule="evenodd" d="M436.142 644.016C436.069 647.449 435.073 653.238 431.389 657.411C425.998 663.519 424.651 671.662 441.499 670.984C449.362 671.436 461.715 669.626 450.933 657.411L450.783 657.242C448.901 655.116 446.119 651.973 446.156 644.316C450.925 642.441 454.304 637.768 454.304 632.301C454.304 627.661 451.87 623.593 448.217 621.322L447.895 580.018C453.265 577.565 457 572.119 457 565.795C457 559.384 453.162 553.875 447.673 551.473L447.143 483.457C451.403 481.177 454.304 476.662 454.304 471.464C454.304 466.191 451.318 461.62 446.955 459.373L446.319 377.657C449.486 375.766 451.609 372.288 451.609 368.311C451.609 364.274 449.42 360.75 446.173 358.88L445.581 282.867C448.38 281.219 450.261 278.16 450.261 274.659C450.261 271.105 448.323 268.006 445.452 266.377L444.195 105H436.782L436.572 266.176C433.499 267.742 431.391 270.953 431.391 274.659C431.391 278.356 433.489 281.56 436.55 283.131L436.453 358.384C432.677 360.073 430.044 363.883 430.044 368.311C430.044 372.73 432.665 376.532 436.427 378.227L436.322 458.668C431.093 460.534 427.348 465.559 427.348 471.464C427.348 477.357 431.077 482.373 436.289 484.249L436.202 551.122C430.25 553.302 426 559.049 426 565.795C426 572.527 430.232 578.264 436.164 580.454L436.111 620.601C431.732 622.65 428.695 627.118 428.695 632.301C428.695 637.496 431.746 641.974 436.142 644.016Z"/>
</mask>
<path fill-rule="evenodd" clip-rule="evenodd" d="M436.142 644.016C436.069 647.449 435.073 653.238 431.389 657.411C425.998 663.519 424.651 671.662 441.499 670.984C449.362 671.436 461.715 669.626 450.933 657.411L450.783 657.242C448.901 655.116 446.119 651.973 446.156 644.316C450.925 642.441 454.304 637.768 454.304 632.301C454.304 627.661 451.87 623.593 448.217 621.322L447.895 580.018C453.265 577.565 457 572.119 457 565.795C457 559.384 453.162 553.875 447.673 551.473L447.143 483.457C451.403 481.177 454.304 476.662 454.304 471.464C454.304 466.191 451.318 461.62 446.955 459.373L446.319 377.657C449.486 375.766 451.609 372.288 451.609 368.311C451.609 364.274 449.42 360.75 446.173 358.88L445.581 282.867C448.38 281.219 450.261 278.16 450.261 274.659C450.261 271.105 448.323 268.006 445.452 266.377L444.195 105H436.782L436.572 266.176C433.499 267.742 431.391 270.953 431.391 274.659C431.391 278.356 433.489 281.56 436.55 283.131L436.453 358.384C432.677 360.073 430.044 363.883 430.044 368.311C430.044 372.73 432.665 376.532 436.427 378.227L436.322 458.668C431.093 460.534 427.348 465.559 427.348 471.464C427.348 477.357 431.077 482.373 436.289 484.249L436.202 551.122C430.25 553.302 426 559.049 426 565.795C426 572.527 430.232 578.264 436.164 580.454L436.111 620.601C431.732 622.65 428.695 627.118 428.695 632.301C428.695 637.496 431.746 641.974 436.142 644.016Z" fill="#D9D9D9"/>
<path d="M431.389 657.411L429.89 656.087L429.89 656.087L431.389 657.411ZM436.142 644.016L438.141 644.058L438.169 642.752L436.984 642.202L436.142 644.016ZM441.499 670.984L441.614 668.987L441.517 668.981L441.419 668.985L441.499 670.984ZM450.933 657.411L452.432 656.087L452.431 656.086L450.933 657.411ZM450.783 657.242L452.282 655.917L452.281 655.917L450.783 657.242ZM446.156 644.316L445.424 642.455L444.162 642.951L444.156 644.307L446.156 644.316ZM448.217 621.322L446.217 621.337L446.225 622.439L447.161 623.02L448.217 621.322ZM447.895 580.018L447.064 578.198L445.885 578.737L445.895 580.033L447.895 580.018ZM447.673 551.473L445.673 551.489L445.683 552.785L446.871 553.305L447.673 551.473ZM447.143 483.457L446.199 481.694L445.133 482.264L445.143 483.473L447.143 483.457ZM446.955 459.373L444.955 459.389L444.965 460.597L446.039 461.151L446.955 459.373ZM446.319 377.657L445.293 375.94L444.31 376.527L444.319 377.673L446.319 377.657ZM446.173 358.88L444.173 358.895L444.182 360.041L445.174 360.613L446.173 358.88ZM445.581 282.867L444.566 281.144L443.572 281.729L443.581 282.883L445.581 282.867ZM445.452 266.377L443.452 266.392L443.461 267.546L444.465 268.116L445.452 266.377ZM444.195 105L446.195 104.984L446.18 103H444.195V105ZM436.782 105V103H434.785L434.782 104.997L436.782 105ZM436.572 266.176L437.48 267.958L438.571 267.403L438.572 266.179L436.572 266.176ZM436.55 283.131L438.55 283.133L438.552 281.909L437.463 281.351L436.55 283.131ZM436.453 358.384L437.269 360.209L438.451 359.681L438.453 358.386L436.453 358.384ZM436.427 378.227L438.427 378.23L438.428 376.936L437.248 376.404L436.427 378.227ZM436.322 458.668L436.994 460.551L438.32 460.078L438.322 458.67L436.322 458.668ZM436.289 484.249L438.289 484.252L438.291 482.844L436.966 482.367L436.289 484.249ZM436.202 551.122L436.89 553L438.2 552.52L438.202 551.125L436.202 551.122ZM436.164 580.454L438.164 580.457L438.165 579.061L436.856 578.578L436.164 580.454ZM436.111 620.601L436.959 622.413L438.11 621.874L438.111 620.604L436.111 620.601ZM432.889 658.734C437.02 654.054 438.064 647.709 438.141 644.058L434.142 643.973C434.074 647.189 433.125 652.423 429.89 656.087L432.889 658.734ZM441.419 668.985C437.335 669.15 434.544 668.767 432.721 668.123C430.928 667.489 430.232 666.669 429.959 665.994C429.668 665.272 429.677 664.259 430.192 662.923C430.703 661.597 431.645 660.143 432.889 658.734L429.89 656.087C428.438 657.732 427.19 659.587 426.459 661.485C425.732 663.372 425.446 665.498 426.25 667.491C427.073 669.53 428.862 671.001 431.387 671.894C433.881 672.776 437.24 673.157 441.58 672.982L441.419 668.985ZM449.433 658.734C452.04 661.688 452.969 663.718 453.129 664.997C453.259 666.042 452.902 666.715 452.054 667.314C451.075 668.005 449.501 668.511 447.526 668.791C445.595 669.065 443.486 669.095 441.614 668.987L441.384 672.98C443.443 673.099 445.827 673.072 448.087 672.752C450.302 672.438 452.617 671.813 454.361 670.582C456.237 669.257 457.438 667.216 457.098 664.5C456.787 662.019 455.216 659.241 452.432 656.087L449.433 658.734ZM449.285 658.567L449.434 658.736L452.431 656.086L452.282 655.917L449.285 658.567ZM444.156 644.307C444.136 648.39 444.871 651.384 445.934 653.69C446.993 655.987 448.335 657.493 449.286 658.568L452.281 655.917C451.35 654.865 450.36 653.736 449.566 652.015C448.778 650.305 448.139 647.899 448.156 644.326L444.156 644.307ZM452.304 632.301C452.304 636.926 449.448 640.873 445.424 642.455L446.888 646.178C452.403 644.009 456.304 638.611 456.304 632.301H452.304ZM447.161 623.02C450.247 624.939 452.304 628.376 452.304 632.301H456.304C456.304 626.945 453.492 622.246 449.273 619.623L447.161 623.02ZM445.895 580.033L446.217 621.337L450.217 621.306L449.895 580.002L445.895 580.033ZM455 565.795C455 571.314 451.743 576.062 447.064 578.198L448.726 581.837C454.787 579.069 459 572.925 459 565.795H455ZM446.871 553.305C451.652 555.398 455 560.2 455 565.795H459C459 558.567 454.671 552.353 448.474 549.641L446.871 553.305ZM445.143 483.473L445.673 551.489L449.673 551.458L449.143 483.442L445.143 483.473ZM452.304 471.464C452.304 475.9 449.83 479.75 446.199 481.694L448.087 485.22C452.976 482.603 456.304 477.423 456.304 471.464H452.304ZM446.039 461.151C449.757 463.066 452.304 466.964 452.304 471.464H456.304C456.304 465.418 452.878 460.174 447.871 457.595L446.039 461.151ZM444.319 377.673L444.955 459.389L448.955 459.357L448.319 377.642L444.319 377.673ZM449.609 368.311C449.609 371.56 447.877 374.397 445.293 375.94L447.344 379.374C451.095 377.134 453.609 373.016 453.609 368.311H449.609ZM445.174 360.613C447.824 362.139 449.609 365.013 449.609 368.311H453.609C453.609 363.534 451.017 359.362 447.171 357.147L445.174 360.613ZM443.581 282.883L444.173 358.895L448.173 358.864L447.58 282.852L443.581 282.883ZM448.261 274.659C448.261 277.428 446.776 279.843 444.566 281.144L446.595 284.591C449.984 282.596 452.261 278.893 452.261 274.659H448.261ZM444.465 268.116C446.731 269.402 448.261 271.848 448.261 274.659H452.261C452.261 270.361 449.914 266.61 446.439 264.637L444.465 268.116ZM442.195 105.016L443.452 266.392L447.452 266.361L446.195 104.984L442.195 105.016ZM436.782 107H444.195V103H436.782V107ZM438.572 266.179L438.782 105.003L434.782 104.997L434.572 266.174L438.572 266.179ZM433.391 274.659C433.391 271.729 435.056 269.194 437.48 267.958L435.665 264.394C431.942 266.291 429.391 270.177 429.391 274.659H433.391ZM437.463 281.351C435.048 280.112 433.391 277.583 433.391 274.659H429.391C429.391 279.13 431.93 283.009 435.638 284.91L437.463 281.351ZM438.453 358.386L438.55 283.133L434.55 283.128L434.453 358.381L438.453 358.386ZM432.044 368.311C432.044 364.693 434.193 361.586 437.269 360.209L435.636 356.558C431.161 358.56 428.044 363.072 428.044 368.311H432.044ZM437.248 376.404C434.183 375.023 432.044 371.921 432.044 368.311H428.044C428.044 373.539 431.147 378.042 435.605 380.051L437.248 376.404ZM438.322 458.67L438.427 378.23L434.427 378.225L434.322 458.665L438.322 458.67ZM429.348 471.464C429.348 466.423 432.543 462.14 436.994 460.551L435.65 456.784C429.643 458.928 425.348 464.694 425.348 471.464H429.348ZM436.966 482.367C432.53 480.77 429.348 476.495 429.348 471.464H425.348C425.348 478.22 429.624 483.976 435.611 486.131L436.966 482.367ZM438.202 551.125L438.289 484.252L434.289 484.246L434.202 551.119L438.202 551.125ZM428 565.795C428 559.907 431.708 554.898 436.89 553L435.514 549.244C428.793 551.706 424 558.19 424 565.795H428ZM436.856 578.578C431.692 576.671 428 571.67 428 565.795H424C424 573.384 428.773 579.857 435.471 582.33L436.856 578.578ZM438.111 620.604L438.164 580.457L434.164 580.451L434.111 620.598L438.111 620.604ZM430.695 632.301C430.695 627.918 433.262 624.142 436.959 622.413L435.264 618.789C430.202 621.157 426.695 626.319 426.695 632.301H430.695ZM436.984 642.202C433.274 640.478 430.695 636.695 430.695 632.301H426.695C426.695 638.297 430.218 643.469 435.299 645.83L436.984 642.202Z" fill="black" mask="url(#path-2-inside-1_163_1194)"/>
<path d="M55.866 48.636V49.296C55.118 49.318 54.546 49.406 54.15 49.56C53.776 49.692 53.523 49.956 53.391 50.352C53.259 50.726 53.193 51.32 53.193 52.134V68.502C53.193 69.294 53.259 69.899 53.391 70.317C53.523 70.713 53.765 70.988 54.117 71.142C54.491 71.274 55.03 71.34 55.734 71.34H56.757C56.669 72.154 56.603 72.946 56.559 73.716C56.537 74.508 56.526 75.102 56.526 75.498C56.526 75.916 56.537 76.301 56.559 76.653C56.581 77.027 56.603 77.346 56.625 77.61H55.866C55.668 76.202 55.36 75.091 54.942 74.277C54.546 73.463 53.996 72.88 53.292 72.528C52.61 72.176 51.73 72 50.652 72H42.171C41.093 72 40.202 72.176 39.498 72.528C38.816 72.88 38.277 73.463 37.881 74.277C37.485 75.091 37.177 76.202 36.957 77.61H36.198C36.242 77.346 36.264 77.027 36.264 76.653C36.286 76.301 36.297 75.916 36.297 75.498C36.297 75.102 36.275 74.508 36.231 73.716C36.209 72.946 36.154 72.154 36.066 71.34H45.999C46.747 71.34 47.308 71.274 47.682 71.142C48.078 70.988 48.342 70.713 48.474 70.317C48.606 69.899 48.672 69.294 48.672 68.502V52.134C48.672 51.32 48.595 50.715 48.441 50.319C48.309 49.923 48.067 49.659 47.715 49.527C47.385 49.373 46.901 49.296 46.263 49.296H45.834C45.262 49.296 44.822 49.373 44.514 49.527C44.206 49.659 43.986 49.934 43.854 50.352C43.722 50.748 43.623 51.342 43.557 52.134C43.447 53.388 43.337 54.741 43.227 56.193C43.139 57.645 43.018 59.119 42.864 60.615C42.71 62.089 42.49 63.508 42.204 64.872C41.94 66.214 41.577 67.424 41.115 68.502C40.653 69.558 40.059 70.405 39.333 71.043C38.607 71.659 37.716 71.967 36.66 71.967V71.34C37.672 71.34 38.519 70.966 39.201 70.218C39.883 69.448 40.433 68.414 40.851 67.116C41.291 65.818 41.632 64.344 41.874 62.694C42.116 61.022 42.303 59.284 42.435 57.48C42.567 55.676 42.688 53.894 42.798 52.134C42.864 51.364 42.831 50.781 42.699 50.385C42.589 49.989 42.325 49.714 41.907 49.56C41.511 49.406 40.917 49.318 40.125 49.296V48.636C40.587 48.658 41.137 48.68 41.775 48.702C42.413 48.724 42.996 48.735 43.524 48.735C44.03 48.735 44.514 48.724 44.976 48.702C45.46 48.658 45.944 48.636 46.428 48.636C47.264 48.636 48.023 48.658 48.705 48.702C49.387 48.724 50.201 48.735 51.147 48.735C51.675 48.735 52.225 48.735 52.797 48.735C53.391 48.713 53.963 48.702 54.513 48.702C55.063 48.68 55.514 48.658 55.866 48.636ZM77.0365 48.636C76.9485 49.538 76.8825 50.418 76.8385 51.276C76.8165 52.112 76.8055 52.75 76.8055 53.19C76.8055 53.608 76.8165 54.015 76.8385 54.411C76.8605 54.785 76.8825 55.104 76.9045 55.368H76.1455C75.9695 53.85 75.6835 52.662 75.2875 51.804C74.8915 50.924 74.3525 50.308 73.6705 49.956C73.0105 49.582 72.1415 49.395 71.0635 49.395H69.2485C68.5885 49.395 68.0825 49.45 67.7305 49.56C67.3785 49.67 67.1365 49.901 67.0045 50.253C66.8945 50.605 66.8395 51.144 66.8395 51.87V68.766C66.8395 69.47 66.8945 70.009 67.0045 70.383C67.1365 70.735 67.3785 70.966 67.7305 71.076C68.0825 71.186 68.5885 71.241 69.2485 71.241H71.1295C72.2515 71.241 73.1865 71.032 73.9345 70.614C74.7045 70.196 75.3205 69.514 75.7825 68.568C76.2445 67.6 76.5855 66.28 76.8055 64.608H77.5645C77.4985 65.29 77.4655 66.17 77.4655 67.248C77.4655 67.71 77.4765 68.381 77.4985 69.261C77.5425 70.141 77.6085 71.054 77.6965 72C76.5745 71.956 75.3095 71.934 73.9015 71.934C72.4935 71.912 71.2395 71.901 70.1395 71.901C69.6335 71.901 68.9625 71.901 68.1265 71.901C67.3125 71.901 66.4215 71.912 65.4535 71.934C64.5075 71.934 63.5395 71.945 62.5495 71.967C61.5815 71.967 60.6575 71.978 59.7775 72V71.34C60.5035 71.296 61.0425 71.208 61.3945 71.076C61.7685 70.944 62.0105 70.68 62.1205 70.284C62.2525 69.888 62.3185 69.294 62.3185 68.502V52.134C62.3185 51.32 62.2525 50.726 62.1205 50.352C62.0105 49.956 61.7685 49.692 61.3945 49.56C61.0425 49.406 60.5035 49.318 59.7775 49.296V48.636C60.6575 48.658 61.5815 48.68 62.5495 48.702C63.5395 48.702 64.5075 48.713 65.4535 48.735C66.4215 48.735 67.3125 48.735 68.1265 48.735C68.9625 48.735 69.6335 48.735 70.1395 48.735C71.1515 48.735 72.2955 48.735 73.5715 48.735C74.8695 48.713 76.0245 48.68 77.0365 48.636ZM71.7235 59.922C71.7235 59.922 71.7235 60.032 71.7235 60.252C71.7235 60.472 71.7235 60.582 71.7235 60.582H65.8495C65.8495 60.582 65.8495 60.472 65.8495 60.252C65.8495 60.032 65.8495 59.922 65.8495 59.922H71.7235ZM72.6805 55.566C72.5925 56.82 72.5485 57.777 72.5485 58.437C72.5705 59.097 72.5815 59.702 72.5815 60.252C72.5815 60.802 72.5925 61.407 72.6145 62.067C72.6365 62.727 72.6915 63.684 72.7795 64.938H72.0205C71.9105 64.19 71.7345 63.486 71.4925 62.826C71.2725 62.144 70.9095 61.605 70.4035 61.209C69.9195 60.791 69.2155 60.582 68.2915 60.582V59.922C68.9735 59.922 69.5235 59.779 69.9415 59.493C70.3815 59.207 70.7335 58.844 70.9975 58.404C71.2615 57.942 71.4595 57.469 71.5915 56.985C71.7455 56.479 71.8555 56.006 71.9215 55.566H72.6805ZM95.6485 72V71.34C96.3745 71.296 96.9135 71.208 97.2655 71.076C97.6395 70.944 97.8815 70.68 97.9915 70.284C98.1235 69.888 98.1895 69.294 98.1895 68.502V52.134C98.1895 51.32 98.1235 50.726 97.9915 50.352C97.8815 49.956 97.6395 49.692 97.2655 49.56C96.9135 49.406 96.3745 49.318 95.6485 49.296V48.636C96.2425 48.658 96.9795 48.68 97.8595 48.702C98.7395 48.724 99.6195 48.735 100.5 48.735C101.468 48.735 102.37 48.724 103.206 48.702C104.064 48.68 104.746 48.658 105.252 48.636V49.296C104.548 49.318 104.009 49.406 103.635 49.56C103.283 49.692 103.041 49.956 102.909 50.352C102.777 50.726 102.711 51.32 102.711 52.134V68.502C102.711 69.294 102.777 69.888 102.909 70.284C103.041 70.68 103.283 70.944 103.635 71.076C104.009 71.208 104.548 71.296 105.252 71.34V72C104.746 71.956 104.064 71.934 103.206 71.934C102.37 71.912 101.468 71.901 100.5 71.901C99.6195 71.901 98.7395 71.912 97.8595 71.934C96.9795 71.934 96.2425 71.956 95.6485 72ZM81.7225 72V71.34C82.4485 71.296 82.9875 71.208 83.3395 71.076C83.7135 70.944 83.9555 70.68 84.0655 70.284C84.1975 69.888 84.2635 69.294 84.2635 68.502V52.134C84.2635 51.32 84.1975 50.726 84.0655 50.352C83.9555 49.956 83.7135 49.692 83.3395 49.56C82.9875 49.406 82.4485 49.318 81.7225 49.296V48.636C82.2725 48.658 82.9765 48.68 83.8345 48.702C84.6925 48.724 85.6165 48.735 86.6065 48.735C87.4865 48.735 88.3555 48.724 89.2135 48.702C90.0715 48.68 90.7755 48.658 91.3255 48.636V49.296C90.6215 49.318 90.0825 49.406 89.7085 49.56C89.3565 49.692 89.1145 49.956 88.9825 50.352C88.8505 50.726 88.7845 51.32 88.7845 52.134V68.502C88.7845 69.294 88.8505 69.888 88.9825 70.284C89.1145 70.68 89.3565 70.944 89.7085 71.076C90.0825 71.208 90.6215 71.296 91.3255 71.34V72C90.7755 71.956 90.0715 71.934 89.2135 71.934C88.3555 71.912 87.4865 71.901 86.6065 71.901C85.6165 71.901 84.6925 71.912 83.8345 71.934C82.9765 71.934 82.2725 71.956 81.7225 72ZM86.9695 60.582V59.922H100.005V60.582H86.9695ZM118.984 48.636V49.296C118.17 49.318 117.543 49.406 117.103 49.56C116.685 49.692 116.399 49.956 116.245 50.352C116.113 50.726 116.047 51.32 116.047 52.134V68.502C116.047 69.272 116.102 69.866 116.212 70.284C116.322 70.68 116.52 70.955 116.806 71.109C117.092 71.263 117.532 71.34 118.126 71.34C119.336 71.34 120.26 71.076 120.898 70.548C121.558 70.02 122.009 69.294 122.251 68.37C122.515 67.424 122.647 66.357 122.647 65.169C122.647 63.849 122.493 62.705 122.185 61.737C121.899 60.769 121.404 60.032 120.7 59.526C119.996 58.998 119.006 58.734 117.73 58.734C117.312 58.734 116.872 58.745 116.41 58.767C115.948 58.767 115.508 58.767 115.09 58.767C114.672 58.767 114.32 58.767 114.034 58.767L113.968 58.14C114.826 58.14 115.651 58.14 116.443 58.14C117.257 58.118 117.895 58.107 118.357 58.107C120.007 58.107 121.404 58.283 122.548 58.635C123.692 58.965 124.616 59.427 125.32 60.021C126.046 60.615 126.574 61.319 126.904 62.133C127.234 62.925 127.399 63.794 127.399 64.74C127.399 65.642 127.234 66.522 126.904 67.38C126.596 68.238 126.079 69.019 125.353 69.723C124.649 70.405 123.714 70.955 122.548 71.373C121.382 71.791 119.941 72 118.225 72C117.719 72 117.081 71.989 116.311 71.967C115.563 71.923 114.705 71.901 113.737 71.901C112.835 71.901 111.955 71.912 111.097 71.934C110.239 71.934 109.535 71.956 108.985 72V71.34C109.711 71.296 110.25 71.208 110.602 71.076C110.976 70.944 111.218 70.68 111.328 70.284C111.46 69.888 111.526 69.294 111.526 68.502V52.134C111.526 51.32 111.46 50.726 111.328 50.352C111.218 49.956 110.976 49.692 110.602 49.56C110.25 49.406 109.711 49.318 108.985 49.296V48.636C109.535 48.658 110.239 48.68 111.097 48.702C111.955 48.724 112.879 48.735 113.869 48.735C114.837 48.735 115.783 48.724 116.707 48.702C117.631 48.68 118.39 48.658 118.984 48.636ZM151.6 48.174C153.844 48.174 155.813 48.647 157.507 49.593C159.201 50.539 160.51 51.903 161.434 53.685C162.38 55.445 162.853 57.59 162.853 60.12C162.853 62.584 162.369 64.74 161.401 66.588C160.455 68.436 159.124 69.877 157.408 70.911C155.714 71.945 153.767 72.462 151.567 72.462C149.323 72.462 147.354 71.989 145.66 71.043C143.966 70.097 142.646 68.733 141.7 66.951C140.776 65.169 140.314 63.024 140.314 60.516C140.314 58.052 140.798 55.896 141.766 54.048C142.734 52.2 144.065 50.759 145.759 49.725C147.453 48.691 149.4 48.174 151.6 48.174ZM151.468 48.768C150.17 48.768 149.037 49.263 148.069 50.253C147.123 51.243 146.386 52.607 145.858 54.345C145.33 56.083 145.066 58.096 145.066 60.384C145.066 62.716 145.363 64.751 145.957 66.489C146.551 68.205 147.354 69.536 148.366 70.482C149.378 71.406 150.489 71.868 151.699 71.868C152.997 71.868 154.119 71.373 155.065 70.383C156.033 69.393 156.781 68.029 157.309 66.291C157.837 64.531 158.101 62.518 158.101 60.252C158.101 57.898 157.804 55.863 157.21 54.147C156.616 52.431 155.813 51.111 154.801 50.187C153.811 49.241 152.7 48.768 151.468 48.768ZM186.362 48.636C186.274 49.648 186.208 50.638 186.164 51.606C186.142 52.552 186.131 53.278 186.131 53.784C186.131 54.29 186.142 54.763 186.164 55.203C186.186 55.643 186.208 56.028 186.23 56.358H185.471C185.163 54.598 184.789 53.223 184.349 52.233C183.909 51.221 183.326 50.495 182.6 50.055C181.896 49.615 180.961 49.395 179.795 49.395H178.739V68.205C178.739 69.107 178.816 69.778 178.97 70.218C179.146 70.658 179.487 70.955 179.993 71.109C180.499 71.241 181.236 71.318 182.204 71.34V72C181.544 71.956 180.686 71.934 179.63 71.934C178.574 71.912 177.496 71.901 176.396 71.901C175.252 71.901 174.174 71.912 173.162 71.934C172.172 71.934 171.369 71.956 170.753 72V71.34C171.699 71.318 172.425 71.241 172.931 71.109C173.437 70.955 173.778 70.658 173.954 70.218C174.13 69.778 174.218 69.107 174.218 68.205V49.395H173.129C171.985 49.395 171.05 49.615 170.324 50.055C169.598 50.495 169.015 51.221 168.575 52.233C168.135 53.223 167.772 54.598 167.486 56.358H166.727C166.771 56.028 166.793 55.643 166.793 55.203C166.815 54.763 166.826 54.29 166.826 53.784C166.826 53.278 166.804 52.552 166.76 51.606C166.738 50.638 166.683 49.648 166.595 48.636C167.563 48.658 168.63 48.68 169.796 48.702C170.962 48.724 172.128 48.735 173.294 48.735C174.46 48.735 175.527 48.735 176.495 48.735C177.441 48.735 178.497 48.735 179.663 48.735C180.829 48.735 181.995 48.724 183.161 48.702C184.327 48.68 185.394 48.658 186.362 48.636ZM199.343 48.636V49.296C198.639 49.318 198.1 49.406 197.726 49.56C197.374 49.692 197.132 49.956 197 50.352C196.868 50.726 196.802 51.32 196.802 52.134V68.502C196.802 69.294 196.868 69.888 197 70.284C197.132 70.68 197.374 70.944 197.726 71.076C198.1 71.208 198.639 71.296 199.343 71.34V72C198.793 71.956 198.089 71.934 197.231 71.934C196.373 71.912 195.504 71.901 194.624 71.901C193.634 71.901 192.71 71.912 191.852 71.934C190.994 71.934 190.29 71.956 189.74 72V71.34C190.466 71.296 191.005 71.208 191.357 71.076C191.731 70.944 191.973 70.68 192.083 70.284C192.215 69.888 192.281 69.294 192.281 68.502V52.134C192.281 51.32 192.215 50.726 192.083 50.352C191.973 49.956 191.731 49.692 191.357 49.56C191.005 49.406 190.466 49.318 189.74 49.296V48.636C190.29 48.658 190.994 48.68 191.852 48.702C192.71 48.724 193.634 48.735 194.624 48.735C195.504 48.735 196.373 48.724 197.231 48.702C198.089 48.68 198.793 48.658 199.343 48.636ZM198.254 59.559C199.816 59.559 201.202 59.68 202.412 59.922C203.622 60.164 204.612 60.626 205.382 61.308C206.174 61.968 206.702 62.936 206.966 64.212L207.923 68.535C208.143 69.459 208.352 70.108 208.55 70.482C208.77 70.856 209.1 71.032 209.54 71.01C209.848 71.01 210.112 70.933 210.332 70.779C210.552 70.603 210.772 70.372 210.992 70.086L211.454 70.482C210.948 71.12 210.376 71.615 209.738 71.967C209.122 72.297 208.33 72.462 207.362 72.462C206.306 72.462 205.415 72.231 204.689 71.769C203.985 71.285 203.49 70.328 203.204 68.898L202.313 64.179C202.137 63.277 201.906 62.529 201.62 61.935C201.334 61.341 200.905 60.901 200.333 60.615C199.761 60.307 198.936 60.153 197.858 60.153H196.043V59.559H198.254ZM196.736 60.153V59.559C197.682 59.515 198.507 59.273 199.211 58.833C199.937 58.393 200.674 57.744 201.422 56.886L203.765 53.949C204.557 52.981 205.041 52.156 205.217 51.474C205.415 50.792 205.316 50.264 204.92 49.89C204.546 49.516 203.919 49.318 203.039 49.296V48.636C203.545 48.658 204.029 48.68 204.491 48.702C204.975 48.702 205.47 48.713 205.976 48.735C206.482 48.735 207.01 48.735 207.56 48.735C208.176 48.735 208.737 48.724 209.243 48.702C209.749 48.68 210.189 48.658 210.563 48.636V49.296C209.859 49.428 209.133 49.714 208.385 50.154C207.637 50.572 206.867 51.243 206.075 52.167L199.475 60.153H196.736ZM214.392 48.636C214.942 48.658 215.646 48.68 216.504 48.702C217.362 48.724 218.22 48.735 219.078 48.735C220.156 48.735 221.179 48.724 222.147 48.702C223.115 48.68 223.797 48.669 224.193 48.669C227.141 48.669 229.33 49.274 230.76 50.484C232.212 51.694 232.938 53.256 232.938 55.17C232.938 55.962 232.795 56.798 232.509 57.678C232.223 58.536 231.728 59.339 231.024 60.087C230.32 60.813 229.352 61.407 228.12 61.869C226.91 62.331 225.359 62.562 223.467 62.562H220.167V61.902H223.137C224.523 61.902 225.579 61.605 226.305 61.011C227.053 60.417 227.548 59.636 227.79 58.668C228.054 57.7 228.186 56.655 228.186 55.533C228.186 53.443 227.845 51.881 227.163 50.847C226.481 49.813 225.304 49.296 223.632 49.296C222.73 49.296 222.136 49.483 221.85 49.857C221.586 50.231 221.454 50.99 221.454 52.134V68.37C221.454 69.206 221.542 69.833 221.718 70.251C221.894 70.669 222.235 70.944 222.741 71.076C223.247 71.208 223.973 71.285 224.919 71.307V72C224.281 71.956 223.456 71.934 222.444 71.934C221.432 71.912 220.387 71.901 219.309 71.901C218.385 71.901 217.494 71.912 216.636 71.934C215.778 71.934 215.03 71.956 214.392 72V71.34C215.118 71.296 215.657 71.208 216.009 71.076C216.383 70.944 216.625 70.68 216.735 70.284C216.867 69.888 216.933 69.294 216.933 68.502V52.134C216.933 51.32 216.867 50.726 216.735 50.352C216.625 49.956 216.383 49.692 216.009 49.56C215.657 49.406 215.118 49.318 214.392 49.296V48.636ZM246.142 48.636V49.296C245.328 49.318 244.701 49.406 244.261 49.56C243.843 49.692 243.557 49.956 243.403 50.352C243.271 50.726 243.205 51.32 243.205 52.134V68.502C243.205 69.272 243.26 69.866 243.37 70.284C243.48 70.68 243.678 70.955 243.964 71.109C244.25 71.263 244.69 71.34 245.284 71.34C246.494 71.34 247.418 71.076 248.056 70.548C248.716 70.02 249.167 69.294 249.409 68.37C249.673 67.424 249.805 66.357 249.805 65.169C249.805 63.849 249.651 62.705 249.343 61.737C249.057 60.769 248.562 60.032 247.858 59.526C247.154 58.998 246.164 58.734 244.888 58.734C244.47 58.734 244.03 58.745 243.568 58.767C243.106 58.767 242.666 58.767 242.248 58.767C241.83 58.767 241.478 58.767 241.192 58.767L241.126 58.14C241.984 58.14 242.809 58.14 243.601 58.14C244.415 58.118 245.053 58.107 245.515 58.107C247.165 58.107 248.562 58.283 249.706 58.635C250.85 58.965 251.774 59.427 252.478 60.021C253.204 60.615 253.732 61.319 254.062 62.133C254.392 62.925 254.557 63.794 254.557 64.74C254.557 65.642 254.392 66.522 254.062 67.38C253.754 68.238 253.237 69.019 252.511 69.723C251.807 70.405 250.872 70.955 249.706 71.373C248.54 71.791 247.099 72 245.383 72C244.877 72 244.239 71.989 243.469 71.967C242.721 71.923 241.863 71.901 240.895 71.901C239.993 71.901 239.113 71.912 238.255 71.934C237.397 71.934 236.693 71.956 236.143 72V71.34C236.869 71.296 237.408 71.208 237.76 71.076C238.134 70.944 238.376 70.68 238.486 70.284C238.618 69.888 238.684 69.294 238.684 68.502V52.134C238.684 51.32 238.618 50.726 238.486 50.352C238.376 49.956 238.134 49.692 237.76 49.56C237.408 49.406 236.869 49.318 236.143 49.296V48.636C236.693 48.658 237.397 48.68 238.255 48.702C239.113 48.724 240.037 48.735 241.027 48.735C241.995 48.735 242.941 48.724 243.865 48.702C244.789 48.68 245.548 48.658 246.142 48.636ZM265.612 48.636V49.296C264.908 49.318 264.369 49.406 263.995 49.56C263.643 49.692 263.401 49.956 263.269 50.352C263.137 50.726 263.071 51.32 263.071 52.134V68.502C263.071 69.294 263.137 69.888 263.269 70.284C263.401 70.68 263.643 70.944 263.995 71.076C264.369 71.208 264.908 71.296 265.612 71.34V72C265.062 71.956 264.358 71.934 263.5 71.934C262.642 71.912 261.773 71.901 260.893 71.901C259.903 71.901 258.979 71.912 258.121 71.934C257.263 71.934 256.559 71.956 256.009 72V71.34C256.735 71.296 257.274 71.208 257.626 71.076C258 70.944 258.242 70.68 258.352 70.284C258.484 69.888 258.55 69.294 258.55 68.502V52.134C258.55 51.32 258.484 50.726 258.352 50.352C258.242 49.956 258 49.692 257.626 49.56C257.274 49.406 256.735 49.318 256.009 49.296V48.636C256.559 48.658 257.263 48.68 258.121 48.702C258.979 48.724 259.903 48.735 260.893 48.735C261.773 48.735 262.642 48.724 263.5 48.702C264.358 48.68 265.062 48.658 265.612 48.636ZM288.805 48.636C288.717 49.648 288.651 50.638 288.607 51.606C288.585 52.552 288.574 53.278 288.574 53.784C288.574 54.29 288.585 54.763 288.607 55.203C288.629 55.643 288.651 56.028 288.673 56.358H287.914C287.606 54.598 287.232 53.223 286.792 52.233C286.352 51.221 285.769 50.495 285.043 50.055C284.339 49.615 283.404 49.395 282.238 49.395H281.182V68.205C281.182 69.107 281.259 69.778 281.413 70.218C281.589 70.658 281.93 70.955 282.436 71.109C282.942 71.241 283.679 71.318 284.647 71.34V72C283.987 71.956 283.129 71.934 282.073 71.934C281.017 71.912 279.939 71.901 278.839 71.901C277.695 71.901 276.617 71.912 275.605 71.934C274.615 71.934 273.812 71.956 273.196 72V71.34C274.142 71.318 274.868 71.241 275.374 71.109C275.88 70.955 276.221 70.658 276.397 70.218C276.573 69.778 276.661 69.107 276.661 68.205V49.395H275.572C274.428 49.395 273.493 49.615 272.767 50.055C272.041 50.495 271.458 51.221 271.018 52.233C270.578 53.223 270.215 54.598 269.929 56.358H269.17C269.214 56.028 269.236 55.643 269.236 55.203C269.258 54.763 269.269 54.29 269.269 53.784C269.269 53.278 269.247 52.552 269.203 51.606C269.181 50.638 269.126 49.648 269.038 48.636C270.006 48.658 271.073 48.68 272.239 48.702C273.405 48.724 274.571 48.735 275.737 48.735C276.903 48.735 277.97 48.735 278.938 48.735C279.884 48.735 280.94 48.735 282.106 48.735C283.272 48.735 284.438 48.724 285.604 48.702C286.77 48.68 287.837 48.658 288.805 48.636ZM302.182 48.636V49.296C301.368 49.318 300.741 49.406 300.301 49.56C299.883 49.692 299.597 49.956 299.443 50.352C299.311 50.726 299.245 51.32 299.245 52.134V68.502C299.245 69.272 299.3 69.866 299.41 70.284C299.52 70.68 299.718 70.955 300.004 71.109C300.29 71.263 300.73 71.34 301.324 71.34C302.534 71.34 303.458 71.076 304.096 70.548C304.756 70.02 305.207 69.294 305.449 68.37C305.713 67.424 305.845 66.357 305.845 65.169C305.845 63.849 305.691 62.705 305.383 61.737C305.097 60.769 304.602 60.032 303.898 59.526C303.194 58.998 302.204 58.734 300.928 58.734C300.51 58.734 300.07 58.745 299.608 58.767C299.146 58.767 298.706 58.767 298.288 58.767C297.87 58.767 297.518 58.767 297.232 58.767L297.166 58.14C298.024 58.14 298.849 58.14 299.641 58.14C300.455 58.118 301.093 58.107 301.555 58.107C303.205 58.107 304.602 58.283 305.746 58.635C306.89 58.965 307.814 59.427 308.518 60.021C309.244 60.615 309.772 61.319 310.102 62.133C310.432 62.925 310.597 63.794 310.597 64.74C310.597 65.642 310.432 66.522 310.102 67.38C309.794 68.238 309.277 69.019 308.551 69.723C307.847 70.405 306.912 70.955 305.746 71.373C304.58 71.791 303.139 72 301.423 72C300.917 72 300.279 71.989 299.509 71.967C298.761 71.923 297.903 71.901 296.935 71.901C296.033 71.901 295.153 71.912 294.295 71.934C293.437 71.934 292.733 71.956 292.183 72V71.34C292.909 71.296 293.448 71.208 293.8 71.076C294.174 70.944 294.416 70.68 294.526 70.284C294.658 69.888 294.724 69.294 294.724 68.502V52.134C294.724 51.32 294.658 50.726 294.526 50.352C294.416 49.956 294.174 49.692 293.8 49.56C293.448 49.406 292.909 49.318 292.183 49.296V48.636C292.733 48.658 293.437 48.68 294.295 48.702C295.153 48.724 296.077 48.735 297.067 48.735C298.035 48.735 298.981 48.724 299.905 48.702C300.829 48.68 301.588 48.658 302.182 48.636ZM321.652 48.636V49.296C320.948 49.318 320.409 49.406 320.035 49.56C319.683 49.692 319.441 49.956 319.309 50.352C319.177 50.726 319.111 51.32 319.111 52.134V68.502C319.111 69.294 319.177 69.888 319.309 70.284C319.441 70.68 319.683 70.944 320.035 71.076C320.409 71.208 320.948 71.296 321.652 71.34V72C321.102 71.956 320.398 71.934 319.54 71.934C318.682 71.912 317.813 71.901 316.933 71.901C315.943 71.901 315.019 71.912 314.161 71.934C313.303 71.934 312.599 71.956 312.049 72V71.34C312.775 71.296 313.314 71.208 313.666 71.076C314.04 70.944 314.282 70.68 314.392 70.284C314.524 69.888 314.59 69.294 314.59 68.502V52.134C314.59 51.32 314.524 50.726 314.392 50.352C314.282 49.956 314.04 49.692 313.666 49.56C313.314 49.406 312.775 49.318 312.049 49.296V48.636C312.599 48.658 313.303 48.68 314.161 48.702C315.019 48.724 315.943 48.735 316.933 48.735C317.813 48.735 318.682 48.724 319.54 48.702C320.398 48.68 321.102 48.658 321.652 48.636ZM333.46 48.636V49.329C332.426 49.329 331.777 49.428 331.513 49.626C331.249 49.824 331.271 50.165 331.579 50.649L344.416 69.657C344.834 70.295 345.175 70.724 345.439 70.944C345.725 71.142 346.099 71.263 346.561 71.307V72C346.165 71.978 345.593 71.956 344.845 71.934C344.119 71.89 343.371 71.868 342.601 71.868C341.633 71.868 340.665 71.89 339.697 71.934C338.729 71.956 338.003 71.978 337.519 72V71.307C338.531 71.307 339.191 71.241 339.499 71.109C339.807 70.955 339.807 70.647 339.499 70.185L326.596 50.979C326.156 50.341 325.804 49.912 325.54 49.692C325.298 49.472 324.935 49.351 324.451 49.329V48.636C324.847 48.658 325.43 48.691 326.2 48.735C326.97 48.757 327.751 48.768 328.543 48.768C329.489 48.768 330.402 48.757 331.282 48.735C332.162 48.691 332.888 48.658 333.46 48.636ZM334.252 60.153C334.252 60.153 334.274 60.23 334.318 60.384C334.362 60.516 334.406 60.659 334.45 60.813C334.516 60.945 334.549 61.011 334.549 61.011L330.952 66.06C330.116 67.226 329.654 68.194 329.566 68.964C329.478 69.734 329.687 70.317 330.193 70.713C330.721 71.087 331.458 71.296 332.404 71.34V72C332.096 71.978 331.711 71.967 331.249 71.967C330.809 71.945 330.347 71.934 329.863 71.934C329.401 71.912 328.95 71.901 328.51 71.901C328.07 71.901 327.718 71.901 327.454 71.901C326.838 71.901 326.277 71.912 325.771 71.934C325.265 71.934 324.836 71.956 324.484 72V71.34C325.232 71.142 325.969 70.735 326.695 70.119C327.421 69.503 328.158 68.678 328.906 67.644L334.252 60.153ZM345.34 48.636V49.296C344.636 49.472 343.943 49.857 343.261 50.451C342.579 51.045 341.93 51.76 341.314 52.596L335.968 59.988C335.968 59.988 335.924 59.856 335.836 59.592C335.77 59.306 335.737 59.163 335.737 59.163L339.268 54.246C340.082 53.124 340.566 52.211 340.72 51.507C340.874 50.781 340.742 50.242 340.324 49.89C339.906 49.538 339.246 49.34 338.344 49.296V48.636C338.762 48.658 339.213 48.68 339.697 48.702C340.181 48.702 340.654 48.713 341.116 48.735C341.578 48.735 341.996 48.735 342.37 48.735C342.986 48.735 343.547 48.724 344.053 48.702C344.559 48.68 344.988 48.658 345.34 48.636ZM376.76 48.636V49.296C376.012 49.318 375.44 49.406 375.044 49.56C374.67 49.692 374.417 49.956 374.285 50.352C374.153 50.726 374.087 51.32 374.087 52.134V68.502C374.087 69.294 374.153 69.899 374.285 70.317C374.417 70.713 374.659 70.988 375.011 71.142C375.385 71.274 375.924 71.34 376.628 71.34H377.651C377.563 72.154 377.497 72.946 377.453 73.716C377.431 74.508 377.42 75.102 377.42 75.498C377.42 75.916 377.431 76.301 377.453 76.653C377.475 77.027 377.497 77.346 377.519 77.61H376.76C376.562 76.202 376.254 75.091 375.836 74.277C375.44 73.463 374.89 72.88 374.186 72.528C373.504 72.176 372.624 72 371.546 72H363.065C361.987 72 361.096 72.176 360.392 72.528C359.71 72.88 359.171 73.463 358.775 74.277C358.379 75.091 358.071 76.202 357.851 77.61H357.092C357.136 77.346 357.158 77.027 357.158 76.653C357.18 76.301 357.191 75.916 357.191 75.498C357.191 75.102 357.169 74.508 357.125 73.716C357.103 72.946 357.048 72.154 356.96 71.34H366.893C367.641 71.34 368.202 71.274 368.576 71.142C368.972 70.988 369.236 70.713 369.368 70.317C369.5 69.899 369.566 69.294 369.566 68.502V52.134C369.566 51.32 369.489 50.715 369.335 50.319C369.203 49.923 368.961 49.659 368.609 49.527C368.279 49.373 367.795 49.296 367.157 49.296H366.728C366.156 49.296 365.716 49.373 365.408 49.527C365.1 49.659 364.88 49.934 364.748 50.352C364.616 50.748 364.517 51.342 364.451 52.134C364.341 53.388 364.231 54.741 364.121 56.193C364.033 57.645 363.912 59.119 363.758 60.615C363.604 62.089 363.384 63.508 363.098 64.872C362.834 66.214 362.471 67.424 362.009 68.502C361.547 69.558 360.953 70.405 360.227 71.043C359.501 71.659 358.61 71.967 357.554 71.967V71.34C358.566 71.34 359.413 70.966 360.095 70.218C360.777 69.448 361.327 68.414 361.745 67.116C362.185 65.818 362.526 64.344 362.768 62.694C363.01 61.022 363.197 59.284 363.329 57.48C363.461 55.676 363.582 53.894 363.692 52.134C363.758 51.364 363.725 50.781 363.593 50.385C363.483 49.989 363.219 49.714 362.801 49.56C362.405 49.406 361.811 49.318 361.019 49.296V48.636C361.481 48.658 362.031 48.68 362.669 48.702C363.307 48.724 363.89 48.735 364.418 48.735C364.924 48.735 365.408 48.724 365.87 48.702C366.354 48.658 366.838 48.636 367.322 48.636C368.158 48.636 368.917 48.658 369.599 48.702C370.281 48.724 371.095 48.735 372.041 48.735C372.569 48.735 373.119 48.735 373.691 48.735C374.285 48.713 374.857 48.702 375.407 48.702C375.957 48.68 376.408 48.658 376.76 48.636ZM380.672 48.636C381.222 48.658 381.926 48.68 382.784 48.702C383.642 48.724 384.5 48.735 385.358 48.735C386.436 48.735 387.459 48.724 388.427 48.702C389.395 48.68 390.077 48.669 390.473 48.669C393.069 48.669 395.005 49.153 396.281 50.121C397.579 51.089 398.228 52.332 398.228 53.85C398.228 54.62 398.019 55.39 397.601 56.16C397.205 56.93 396.556 57.623 395.654 58.239C394.774 58.855 393.619 59.317 392.189 59.625V59.691C394.125 59.867 395.654 60.263 396.776 60.879C397.92 61.473 398.734 62.188 399.218 63.024C399.702 63.838 399.944 64.696 399.944 65.598C399.944 66.94 399.592 68.095 398.888 69.063C398.206 70.009 397.216 70.735 395.918 71.241C394.62 71.747 393.058 72 391.232 72C390.748 72 390.011 71.989 389.021 71.967C388.031 71.923 386.832 71.901 385.424 71.901C384.522 71.901 383.642 71.912 382.784 71.934C381.926 71.934 381.222 71.956 380.672 72V71.34C381.398 71.296 381.937 71.208 382.289 71.076C382.663 70.944 382.905 70.68 383.015 70.284C383.147 69.888 383.213 69.294 383.213 68.502V52.134C383.213 51.32 383.147 50.726 383.015 50.352C382.905 49.956 382.663 49.692 382.289 49.56C381.937 49.406 381.398 49.318 380.672 49.296V48.636ZM389.912 49.296C389.01 49.296 388.416 49.483 388.13 49.857C387.866 50.231 387.734 50.99 387.734 52.134V68.502C387.734 69.272 387.8 69.855 387.932 70.251C388.064 70.647 388.295 70.911 388.625 71.043C388.955 71.175 389.439 71.241 390.077 71.241C391.881 71.241 393.179 70.746 393.971 69.756C394.785 68.744 395.192 67.314 395.192 65.466C395.192 63.772 394.752 62.463 393.872 61.539C393.014 60.615 391.584 60.153 389.582 60.153H386.579C386.579 60.153 386.579 60.065 386.579 59.889C386.579 59.691 386.579 59.592 386.579 59.592H389.417C390.539 59.592 391.408 59.35 392.024 58.866C392.64 58.36 393.058 57.7 393.278 56.886C393.498 56.05 393.608 55.159 393.608 54.213C393.608 52.585 393.322 51.364 392.75 50.55C392.178 49.714 391.232 49.296 389.912 49.296ZM420.746 48.636C420.658 49.538 420.592 50.418 420.548 51.276C420.526 52.112 420.515 52.75 420.515 53.19C420.515 53.608 420.526 54.015 420.548 54.411C420.57 54.785 420.592 55.104 420.614 55.368H419.855C419.679 53.85 419.393 52.662 418.997 51.804C418.601 50.924 418.062 50.308 417.38 49.956C416.72 49.582 415.851 49.395 414.773 49.395H412.958C412.298 49.395 411.792 49.45 411.44 49.56C411.088 49.67 410.846 49.901 410.714 50.253C410.604 50.605 410.549 51.144 410.549 51.87V68.766C410.549 69.47 410.604 70.009 410.714 70.383C410.846 70.735 411.088 70.966 411.44 71.076C411.792 71.186 412.298 71.241 412.958 71.241H414.839C415.961 71.241 416.896 71.032 417.644 70.614C418.414 70.196 419.03 69.514 419.492 68.568C419.954 67.6 420.295 66.28 420.515 64.608H421.274C421.208 65.29 421.175 66.17 421.175 67.248C421.175 67.71 421.186 68.381 421.208 69.261C421.252 70.141 421.318 71.054 421.406 72C420.284 71.956 419.019 71.934 417.611 71.934C416.203 71.912 414.949 71.901 413.849 71.901C413.343 71.901 412.672 71.901 411.836 71.901C411.022 71.901 410.131 71.912 409.163 71.934C408.217 71.934 407.249 71.945 406.259 71.967C405.291 71.967 404.367 71.978 403.487 72V71.34C404.213 71.296 404.752 71.208 405.104 71.076C405.478 70.944 405.72 70.68 405.83 70.284C405.962 69.888 406.028 69.294 406.028 68.502V52.134C406.028 51.32 405.962 50.726 405.83 50.352C405.72 49.956 405.478 49.692 405.104 49.56C404.752 49.406 404.213 49.318 403.487 49.296V48.636C404.367 48.658 405.291 48.68 406.259 48.702C407.249 48.702 408.217 48.713 409.163 48.735C410.131 48.735 411.022 48.735 411.836 48.735C412.672 48.735 413.343 48.735 413.849 48.735C414.861 48.735 416.005 48.735 417.281 48.735C418.579 48.713 419.734 48.68 420.746 48.636ZM415.433 59.922C415.433 59.922 415.433 60.032 415.433 60.252C415.433 60.472 415.433 60.582 415.433 60.582H409.559C409.559 60.582 409.559 60.472 409.559 60.252C409.559 60.032 409.559 59.922 409.559 59.922H415.433ZM416.39 55.566C416.302 56.82 416.258 57.777 416.258 58.437C416.28 59.097 416.291 59.702 416.291 60.252C416.291 60.802 416.302 61.407 416.324 62.067C416.346 62.727 416.401 63.684 416.489 64.938H415.73C415.62 64.19 415.444 63.486 415.202 62.826C414.982 62.144 414.619 61.605 414.113 61.209C413.629 60.791 412.925 60.582 412.001 60.582V59.922C412.683 59.922 413.233 59.779 413.651 59.493C414.091 59.207 414.443 58.844 414.707 58.404C414.971 57.942 415.169 57.469 415.301 56.985C415.455 56.479 415.565 56.006 415.631 55.566H416.39ZM425.432 48.636C425.982 48.658 426.686 48.68 427.544 48.702C428.402 48.724 429.26 48.735 430.118 48.735C431.196 48.735 432.219 48.724 433.187 48.702C434.155 48.68 434.837 48.669 435.233 48.669C438.181 48.669 440.37 49.274 441.8 50.484C443.252 51.694 443.978 53.256 443.978 55.17C443.978 55.962 443.835 56.798 443.549 57.678C443.263 58.536 442.768 59.339 442.064 60.087C441.36 60.813 440.392 61.407 439.16 61.869C437.95 62.331 436.399 62.562 434.507 62.562H431.207V61.902H434.177C435.563 61.902 436.619 61.605 437.345 61.011C438.093 60.417 438.588 59.636 438.83 58.668C439.094 57.7 439.226 56.655 439.226 55.533C439.226 53.443 438.885 51.881 438.203 50.847C437.521 49.813 436.344 49.296 434.672 49.296C433.77 49.296 433.176 49.483 432.89 49.857C432.626 50.231 432.494 50.99 432.494 52.134V68.37C432.494 69.206 432.582 69.833 432.758 70.251C432.934 70.669 433.275 70.944 433.781 71.076C434.287 71.208 435.013 71.285 435.959 71.307V72C435.321 71.956 434.496 71.934 433.484 71.934C432.472 71.912 431.427 71.901 430.349 71.901C429.425 71.901 428.534 71.912 427.676 71.934C426.818 71.934 426.07 71.956 425.432 72V71.34C426.158 71.296 426.697 71.208 427.049 71.076C427.423 70.944 427.665 70.68 427.775 70.284C427.907 69.888 427.973 69.294 427.973 68.502V52.134C427.973 51.32 427.907 50.726 427.775 50.352C427.665 49.956 427.423 49.692 427.049 49.56C426.697 49.406 426.158 49.318 425.432 49.296V48.636ZM464.442 48.636C464.354 49.538 464.288 50.418 464.244 51.276C464.222 52.112 464.211 52.75 464.211 53.19C464.211 53.608 464.222 54.015 464.244 54.411C464.266 54.785 464.288 55.104 464.31 55.368H463.551C463.375 53.85 463.089 52.662 462.693 51.804C462.297 50.924 461.758 50.308 461.076 49.956C460.416 49.582 459.547 49.395 458.469 49.395H456.654C455.994 49.395 455.488 49.45 455.136 49.56C454.784 49.67 454.542 49.901 454.41 50.253C454.3 50.605 454.245 51.144 454.245 51.87V68.766C454.245 69.47 454.3 70.009 454.41 70.383C454.542 70.735 454.784 70.966 455.136 71.076C455.488 71.186 455.994 71.241 456.654 71.241H458.535C459.657 71.241 460.592 71.032 461.34 70.614C462.11 70.196 462.726 69.514 463.188 68.568C463.65 67.6 463.991 66.28 464.211 64.608H464.97C464.904 65.29 464.871 66.17 464.871 67.248C464.871 67.71 464.882 68.381 464.904 69.261C464.948 70.141 465.014 71.054 465.102 72C463.98 71.956 462.715 71.934 461.307 71.934C459.899 71.912 458.645 71.901 457.545 71.901C457.039 71.901 456.368 71.901 455.532 71.901C454.718 71.901 453.827 71.912 452.859 71.934C451.913 71.934 450.945 71.945 449.955 71.967C448.987 71.967 448.063 71.978 447.183 72V71.34C447.909 71.296 448.448 71.208 448.8 71.076C449.174 70.944 449.416 70.68 449.526 70.284C449.658 69.888 449.724 69.294 449.724 68.502V52.134C449.724 51.32 449.658 50.726 449.526 50.352C449.416 49.956 449.174 49.692 448.8 49.56C448.448 49.406 447.909 49.318 447.183 49.296V48.636C448.063 48.658 448.987 48.68 449.955 48.702C450.945 48.702 451.913 48.713 452.859 48.735C453.827 48.735 454.718 48.735 455.532 48.735C456.368 48.735 457.039 48.735 457.545 48.735C458.557 48.735 459.701 48.735 460.977 48.735C462.275 48.713 463.43 48.68 464.442 48.636ZM459.129 59.922C459.129 59.922 459.129 60.032 459.129 60.252C459.129 60.472 459.129 60.582 459.129 60.582H453.255C453.255 60.582 453.255 60.472 453.255 60.252C453.255 60.032 453.255 59.922 453.255 59.922H459.129ZM460.086 55.566C459.998 56.82 459.954 57.777 459.954 58.437C459.976 59.097 459.987 59.702 459.987 60.252C459.987 60.802 459.998 61.407 460.02 62.067C460.042 62.727 460.097 63.684 460.185 64.938H459.426C459.316 64.19 459.14 63.486 458.898 62.826C458.678 62.144 458.315 61.605 457.809 61.209C457.325 60.791 456.621 60.582 455.697 60.582V59.922C456.379 59.922 456.929 59.779 457.347 59.493C457.787 59.207 458.139 58.844 458.403 58.404C458.667 57.942 458.865 57.469 458.997 56.985C459.151 56.479 459.261 56.006 459.327 55.566H460.086ZM478.731 48.636V49.296C478.027 49.318 477.488 49.406 477.114 49.56C476.762 49.692 476.52 49.956 476.388 50.352C476.256 50.726 476.19 51.32 476.19 52.134V68.502C476.19 69.294 476.256 69.888 476.388 70.284C476.52 70.68 476.762 70.944 477.114 71.076C477.488 71.208 478.027 71.296 478.731 71.34V72C478.181 71.956 477.477 71.934 476.619 71.934C475.761 71.912 474.892 71.901 474.012 71.901C473.022 71.901 472.098 71.912 471.24 71.934C470.382 71.934 469.678 71.956 469.128 72V71.34C469.854 71.296 470.393 71.208 470.745 71.076C471.119 70.944 471.361 70.68 471.471 70.284C471.603 69.888 471.669 69.294 471.669 68.502V52.134C471.669 51.32 471.603 50.726 471.471 50.352C471.361 49.956 471.119 49.692 470.745 49.56C470.393 49.406 469.854 49.318 469.128 49.296V48.636C469.678 48.658 470.382 48.68 471.24 48.702C472.098 48.724 473.022 48.735 474.012 48.735C474.892 48.735 475.761 48.724 476.619 48.702C477.477 48.68 478.181 48.658 478.731 48.636ZM486.915 50.583C486.915 50.583 486.904 50.704 486.882 50.946C486.882 51.166 486.882 51.397 486.882 51.639C486.882 51.881 486.882 52.002 486.882 52.002L475.134 70.68L475.002 69.558L486.915 50.583ZM493.317 48.636V49.296C492.613 49.318 492.074 49.406 491.7 49.56C491.348 49.692 491.106 49.956 490.974 50.352C490.842 50.726 490.776 51.32 490.776 52.134V68.502C490.776 69.294 490.842 69.888 490.974 70.284C491.106 70.68 491.348 70.944 491.7 71.076C492.074 71.208 492.613 71.296 493.317 71.34V72C492.811 71.956 492.118 71.934 491.238 71.934C490.358 71.912 489.423 71.901 488.433 71.901C487.597 71.901 486.739 71.912 485.859 71.934C485.001 71.934 484.286 71.956 483.714 72V71.34C484.44 71.296 484.979 71.208 485.331 71.076C485.705 70.944 485.947 70.68 486.057 70.284C486.189 69.888 486.255 69.294 486.255 68.502V52.134C486.255 51.32 486.189 50.726 486.057 50.352C485.947 49.956 485.705 49.692 485.331 49.56C484.979 49.406 484.44 49.318 483.714 49.296V48.636C484.286 48.658 485.001 48.68 485.859 48.702C486.739 48.724 487.597 48.735 488.433 48.735C489.423 48.735 490.358 48.724 491.238 48.702C492.118 48.68 492.811 48.658 493.317 48.636ZM486.354 40.815C487.036 40.815 487.597 41.013 488.037 41.409C488.477 41.783 488.697 42.278 488.697 42.894C488.697 43.4 488.532 43.851 488.202 44.247C487.894 44.621 487.443 44.962 486.849 45.27C486.233 45.6 485.452 45.886 484.506 46.128C483.582 46.348 482.504 46.458 481.272 46.458C480.018 46.458 478.918 46.348 477.972 46.128C477.048 45.886 476.278 45.6 475.662 45.27C475.09 44.962 474.639 44.621 474.309 44.247C474.001 43.851 473.847 43.4 473.847 42.894C473.847 42.278 474.056 41.783 474.474 41.409C474.914 41.013 475.475 40.815 476.157 40.815C476.839 40.815 477.4 41.002 477.84 41.376C478.302 41.75 478.533 42.256 478.533 42.894C478.533 43.444 478.357 43.884 478.005 44.214C477.675 44.544 477.257 44.764 476.751 44.874C477.147 45.116 477.609 45.303 478.137 45.435C478.665 45.567 479.204 45.666 479.754 45.732C480.304 45.776 480.81 45.798 481.272 45.798C481.712 45.798 482.207 45.776 482.757 45.732C483.329 45.666 483.879 45.567 484.407 45.435C484.935 45.281 485.397 45.094 485.793 44.874C485.243 44.742 484.803 44.511 484.473 44.181C484.165 43.851 484.011 43.422 484.011 42.894C484.011 42.278 484.231 41.783 484.671 41.409C485.133 41.013 485.694 40.815 486.354 40.815Z" fill="black"/>
<path d="M44.712 98.477C46.362 98.477 47.66 98.84 48.606 99.566C49.574 100.292 50.058 101.326 50.058 102.668C50.058 103.526 49.838 104.329 49.398 105.077C48.98 105.803 48.43 106.496 47.748 107.156C47.066 107.794 46.329 108.421 45.537 109.037C44.767 109.631 44.008 110.214 43.26 110.786C42.534 111.358 41.907 111.941 41.379 112.535H48.408C49.31 112.535 49.882 112.425 50.124 112.205C50.366 111.963 50.531 111.556 50.619 110.984H51.246C51.246 112.348 51.257 113.404 51.279 114.152C51.301 114.9 51.334 115.571 51.378 116.165C51.18 116.121 50.817 116.088 50.289 116.066C49.761 116.044 49.156 116.022 48.474 116C47.792 116 47.121 116 46.461 116H37.485V115.373C38.123 114.713 38.893 113.987 39.795 113.195C40.719 112.381 41.61 111.49 42.468 110.522C43.348 109.554 44.074 108.498 44.646 107.354C45.24 106.21 45.537 104.967 45.537 103.625C45.537 102.437 45.262 101.568 44.712 101.018C44.184 100.468 43.403 100.193 42.369 100.193C41.467 100.193 40.642 100.435 39.894 100.919C39.168 101.381 38.519 102.063 37.947 102.965L37.419 102.602C37.837 101.876 38.354 101.205 38.97 100.589C39.608 99.951 40.389 99.445 41.313 99.071C42.259 98.675 43.392 98.477 44.712 98.477ZM62.03 98.477C63.064 98.477 63.977 98.631 64.769 98.939C65.583 99.247 66.221 99.687 66.683 100.259C67.145 100.809 67.376 101.48 67.376 102.272C67.376 103.108 67.112 103.889 66.584 104.615C66.056 105.341 65.33 105.968 64.406 106.496C63.504 107.024 62.459 107.431 61.271 107.717C62.613 107.695 63.834 107.871 64.934 108.245C66.034 108.597 66.914 109.158 67.574 109.928C68.234 110.676 68.564 111.622 68.564 112.766C68.564 113.778 68.3 114.713 67.772 115.571C67.244 116.407 66.529 117.155 65.627 117.815C64.747 118.497 63.724 119.069 62.558 119.531C61.392 120.015 60.171 120.378 58.895 120.62C57.641 120.862 56.398 120.983 55.166 120.983V120.356C56.222 120.312 57.278 120.125 58.334 119.795C59.412 119.465 60.391 118.981 61.271 118.343C62.173 117.705 62.888 116.924 63.416 116C63.966 115.054 64.241 113.976 64.241 112.766C64.241 111.468 63.933 110.401 63.317 109.565C62.701 108.729 61.854 108.267 60.776 108.179C60.446 108.311 60.138 108.432 59.852 108.542C59.588 108.652 59.335 108.707 59.093 108.707C58.917 108.707 58.774 108.674 58.664 108.608C58.576 108.52 58.532 108.388 58.532 108.212C58.532 107.992 58.631 107.827 58.829 107.717C59.027 107.607 59.258 107.552 59.522 107.552C59.698 107.552 59.874 107.563 60.05 107.585C60.248 107.607 60.457 107.629 60.677 107.651C61.601 106.991 62.25 106.276 62.624 105.506C63.02 104.714 63.218 103.922 63.218 103.13C63.218 102.118 62.954 101.381 62.426 100.919C61.898 100.435 61.194 100.193 60.314 100.193C59.434 100.193 58.609 100.424 57.839 100.886C57.091 101.326 56.464 101.997 55.958 102.899L55.397 102.602C55.771 101.876 56.233 101.205 56.783 100.589C57.355 99.951 58.07 99.445 58.928 99.071C59.786 98.675 60.82 98.477 62.03 98.477ZM75.4481 111.644C76.1961 111.644 76.8121 111.864 77.2961 112.304C77.7801 112.744 78.0221 113.327 78.0221 114.053C78.0221 114.779 77.7801 115.362 77.2961 115.802C76.8121 116.242 76.1961 116.462 75.4481 116.462C74.6781 116.462 74.0511 116.242 73.5671 115.802C73.1051 115.362 72.8741 114.779 72.8741 114.053C72.8741 113.327 73.1051 112.744 73.5671 112.304C74.0511 111.864 74.6781 111.644 75.4481 111.644ZM90.1223 98.576V112.733C90.1223 113.745 90.3203 114.427 90.7163 114.779C91.1123 115.131 91.7943 115.307 92.7623 115.307V116C92.3223 115.978 91.6733 115.956 90.8153 115.934C89.9793 115.89 89.1103 115.868 88.2083 115.868C87.1083 115.868 86.0523 115.89 85.0403 115.934C84.0503 115.956 83.2803 115.978 82.7303 116V115.307C83.7423 115.307 84.5343 115.131 85.1063 114.779C85.6783 114.405 85.9643 113.679 85.9643 112.601V104.549C85.9643 103.493 85.8653 102.712 85.6673 102.206C85.4693 101.7 85.1173 101.37 84.6113 101.216C84.1053 101.062 83.4123 100.985 82.5323 100.985V100.259C84.3143 100.215 85.7883 100.072 86.9543 99.83C88.1423 99.588 89.1983 99.17 90.1223 98.576ZM103.649 98.477C105.299 98.477 106.597 98.84 107.543 99.566C108.511 100.292 108.995 101.326 108.995 102.668C108.995 103.526 108.775 104.329 108.335 105.077C107.917 105.803 107.367 106.496 106.685 107.156C106.003 107.794 105.266 108.421 104.474 109.037C103.704 109.631 102.945 110.214 102.197 110.786C101.471 111.358 100.844 111.941 100.316 112.535H107.345C108.247 112.535 108.819 112.425 109.061 112.205C109.303 111.963 109.468 111.556 109.556 110.984H110.183C110.183 112.348 110.194 113.404 110.216 114.152C110.238 114.9 110.271 115.571 110.315 116.165C110.117 116.121 109.754 116.088 109.226 116.066C108.698 116.044 108.093 116.022 107.411 116C106.729 116 106.058 116 105.398 116H96.4222V115.373C97.0602 114.713 97.8302 113.987 98.7322 113.195C99.6562 112.381 100.547 111.49 101.405 110.522C102.285 109.554 103.011 108.498 103.583 107.354C104.177 106.21 104.474 104.967 104.474 103.625C104.474 102.437 104.199 101.568 103.649 101.018C103.121 100.468 102.34 100.193 101.306 100.193C100.404 100.193 99.5792 100.435 98.8312 100.919C98.1052 101.381 97.4562 102.063 96.8842 102.965L96.3562 102.602C96.7742 101.876 97.2912 101.205 97.9072 100.589C98.5452 99.951 99.3262 99.445 100.25 99.071C101.196 98.675 102.329 98.477 103.649 98.477ZM117.403 111.644C118.151 111.644 118.767 111.864 119.251 112.304C119.735 112.744 119.977 113.327 119.977 114.053C119.977 114.779 119.735 115.362 119.251 115.802C118.767 116.242 118.151 116.462 117.403 116.462C116.633 116.462 116.006 116.242 115.522 115.802C115.06 115.362 114.829 114.779 114.829 114.053C114.829 113.327 115.06 112.744 115.522 112.304C116.006 111.864 116.633 111.644 117.403 111.644ZM131.78 98.477C133.43 98.477 134.728 98.84 135.674 99.566C136.642 100.292 137.126 101.326 137.126 102.668C137.126 103.526 136.906 104.329 136.466 105.077C136.048 105.803 135.498 106.496 134.816 107.156C134.134 107.794 133.397 108.421 132.605 109.037C131.835 109.631 131.076 110.214 130.328 110.786C129.602 111.358 128.975 111.941 128.447 112.535H135.476C136.378 112.535 136.95 112.425 137.192 112.205C137.434 111.963 137.599 111.556 137.687 110.984H138.314C138.314 112.348 138.325 113.404 138.347 114.152C138.369 114.9 138.402 115.571 138.446 116.165C138.248 116.121 137.885 116.088 137.357 116.066C136.829 116.044 136.224 116.022 135.542 116C134.86 116 134.189 116 133.529 116H124.553V115.373C125.191 114.713 125.961 113.987 126.863 113.195C127.787 112.381 128.678 111.49 129.536 110.522C130.416 109.554 131.142 108.498 131.714 107.354C132.308 106.21 132.605 104.967 132.605 103.625C132.605 102.437 132.33 101.568 131.78 101.018C131.252 100.468 130.471 100.193 129.437 100.193C128.535 100.193 127.71 100.435 126.962 100.919C126.236 101.381 125.587 102.063 125.015 102.965L124.487 102.602C124.905 101.876 125.422 101.205 126.038 100.589C126.676 99.951 127.457 99.445 128.381 99.071C129.327 98.675 130.46 98.477 131.78 98.477ZM149.89 98.477C151.54 98.477 152.838 98.84 153.784 99.566C154.752 100.292 155.236 101.326 155.236 102.668C155.236 103.526 155.016 104.329 154.576 105.077C154.158 105.803 153.608 106.496 152.926 107.156C152.244 107.794 151.507 108.421 150.715 109.037C149.945 109.631 149.186 110.214 148.438 110.786C147.712 111.358 147.085 111.941 146.557 112.535H153.586C154.488 112.535 155.06 112.425 155.302 112.205C155.544 111.963 155.709 111.556 155.797 110.984H156.424C156.424 112.348 156.435 113.404 156.457 114.152C156.479 114.9 156.512 115.571 156.556 116.165C156.358 116.121 155.995 116.088 155.467 116.066C154.939 116.044 154.334 116.022 153.652 116C152.97 116 152.299 116 151.639 116H142.663V115.373C143.301 114.713 144.071 113.987 144.973 113.195C145.897 112.381 146.788 111.49 147.646 110.522C148.526 109.554 149.252 108.498 149.824 107.354C150.418 106.21 150.715 104.967 150.715 103.625C150.715 102.437 150.44 101.568 149.89 101.018C149.362 100.468 148.581 100.193 147.547 100.193C146.645 100.193 145.82 100.435 145.072 100.919C144.346 101.381 143.697 102.063 143.125 102.965L142.597 102.602C143.015 101.876 143.532 101.205 144.148 100.589C144.786 99.951 145.567 99.445 146.491 99.071C147.437 98.675 148.57 98.477 149.89 98.477ZM173.459 87.686V122.435H171.083V87.686H173.459Z" fill="black"/>
<path d="M194.009 98.576V112.733C194.009 113.745 194.207 114.427 194.603 114.779C194.999 115.131 195.681 115.307 196.649 115.307V116C196.209 115.978 195.56 115.956 194.702 115.934C193.866 115.89 192.997 115.868 192.095 115.868C190.995 115.868 189.939 115.89 188.927 115.934C187.937 115.956 187.167 115.978 186.617 116V115.307C187.629 115.307 188.421 115.131 188.993 114.779C189.565 114.405 189.851 113.679 189.851 112.601V104.549C189.851 103.493 189.752 102.712 189.554 102.206C189.356 101.7 189.004 101.37 188.498 101.216C187.992 101.062 187.299 100.985 186.419 100.985V100.259C188.201 100.215 189.675 100.072 190.841 99.83C192.029 99.588 193.085 99.17 194.009 98.576ZM207.833 98.576V112.733C207.833 113.745 208.031 114.427 208.427 114.779C208.823 115.131 209.505 115.307 210.473 115.307V116C210.033 115.978 209.384 115.956 208.526 115.934C207.69 115.89 206.821 115.868 205.919 115.868C204.819 115.868 203.763 115.89 202.751 115.934C201.761 115.956 200.991 115.978 200.441 116V115.307C201.453 115.307 202.245 115.131 202.817 114.779C203.389 114.405 203.675 113.679 203.675 112.601V104.549C203.675 103.493 203.576 102.712 203.378 102.206C203.18 101.7 202.828 101.37 202.322 101.216C201.816 101.062 201.123 100.985 200.243 100.985V100.259C202.025 100.215 203.499 100.072 204.665 99.83C205.853 99.588 206.909 99.17 207.833 98.576ZM217.301 98.51C218.049 98.51 218.665 98.73 219.149 99.17C219.633 99.61 219.875 100.193 219.875 100.919C219.875 101.645 219.633 102.228 219.149 102.668C218.665 103.108 218.049 103.328 217.301 103.328C216.531 103.328 215.904 103.108 215.42 102.668C214.958 102.228 214.727 101.645 214.727 100.919C214.727 100.193 214.958 99.61 215.42 99.17C215.904 98.73 216.531 98.51 217.301 98.51ZM217.301 111.644C218.049 111.644 218.665 111.864 219.149 112.304C219.633 112.744 219.875 113.327 219.875 114.053C219.875 114.779 219.633 115.362 219.149 115.802C218.665 116.242 218.049 116.462 217.301 116.462C216.531 116.462 215.904 116.242 215.42 115.802C214.958 115.362 214.727 114.779 214.727 114.053C214.727 113.327 214.958 112.744 215.42 112.304C215.904 111.864 216.531 111.644 217.301 111.644ZM235.425 98.477L235.557 99.335L225.624 112.535L225.888 111.611H236.283C237.185 111.611 237.757 111.501 237.999 111.281C238.241 111.039 238.406 110.632 238.494 110.06H239.121C239.121 111.314 239.132 112.282 239.154 112.964C239.176 113.624 239.209 114.229 239.253 114.779C239.099 114.735 238.824 114.713 238.428 114.713C238.032 114.691 237.57 114.669 237.042 114.647C236.514 114.625 235.964 114.614 235.392 114.614C234.842 114.614 234.314 114.614 233.808 114.614H223.644V113.921L235.425 98.477ZM235.953 98.477V120.653H232.521V102.767L235.425 98.477H235.953ZM252.177 98.477C253.871 98.477 255.367 98.84 256.665 99.566C257.963 100.292 258.975 101.304 259.701 102.602C260.449 103.9 260.823 105.429 260.823 107.189C260.823 108.949 260.438 110.533 259.668 111.941C258.92 113.349 257.875 114.46 256.533 115.274C255.191 116.066 253.618 116.462 251.814 116.462C250.164 116.462 248.679 116.11 247.359 115.406C246.061 114.68 245.038 113.657 244.29 112.337C243.542 111.017 243.168 109.477 243.168 107.717C243.168 105.979 243.542 104.417 244.29 103.031C245.038 101.645 246.083 100.545 247.425 99.731C248.789 98.895 250.373 98.477 252.177 98.477ZM251.88 99.071C250.626 99.071 249.592 99.83 248.778 101.348C247.964 102.844 247.557 104.934 247.557 107.618C247.557 109.598 247.766 111.193 248.184 112.403C248.602 113.613 249.163 114.493 249.867 115.043C250.571 115.593 251.319 115.868 252.111 115.868C253.387 115.868 254.421 115.109 255.213 113.591C256.027 112.073 256.434 109.972 256.434 107.288C256.434 105.308 256.225 103.724 255.807 102.536C255.389 101.326 254.839 100.446 254.157 99.896C253.475 99.346 252.716 99.071 251.88 99.071Z" fill="black"/>
<rect x="1.5" y="1.5" width="528" height="718" stroke="black" stroke-width="3"/>
</svg>
