<svg width="463" height="203" viewBox="0 0 463 203" fill="none" xmlns="http://www.w3.org/2000/svg">
<g clip-path="url(#clip0_164_1207)">
<rect x="2.36328" width="460.657" height="197.506" transform="rotate(0.685457 2.36328 0)" fill="#EBE9E3"/>
<path d="M311.198 141.427L305.183 132.327C296.074 137.536 277.523 140.393 283.014 148.699C289.58 158.632 303.519 150.241 311.198 141.427Z" fill="#1B1B1B"/>
<path d="M308.944 130.592L313.805 139.131C317.094 137.154 323.718 132.198 320.108 126.737C316.702 121.584 312.115 127.829 308.944 130.592Z" fill="#1B1B1B"/>
<path d="M311.198 141.427L305.183 132.327C296.074 137.536 277.523 140.393 283.014 148.699C289.58 158.632 303.519 150.241 311.198 141.427Z" stroke="#1B1B1B" stroke-width="2"/>
<path d="M308.944 130.592L313.805 139.131C317.094 137.154 323.718 132.198 320.108 126.737C316.702 121.584 312.115 127.829 308.944 130.592Z" stroke="#1B1B1B" stroke-width="2"/>
<path d="M386.873 100.497L379.453 92.5003C371.316 99.1251 353.48 104.97 360.252 112.269C368.351 120.998 380.734 110.446 386.873 100.497Z" fill="#1B1B1B"/>
<path d="M382.88 90.1745L389.07 97.8067C391.993 95.3192 397.719 89.3495 393.267 84.5504C389.065 80.0222 385.559 86.9322 382.88 90.1745Z" fill="#1B1B1B"/>
<path d="M386.873 100.497L379.453 92.5003C371.316 99.1251 353.48 104.97 360.252 112.269C368.351 120.998 380.734 110.446 386.873 100.497Z" stroke="#1B1B1B" stroke-width="2"/>
<path d="M382.88 90.1745L389.07 97.8067C391.993 95.3192 397.719 89.3495 393.267 84.5504C389.065 80.0222 385.559 86.9322 382.88 90.1745Z" stroke="#1B1B1B" stroke-width="2"/>
<path d="M229.429 165.117L225.597 154.904C215.555 157.948 196.835 156.592 200.333 165.914C204.516 177.062 219.976 171.995 229.429 165.117Z" fill="#1B1B1B"/>
<path d="M229.65 154.052L232.483 163.462C236.13 162.268 243.693 158.917 241.393 152.787C239.223 147.004 233.358 152.068 229.65 154.052Z" fill="#1B1B1B"/>
<path d="M229.429 165.117L225.597 154.904C215.555 157.948 196.835 156.592 200.333 165.914C204.516 177.062 219.976 171.995 229.429 165.117Z" stroke="#1B1B1B" stroke-width="2"/>
<path d="M229.65 154.052L232.483 163.462C236.13 162.268 243.693 158.917 241.393 152.787C239.223 147.004 233.358 152.068 229.65 154.052Z" stroke="#1B1B1B" stroke-width="2"/>
<path d="M450.977 40.501L442.545 33.5803C435.378 41.2437 418.495 49.4447 426.191 55.7618C435.395 63.3165 446.239 51.1879 450.977 40.501Z" fill="#1B1B1B"/>
<path d="M445.627 30.8127L452.791 37.5387C455.351 34.6792 460.218 27.9905 455.158 23.837C450.383 19.9179 447.842 27.2383 445.627 30.8127Z" fill="#1B1B1B"/>
<path d="M450.977 40.501L442.545 33.5803C435.378 41.2437 418.495 49.4447 426.191 55.7618C435.395 63.3165 446.239 51.1879 450.977 40.501Z" stroke="#1B1B1B" stroke-width="2"/>
<path d="M445.627 30.8127L452.791 37.5387C455.351 34.6792 460.218 27.9905 455.158 23.837C450.383 19.9179 447.842 27.2383 445.627 30.8127Z" stroke="#1B1B1B" stroke-width="2"/>
<path d="M139.971 179.402L137.683 168.736C127.303 170.269 108.986 166.171 111.074 175.907C113.57 187.55 129.608 184.813 139.971 179.402Z" fill="#1B1B1B"/>
<path d="M141.818 168.49L143.235 178.214C147.018 177.571 154.992 175.369 153.62 168.968C152.324 162.928 145.777 167.073 141.818 168.49Z" fill="#1B1B1B"/>
<path d="M139.971 179.402L137.683 168.736C127.303 170.269 108.986 166.171 111.074 175.907C113.57 187.55 129.608 184.813 139.971 179.402Z" stroke="#1B1B1B" stroke-width="2"/>
<path d="M141.818 168.49L143.235 178.214C147.018 177.571 154.992 175.369 153.62 168.968C152.324 162.928 145.777 167.073 141.818 168.49Z" stroke="#1B1B1B" stroke-width="2"/>
<path d="M51.6115 183.505L51.2028 172.605C40.7138 172.319 23.3812 165.117 23.7543 175.067C24.2004 186.966 40.4696 187.043 51.6115 183.505Z" fill="#1B1B1B"/>
<path d="M55.3177 173.077L55.0319 182.899C58.8696 182.92 67.1042 182.13 66.8589 175.588C66.6275 169.415 59.4625 172.366 55.3177 173.077Z" fill="#1B1B1B"/>
<path d="M51.6115 183.505L51.2028 172.605C40.7138 172.319 23.3812 165.117 23.7543 175.067C24.2004 186.966 40.4696 187.043 51.6115 183.505Z" stroke="#1B1B1B" stroke-width="2"/>
<path d="M55.3177 173.077L55.0319 182.899C58.8696 182.92 67.1042 182.13 66.8589 175.588C66.6275 169.415 59.4625 172.366 55.3177 173.077Z" stroke="#1B1B1B" stroke-width="2"/>
<path d="M255.718 108.575L259.616 120.096C249.8 123.835 236.226 137.044 232.668 126.528C228.413 113.952 243.781 108.534 255.718 108.575Z" fill="#1B1B1B"/>
<path d="M263.326 118.252L259.194 108.086C262.818 106.805 270.923 104.929 273.263 111.844C275.47 118.368 267.528 117.636 263.326 118.252Z" fill="#1B1B1B"/>
<path d="M255.718 108.575L259.616 120.096C249.8 123.835 236.226 137.044 232.668 126.528C228.413 113.952 243.781 108.534 255.718 108.575Z" stroke="#1B1B1B" stroke-width="2"/>
<path d="M263.326 118.252L259.194 108.086C262.818 106.805 270.923 104.929 273.263 111.844C275.47 118.368 267.528 117.636 263.326 118.252Z" stroke="#1B1B1B" stroke-width="2"/>
<path d="M330.211 78.5343L335.189 89.6313C325.774 94.2886 313.52 108.731 308.976 98.6022C303.542 86.4889 318.325 79.6313 330.211 78.5343Z" fill="#1B1B1B"/>
<path d="M338.706 87.443L333.624 77.7162C337.11 76.0963 344.999 73.4567 347.987 80.1166C350.806 86.4006 342.831 86.4286 338.706 87.443Z" fill="#1B1B1B"/>
<path d="M330.211 78.5343L335.189 89.6313C325.774 94.2886 313.52 108.731 308.976 98.6022C303.542 86.4889 318.325 79.6313 330.211 78.5343Z" stroke="#1B1B1B" stroke-width="2"/>
<path d="M338.706 87.443L333.624 77.7162C337.11 76.0963 344.999 73.4567 347.987 80.1166C350.806 86.4006 342.831 86.4286 338.706 87.443Z" stroke="#1B1B1B" stroke-width="2"/>
<path d="M395.264 37.1109L401.886 47.3121C393.298 53.3596 383.407 69.5125 377.362 60.201C370.132 49.0656 383.687 40.0197 395.264 37.1109Z" fill="#1B1B1B"/>
<path d="M405.026 44.6098L398.511 35.7785C401.707 33.6426 409.097 29.8231 413.072 35.9453C416.822 41.722 408.946 42.9742 405.026 44.6098Z" fill="#1B1B1B"/>
<path d="M395.264 37.1109L401.886 47.3121C393.298 53.3596 383.407 69.5125 377.362 60.201C370.132 49.0656 383.687 40.0197 395.264 37.1109Z" stroke="#1B1B1B" stroke-width="2"/>
<path d="M405.026 44.6098L398.511 35.7785C401.707 33.6426 409.097 29.8231 413.072 35.9453C416.822 41.722 408.946 42.9742 405.026 44.6098Z" stroke="#1B1B1B" stroke-width="2"/>
<path d="M455.741 -18.8588L462.364 -8.65767C453.776 -2.61015 443.884 13.5428 437.839 4.23129C430.61 -6.90417 444.164 -15.95 455.741 -18.8588Z" fill="#1B1B1B"/>
<path d="M465.503 -11.3599L458.988 -20.1912C462.184 -22.3271 469.575 -26.1467 473.549 -20.0244C477.3 -14.2477 469.423 -12.9956 465.503 -11.3599Z" fill="#1B1B1B"/>
<path d="M455.741 -18.8588L462.364 -8.65767C453.776 -2.61015 443.884 13.5428 437.839 4.23129C430.61 -6.90417 444.164 -15.95 455.741 -18.8588Z" stroke="#1B1B1B" stroke-width="2"/>
<path d="M465.503 -11.3599L458.988 -20.1912C462.184 -22.3271 469.575 -26.1467 473.549 -20.0244C477.3 -14.2477 469.423 -12.9956 465.503 -11.3599Z" stroke="#1B1B1B" stroke-width="2"/>
<path d="M181.249 123.669L181.436 135.83C170.947 136.387 153.982 144.811 153.812 133.711C153.607 120.436 169.897 119.979 181.249 123.669Z" fill="#1B1B1B"/>
<path d="M185.531 135.21L184.707 124.267C188.55 124.157 196.84 124.85 196.952 132.148C197.058 139.035 189.721 135.908 185.531 135.21Z" fill="#1B1B1B"/>
<path d="M181.249 123.669L181.436 135.83C170.947 136.387 153.982 144.811 153.812 133.711C153.607 120.436 169.897 119.979 181.249 123.669Z" stroke="#1B1B1B" stroke-width="2"/>
<path d="M185.531 135.21L184.707 124.267C188.55 124.157 196.84 124.85 196.952 132.148C197.058 139.035 189.721 135.908 185.531 135.21Z" stroke="#1B1B1B" stroke-width="2"/>
<path d="M96.8513 132.604L96.6066 144.764C86.1043 144.948 68.8516 152.765 69.0749 141.666C69.3419 128.392 85.6372 128.513 96.8513 132.604Z" fill="#1B1B1B"/>
<path d="M100.721 144.289L100.287 133.324C104.13 133.35 112.391 134.337 112.244 141.635C112.105 148.521 104.884 145.136 100.721 144.289Z" fill="#1B1B1B"/>
<path d="M96.8513 132.604L96.6066 144.764C86.1043 144.948 68.8516 152.765 69.0749 141.666C69.3419 128.392 85.6372 128.513 96.8513 132.604Z" stroke="#1B1B1B" stroke-width="2"/>
<path d="M100.721 144.289L100.287 133.324C104.13 133.35 112.391 134.337 112.244 141.635C112.105 148.521 104.884 145.136 100.721 144.289Z" stroke="#1B1B1B" stroke-width="2"/>
</g>
<rect x="3.84523" y="1.51784" width="457.657" height="194.506" transform="rotate(0.685457 3.84523 1.51784)" stroke="black" stroke-width="3"/>
<defs>
<clipPath id="clip0_164_1207">
<rect x="2.36328" width="460.657" height="197.506" transform="rotate(0.685457 2.36328 0)" fill="white"/>
</clipPath>
</defs>
</svg>
