<svg width="1140" height="1203" viewBox="0 0 1140 1203" fill="none" xmlns="http://www.w3.org/2000/svg">
<path d="M198.579 827.279V946.777V1200.71H133.854V406.549L268.537 343.376L572.009 80.4203L789.497 274.99L997.721 406.549V1200.71H932.99V827.279C932.99 631.851 865.775 417.752 558.318 319.415C283.228 394.101 198.579 659.236 198.579 827.279Z" fill="#D3CDC4"/>
<path d="M198.579 827.279V946.777V1200.71H133.854V406.549L268.537 343.376L572.009 80.4203L789.497 274.99L997.721 406.549V1200.71H932.99V827.279C932.99 631.851 865.775 417.752 558.318 319.415M198.579 827.279C198.579 659.236 283.228 394.101 558.318 319.415M198.579 827.279C179.91 557.165 331.774 380.921 558.318 319.415" stroke="black" stroke-width="4"/>
<path d="M971.581 831.014C971.581 595.795 811.736 345.044 563.298 295.765C345.408 341.998 159.994 532.27 159.994 831.014H198.582C198.582 625.876 313.1 402.814 563.298 334.352C813.496 395.346 932.993 650.523 932.993 831.014H971.581Z" fill="#D3CDC4" stroke="black" stroke-width="4"/>
<path d="M41.7422 425.22L50.4555 407.794L154.823 407.794L163.682 425.22H41.7422Z" fill="#D3CDC4" stroke="black" stroke-width="4"/>
<path d="M116.518 2H89.9394L58.9307 320.66H151.157L116.518 2Z" fill="#D3CDC4" stroke="black" stroke-width="4"/>
<path d="M65.3921 312.702H144.387C155.656 312.702 164.792 321.838 164.792 333.108C164.792 344.377 155.656 353.513 144.387 353.513H65.3921C54.1223 353.513 44.9863 344.377 44.9863 333.108C44.9863 321.838 54.1223 312.702 65.3921 312.702Z" fill="#D3CDC4" stroke="black" stroke-width="4"/>
<path d="M71.6162 1200.71V559.655H133.854V1200.71H71.6162Z" fill="#D3CDC4" stroke="black" stroke-width="4"/>
<path d="M49.2117 438.913V425.22H155.017V438.913H169.954L179.912 488.703C152.527 493.682 140.08 522.312 137.59 559.655H67.8832C63.8999 508.868 37.179 492.023 24.3164 489.948L33.0298 438.913H49.2117Z" fill="#D3CDC4" stroke="black" stroke-width="4"/>
<path d="M5 362.836L50.2791 407.793H155.266L206.267 362.836L146.849 353.284H60.4677L5 362.836Z" fill="#D3CDC4" stroke="black" stroke-width="4"/>
<path d="M968.015 425.22L976.728 407.794L1081.1 407.794L1089.95 425.22H968.015Z" fill="#D3CDC4" stroke="black" stroke-width="4"/>
<path d="M1040.57 2H1013.99L982.979 320.66H1075.21L1040.57 2Z" fill="#D3CDC4" stroke="black" stroke-width="4"/>
<path d="M990.147 312.702H1067.32C1078.59 312.702 1087.73 321.838 1087.73 333.108C1087.73 344.377 1078.59 353.513 1067.32 353.513H990.147C978.877 353.513 969.741 344.377 969.741 333.108C969.741 321.838 978.877 312.702 990.147 312.702Z" fill="#D3CDC4" stroke="black" stroke-width="4"/>
<path d="M997.889 1200.71V559.655H1060.13V1200.71H997.889Z" fill="#D3CDC4" stroke="black" stroke-width="4"/>
<path d="M975.484 438.913V425.22H1081.29V438.913H1096.23L1106.18 488.703C1078.8 493.682 1066.35 522.312 1063.86 559.655H994.156C990.172 508.868 963.451 492.023 950.589 489.948L959.302 438.913H975.484Z" fill="#D3CDC4" stroke="black" stroke-width="4"/>
<path d="M927.381 362.982L976.864 407.793H1081.54L1134.38 362.982L1070.27 353.285H986.74L927.381 362.982Z" fill="#D3CDC4" stroke="black" stroke-width="4"/>
<path d="M130.121 860.888L118.918 830.819H213.52L202.317 860.888H130.121Z" fill="#D3CDC4" stroke="black" stroke-width="4"/>
<path d="M929.26 859.643L918.057 831.014H1013.9L1001.46 859.643H929.26Z" fill="#D3CDC4" stroke="black" stroke-width="4"/>
<path d="M977.421 407.871L564.543 43.1432L155.672 407.793H208.54L564.543 97.8468L924.28 407.871H977.421Z" fill="#D3CDC4" stroke="black" stroke-width="4"/>
</svg>
