<svg width="286" height="166" viewBox="0 0 286 166" fill="none" xmlns="http://www.w3.org/2000/svg">
<path d="M108.094 108.579C62.5444 81.0643 45.0543 80.6878 26.4208 82.2007C23.68 82.4233 14.7288 83.4603 10.8122 85.9117C23.8346 62.7762 19.9892 41.5235 16.4387 33.7892C49.2301 0.999404 87.7902 16.6664 102.971 28.5986C120.332 44.2474 165.988 74.4071 209.726 69.8554C253.464 65.3037 265.788 85.2002 266.483 95.7174C262.203 99.6069 254.967 110.224 260.267 121.576C266.891 135.765 266.123 144.555 263.495 151.237C267.014 133.269 238.254 124.272 215.26 130.387C188.404 137.529 153.644 136.093 108.094 108.579Z" fill="#D3CDC4" stroke="#1B1B1B" stroke-width="3"/>
<path d="M50.42 43.2654C52.504 43.2654 54.1262 43.9048 55.2866 45.1837C56.4706 46.4388 57.0627 48.4044 57.0627 51.0804L44.5232 51.0804L44.4877 50.4055L53.6525 50.4055C53.6999 49.2451 53.6052 48.1794 53.3683 47.2084C53.1315 46.2138 52.7526 45.4205 52.2316 44.8284C51.7343 44.2364 51.083 43.9404 50.2779 43.9404C49.1885 43.9404 48.2176 44.485 47.365 45.5744C46.5362 46.6638 46.0388 48.3925 45.8731 50.7607L45.9796 50.9028C45.9323 51.258 45.8967 51.6488 45.8731 52.075C45.8494 52.5013 45.8375 52.9276 45.8375 53.3538C45.8375 54.9642 46.098 56.3496 46.619 57.51C47.14 58.6704 47.815 59.5585 48.6438 60.1742C49.4964 60.7662 50.3726 61.0623 51.2725 61.0623C51.983 61.0623 52.6579 60.9557 53.2973 60.7425C53.9367 60.5057 54.5287 60.1268 55.0734 59.6058C55.6181 59.0848 56.0917 58.3862 56.4943 57.51L57.2048 57.7942C56.9443 58.5757 56.518 59.3335 55.926 60.0676C55.3339 60.8018 54.5879 61.4056 53.688 61.8793C52.7881 62.3292 51.7461 62.5542 50.5621 62.5542C48.857 62.5542 47.3887 62.1635 46.1572 61.382C44.9495 60.6005 44.0141 59.5229 43.351 58.1494C42.7116 56.7522 42.3919 55.1537 42.3919 53.3538C42.3919 51.2699 42.7234 49.4819 43.3865 47.9899C44.0496 46.4743 44.985 45.3139 46.1928 44.5087C47.4005 43.6799 48.8096 43.2654 50.42 43.2654ZM56.1036 34.0651L56.7075 34.3848C56.3759 35.1663 55.9141 35.9596 55.3221 36.7648C54.7537 37.57 54.0551 38.2449 53.2262 38.7896C52.3974 39.3106 51.4383 39.5711 50.3489 39.5711C49.2596 39.5711 48.3004 39.3106 47.4716 38.7896C46.6427 38.2449 45.9323 37.57 45.3402 36.7648C44.7719 35.9596 44.3219 35.1663 43.9904 34.3848L44.5943 34.0651C44.9258 34.5861 45.3402 35.1189 45.8375 35.6636C46.3349 36.1846 46.9506 36.6227 47.6847 36.9779C48.4425 37.3095 49.3306 37.4752 50.3489 37.4752C51.3672 37.4752 52.2435 37.3095 52.9776 36.9779C53.7354 36.6227 54.363 36.1846 54.8603 35.6636C55.3813 35.1189 55.7957 34.5861 56.1036 34.0651Z" fill="#2F2F2F"/>
<path d="M91.5542 55.2938C93.6382 55.2938 95.2604 55.9332 96.4208 57.212C97.6049 58.4671 98.197 60.4327 98.197 63.1087L85.6575 63.1087L85.622 62.4338L94.7868 62.4338C94.8341 61.2734 94.7394 60.2077 94.5026 59.2368C94.2658 58.2421 93.8869 57.4488 93.3659 56.8567C92.8686 56.2647 92.2173 55.9687 91.4121 55.9687C90.3228 55.9687 89.3518 56.5134 88.4993 57.6027C87.6704 58.6921 87.1731 60.4208 87.0073 62.789L87.1139 62.9311C87.0665 63.2863 87.031 63.6771 87.0073 64.1034C86.9837 64.5296 86.9718 64.9559 86.9718 65.3822C86.9718 66.9925 87.2323 68.3779 87.7533 69.5383C88.2743 70.6987 88.9492 71.5868 89.7781 72.2025C90.6306 72.7946 91.5069 73.0906 92.4068 73.0906C93.1172 73.0906 93.7921 72.984 94.4316 72.7709C95.071 72.5341 95.663 72.1551 96.2077 71.6341C96.7524 71.1131 97.226 70.4145 97.6286 69.5383L98.339 69.8225C98.0785 70.604 97.6523 71.3618 97.0602 72.0959C96.4682 72.8301 95.7222 73.434 94.8223 73.9076C93.9224 74.3575 92.8804 74.5825 91.6963 74.5825C89.9912 74.5825 88.523 74.1918 87.2915 73.4103C86.0837 72.6288 85.1483 71.5513 84.4852 70.1777C83.8458 68.7805 83.5261 67.182 83.5261 65.3822C83.5261 63.2982 83.8577 61.5102 84.5208 60.0183C85.1838 58.5026 86.1193 57.3422 87.327 56.537C88.5348 55.7082 89.9439 55.2938 91.5542 55.2938ZM91.8384 45.5961C92.312 46.7802 93.0699 47.9287 94.1119 49.0418C95.1775 50.1311 96.3971 51.0192 97.7707 51.706L97.4865 52.2033C96.2077 51.7533 94.9644 51.2087 93.7566 50.5692C92.5489 49.9298 91.5661 49.2904 90.8083 48.651C90.2162 49.2904 89.4347 49.9298 88.4638 50.5692C87.5165 51.2087 86.5455 51.7533 85.5509 52.2033L85.2667 51.706C86.6403 51.0192 87.848 50.1311 88.89 49.0418C89.9557 47.9287 90.7254 46.7802 91.199 45.5961L91.8384 45.5961Z" fill="#2F2F2F"/>
<path d="M127.639 76.3436C129.723 76.3436 131.345 76.983 132.506 78.2618C133.69 79.5169 134.282 81.4825 134.282 84.1585L121.742 84.1585L121.707 83.4836L130.872 83.4836C130.919 82.3232 130.824 81.2575 130.588 80.2866C130.351 79.2919 129.972 78.4986 129.451 77.9066C128.954 77.3145 128.302 77.0185 127.497 77.0185C126.408 77.0185 125.437 77.5632 124.584 78.6525C123.755 79.7419 123.258 81.4707 123.092 83.8388L123.199 83.9809C123.151 84.3361 123.116 84.7269 123.092 85.1532C123.069 85.5794 123.057 86.0057 123.057 86.432C123.057 88.0423 123.317 89.4277 123.838 90.5881C124.359 91.7485 125.034 92.6366 125.863 93.2523C126.716 93.8444 127.592 94.1404 128.492 94.1404C129.202 94.1404 129.877 94.0338 130.517 93.8207C131.156 93.5839 131.748 93.2049 132.293 92.6839C132.837 92.163 133.311 91.4643 133.714 90.5881L134.424 90.8723C134.164 91.6538 133.737 92.4116 133.145 93.1457C132.553 93.8799 131.807 94.4838 130.907 94.9574C130.007 95.4073 128.965 95.6323 127.781 95.6323C126.076 95.6323 124.608 95.2416 123.376 94.4601C122.169 93.6786 121.233 92.6011 120.57 91.2275C119.931 89.8303 119.611 88.2318 119.611 86.432C119.611 84.348 119.943 82.56 120.606 81.0681C121.269 79.5524 122.204 78.392 123.412 77.5868C124.62 76.758 126.029 76.3436 127.639 76.3436ZM127.923 66.6459C128.397 67.83 129.155 68.9785 130.197 70.0916C131.262 71.1809 132.482 72.069 133.856 72.7558L133.571 73.2531C132.293 72.8031 131.049 72.2585 129.842 71.619C128.634 70.9796 127.651 70.3402 126.893 69.7008C126.301 70.3402 125.52 70.9796 124.549 71.619C123.601 72.2585 122.63 72.8031 121.636 73.2531L121.352 72.7558C122.725 72.069 123.933 71.1809 124.975 70.0916C126.041 68.9785 126.81 67.83 127.284 66.6459L127.923 66.6459ZM131.085 57.5876C131.369 57.8244 131.523 58.1323 131.547 58.5112C131.594 58.8901 131.44 59.3164 131.085 59.79C130.73 60.24 130.292 60.6899 129.771 61.1399C129.25 61.5898 128.634 62.1345 127.923 62.7739C127.237 63.3896 126.42 64.1948 125.472 65.1895L125.082 64.8698C125.816 63.7094 126.396 62.7147 126.822 61.8859C127.272 61.057 127.651 60.3347 127.959 59.719C128.267 59.1033 128.598 58.5704 128.954 58.1205C129.309 57.6468 129.676 57.3863 130.055 57.339C130.457 57.2916 130.801 57.3745 131.085 57.5876Z" fill="#2F2F2F"/>
<path d="M168.699 90.3768C170.783 90.3768 172.405 91.0162 173.566 92.295C174.75 93.5501 175.342 95.5157 175.342 98.1917L162.803 98.1917L162.767 97.5168L171.932 97.5168C171.979 96.3564 171.884 95.2907 171.648 94.3198C171.411 93.3251 171.032 92.5318 170.511 91.9398C170.014 91.3477 169.362 91.0517 168.557 91.0517C167.468 91.0517 166.497 91.5964 165.644 92.6857C164.815 93.7751 164.318 95.5039 164.152 97.872L164.259 98.0141C164.212 98.3693 164.176 98.7601 164.152 99.1864C164.129 99.6126 164.117 100.039 164.117 100.465C164.117 102.076 164.377 103.461 164.898 104.621C165.419 105.782 166.094 106.67 166.923 107.286C167.776 107.878 168.652 108.174 169.552 108.174C170.262 108.174 170.937 108.067 171.577 107.854C172.216 107.617 172.808 107.238 173.353 106.717C173.897 106.196 174.371 105.498 174.774 104.621L175.484 104.906C175.224 105.687 174.797 106.445 174.205 107.179C173.613 107.913 172.867 108.517 171.967 108.991C171.067 109.441 170.025 109.666 168.841 109.666C167.136 109.666 165.668 109.275 164.437 108.493C163.229 107.712 162.293 106.634 161.63 105.261C160.991 103.864 160.671 102.265 160.671 100.465C160.671 98.3812 161.003 96.5932 161.666 95.1013C162.329 93.5856 163.264 92.4252 164.472 91.6201C165.68 90.7912 167.089 90.3768 168.699 90.3768ZM168.983 80.6791C169.457 81.8632 170.215 83.0117 171.257 84.1248C172.323 85.2141 173.542 86.1022 174.916 86.789L174.632 87.2863C173.353 86.8363 172.109 86.2917 170.902 85.6523C169.694 85.0128 168.711 84.3734 167.953 83.734C167.361 84.3734 166.58 85.0128 165.609 85.6523C164.662 86.2917 163.691 86.8363 162.696 87.2863L162.412 86.789C163.785 86.1022 164.993 85.2141 166.035 84.1248C167.101 83.0117 167.87 81.8632 168.344 80.6791L168.983 80.6791ZM163.975 71.6208C164.259 71.4077 164.59 71.3248 164.969 71.3722C165.372 71.4195 165.751 71.68 166.106 72.1537C166.461 72.6036 166.793 73.1365 167.101 73.7522C167.409 74.3679 167.776 75.0902 168.202 75.9191C168.652 76.7479 169.244 77.7426 169.978 78.903L169.587 79.2227C168.664 78.228 167.847 77.4229 167.136 76.8071C166.426 76.1677 165.81 75.623 165.289 75.1731C164.792 74.7231 164.354 74.2732 163.975 73.8232C163.62 73.3496 163.454 72.9233 163.477 72.5444C163.525 72.1655 163.691 71.8576 163.975 71.6208Z" fill="#2F2F2F"/>
<path d="M212.84 94.3863C214.924 94.3863 216.547 95.0257 217.707 96.3045C218.891 97.5596 219.483 99.5252 219.483 102.201L206.944 102.201L206.908 101.526L216.073 101.526C216.12 100.366 216.026 99.3002 215.789 98.3293C215.552 97.3347 215.173 96.5413 214.652 95.9493C214.155 95.3572 213.503 95.0612 212.698 95.0612C211.609 95.0612 210.638 95.6059 209.785 96.6952C208.957 97.7846 208.459 99.5134 208.293 101.882L208.4 102.024C208.353 102.379 208.317 102.77 208.293 103.196C208.27 103.622 208.258 104.048 208.258 104.475C208.258 106.085 208.518 107.47 209.039 108.631C209.56 109.791 210.235 110.679 211.064 111.295C211.917 111.887 212.793 112.183 213.693 112.183C214.403 112.183 215.078 112.077 215.718 111.863C216.357 111.627 216.949 111.248 217.494 110.727C218.038 110.206 218.512 109.507 218.915 108.631L219.625 108.915C219.365 109.697 218.938 110.454 218.346 111.188C217.754 111.923 217.008 112.526 216.108 113C215.209 113.45 214.167 113.675 212.982 113.675C211.277 113.675 209.809 113.284 208.578 112.503C207.37 111.721 206.434 110.644 205.771 109.27C205.132 107.873 204.812 106.275 204.812 104.475C204.812 102.391 205.144 100.603 205.807 99.1108C206.47 97.5952 207.405 96.4348 208.613 95.6296C209.821 94.8007 211.23 94.3863 212.84 94.3863ZM213.125 84.6886C213.598 85.8727 214.356 87.0213 215.398 88.1343C216.464 89.2237 217.683 90.1117 219.057 90.7985L218.773 91.2958C217.494 90.8459 216.251 90.3012 215.043 89.6618C213.835 89.0224 212.852 88.383 212.094 87.7436C211.502 88.383 210.721 89.0224 209.75 89.6618C208.803 90.3012 207.832 90.8459 206.837 91.2958L206.553 90.7985C207.926 90.1117 209.134 89.2237 210.176 88.1343C211.242 87.0213 212.011 85.8727 212.485 84.6886L213.125 84.6886ZM209.856 77.2289C210.496 77.2289 211.041 77.3473 211.49 77.5841C211.94 77.8209 212.343 78.0932 212.698 78.4011C213.077 78.709 213.456 78.9813 213.835 79.2181C214.238 79.4549 214.699 79.5734 215.22 79.5734C215.718 79.5734 216.191 79.4313 216.641 79.1471C217.115 78.8392 217.553 78.3537 217.956 77.6907L218.453 77.9393C218.074 79.2418 217.506 80.1772 216.748 80.7456C215.99 81.314 215.161 81.5981 214.261 81.5981C213.622 81.5981 213.065 81.4797 212.592 81.2429C212.142 81.0061 211.727 80.7338 211.348 80.4259C210.993 80.0944 210.614 79.8102 210.212 79.5734C209.833 79.3365 209.383 79.2181 208.862 79.2181C208.365 79.2181 207.879 79.3721 207.405 79.6799C206.955 79.9641 206.529 80.4496 206.127 81.1364L205.629 80.8877C206.008 79.5615 206.577 78.6261 207.334 78.0814C208.116 77.513 208.957 77.2289 209.856 77.2289Z" fill="#2F2F2F"/>
</svg>
