<svg width="395" height="128" viewBox="0 0 395 128" fill="none" xmlns="http://www.w3.org/2000/svg">
<path d="M160.856 115.011C86.1862 97.4734 62.0284 104.695 37.1392 115.011C33.4783 116.529 21.6594 121.909 17.3731 127C24.9865 89.5475 10.2966 62.1366 2 53.1127C32.4535 -6.31021 92.2867 -1.90852 118.397 7.72019C149.143 21.4756 225.13 42.5901 283.109 17.0052C341.087 -8.57964 366.807 13.2225 372.419 27.3217C368.271 34.5432 363.049 52.2876 375.348 65.4927C390.721 81.999 393.561 94.3792 392.917 104.695C389.783 78.526 346.347 78.9245 317.515 97.4736C283.841 119.138 235.525 132.549 160.856 115.011Z" fill="#D3CDC4" stroke="#1B1B1B" stroke-width="3"/>
<path d="M90.5263 74.5154C89.5566 74.4643 88.7265 74.2426 88.0357 73.8505C87.3462 73.4347 86.8297 72.8858 86.4862 72.2037C86.1664 71.5228 86.0295 70.7449 86.0756 69.8699C86.1305 68.8293 86.4118 67.9904 86.9197 67.3532C87.4513 66.7172 88.106 66.2181 88.884 65.856C89.6619 65.4938 90.4716 65.2045 91.313 64.988C92.1793 64.7491 92.9971 64.5313 93.7663 64.3347C94.5368 64.1145 95.1673 63.8513 95.6577 63.5451C96.1718 63.2402 96.4432 62.8158 96.4718 62.2719L96.5878 60.0725C96.6401 59.0793 96.5263 58.3144 96.2463 57.7779C95.9899 57.2427 95.6178 56.8792 95.1299 56.6875C94.6432 56.4721 94.0925 56.3482 93.4776 56.3158C92.8864 56.2847 92.2435 56.3338 91.5489 56.4632C90.878 56.5938 90.3279 56.9087 89.8984 57.4078C90.3428 57.526 90.7205 57.7831 91.0316 58.1789C91.3428 58.5748 91.4828 59.0683 91.4516 59.6595C91.4204 60.2507 91.2063 60.7137 90.8092 61.0485C90.4134 61.3597 89.9199 61.4997 89.3287 61.4685C88.6428 61.4323 88.1456 61.1927 87.837 60.7496C87.5532 60.284 87.4257 59.7793 87.4543 59.2354C87.4867 58.6205 87.6666 58.132 87.994 57.7698C88.3214 57.4076 88.7303 57.0735 89.2207 56.7673C89.7846 56.4176 90.4991 56.1351 91.3642 55.9199C92.2541 55.6822 93.243 55.592 94.3309 55.6494C95.3005 55.7005 96.122 55.8624 96.7953 56.135C97.4699 56.384 98.0207 56.7332 98.4475 57.1825C99.0325 57.7825 99.3978 58.5013 99.5433 59.339C99.6901 60.1531 99.7336 61.1277 99.6738 62.2628L99.154 72.1244C99.1228 72.7156 99.1831 73.1457 99.335 73.4145C99.5104 73.6846 99.7874 73.8297 100.166 73.8496C100.426 73.8633 100.677 73.8173 100.92 73.7115C101.163 73.6057 101.457 73.4315 101.801 73.1888L102.16 73.8124C101.643 74.1646 101.153 74.459 100.69 74.6954C100.229 74.9082 99.6193 74.9947 98.8625 74.9548C98.1767 74.9186 97.6153 74.7705 97.1785 74.5103C96.7416 74.2501 96.4168 73.8891 96.204 73.4273C96.0161 72.9431 95.9408 72.3463 95.9782 71.6368C95.2836 72.6674 94.4732 73.4191 93.5472 73.892C92.6447 74.3662 91.6378 74.574 90.5263 74.5154ZM91.8781 73.1638C92.6585 73.2049 93.3916 73.0182 94.0775 72.6038C94.787 72.1906 95.4374 71.5491 96.0287 70.6791L96.3952 63.7263C96.0902 64.1134 95.6583 64.4345 95.0994 64.6896C94.5417 64.921 93.9362 65.1618 93.2827 65.412C92.6305 65.6385 91.9988 65.9253 91.3876 66.2725C90.8013 66.5973 90.3034 67.0454 89.8939 67.6167C89.4843 68.1879 89.2546 68.9466 89.2048 69.8925C89.1549 70.8385 89.3633 71.6083 89.83 72.2021C90.3204 72.7971 91.0031 73.1176 91.8781 73.1638ZM98.5157 45.7675C98.787 46.019 98.9245 46.3345 98.9282 46.7141C98.9556 47.095 98.7794 47.5126 98.3997 47.9669C98.0213 48.3975 97.5601 48.8238 97.0162 49.2457C96.4722 49.6676 95.8287 50.1791 95.0855 50.7802C94.3673 51.359 93.509 52.12 92.5107 53.0634L92.1374 52.7236C92.9315 51.6034 93.5633 50.6407 94.0326 49.8354C94.5256 49.0314 94.942 48.3301 95.2818 47.7314C95.6217 47.1327 95.9808 46.6181 96.3592 46.1874C96.7389 45.7332 97.1191 45.4923 97.5 45.465C97.9045 45.4389 98.2431 45.5397 98.5157 45.7675Z" fill="#2F2F2F"/>
<path d="M140.526 82.5154C139.557 82.4643 138.726 82.2426 138.036 81.8505C137.346 81.4347 136.83 80.8858 136.486 80.2037C136.166 79.5228 136.03 78.7449 136.076 77.8699C136.13 76.8293 136.412 75.9904 136.92 75.3532C137.451 74.7172 138.106 74.2181 138.884 73.856C139.662 73.4938 140.472 73.2045 141.313 72.988C142.179 72.7491 142.997 72.5313 143.766 72.3347C144.537 72.1145 145.167 71.8513 145.658 71.5451C146.172 71.2402 146.443 70.8158 146.472 70.2719L146.588 68.0725C146.64 67.0793 146.526 66.3144 146.246 65.7779C145.99 65.2427 145.618 64.8792 145.13 64.6875C144.643 64.4721 144.092 64.3482 143.478 64.3158C142.886 64.2847 142.243 64.3338 141.549 64.4632C140.878 64.5938 140.328 64.9087 139.898 65.4078C140.343 65.526 140.721 65.7831 141.032 66.1789C141.343 66.5748 141.483 67.0683 141.452 67.6595C141.42 68.2507 141.206 68.7137 140.809 69.0485C140.413 69.3597 139.92 69.4997 139.329 69.4685C138.643 69.4323 138.146 69.1927 137.837 68.7496C137.553 68.284 137.426 67.7793 137.454 67.2354C137.487 66.6205 137.667 66.132 137.994 65.7698C138.321 65.4076 138.73 65.0735 139.221 64.7673C139.785 64.4176 140.499 64.1351 141.364 63.9199C142.254 63.6822 143.243 63.592 144.331 63.6494C145.3 63.7005 146.122 63.8624 146.795 64.135C147.47 64.384 148.021 64.7332 148.448 65.1825C149.033 65.7825 149.398 66.5013 149.543 67.339C149.69 68.1531 149.734 69.1277 149.674 70.2628L149.154 80.1244C149.123 80.7156 149.183 81.1457 149.335 81.4145C149.51 81.6846 149.787 81.8297 150.166 81.8496C150.426 81.8633 150.677 81.8173 150.92 81.7115C151.163 81.6057 151.457 81.4315 151.801 81.1888L152.16 81.8124C151.643 82.1646 151.153 82.459 150.69 82.6954C150.229 82.9082 149.619 82.9947 148.862 82.9548C148.177 82.9186 147.615 82.7705 147.178 82.5103C146.742 82.2501 146.417 81.8891 146.204 81.4273C146.016 80.9431 145.941 80.3463 145.978 79.6368C145.284 80.6674 144.473 81.4191 143.547 81.892C142.645 82.3662 141.638 82.574 140.526 82.5154ZM141.878 81.1638C142.659 81.2049 143.392 81.0182 144.077 80.6038C144.787 80.1906 145.437 79.5491 146.029 78.6791L146.395 71.7263C146.09 72.1134 145.658 72.4345 145.099 72.6896C144.542 72.921 143.936 73.1618 143.283 73.412C142.63 73.6385 141.999 73.9253 141.388 74.2725C140.801 74.5973 140.303 75.0454 139.894 75.6167C139.484 76.1879 139.255 76.9466 139.205 77.8925C139.155 78.8385 139.363 79.6083 139.83 80.2021C140.32 80.7971 141.003 81.1176 141.878 81.1638ZM140.357 53.3375C140.652 53.1396 140.987 53.0743 141.363 53.1415C141.763 53.21 142.127 53.4901 142.457 53.9818C142.788 54.4498 143.091 54.9993 143.366 55.6304C143.641 56.2615 143.97 57.0021 144.352 57.8523C144.758 58.7037 145.296 59.7281 145.968 60.9255L145.561 61.2242C144.691 60.1823 143.918 59.3353 143.241 58.683C142.565 58.0071 141.979 57.4307 141.482 56.954C141.009 56.4785 140.596 56.0061 140.241 55.5368C139.911 55.0451 139.768 54.6107 139.812 54.2336C139.879 53.8577 140.061 53.559 140.357 53.3375Z" fill="#2F2F2F"/>
<path d="M187.074 85.2487C186.103 85.2487 185.263 85.071 184.552 84.7158C183.842 84.3369 183.297 83.8159 182.918 83.1528C182.563 82.4897 182.385 81.7201 182.385 80.8439C182.385 79.8019 182.622 78.9493 183.096 78.2862C183.593 77.6231 184.221 77.0903 184.979 76.6877C185.736 76.2851 186.53 75.9536 187.359 75.6931C188.211 75.4089 189.016 75.1484 189.774 74.9116C190.532 74.6511 191.148 74.3551 191.621 74.0235C192.119 73.692 192.367 73.2539 192.367 72.7092L192.367 70.5068C192.367 69.5121 192.213 68.7543 191.905 68.2333C191.621 67.7123 191.231 67.369 190.733 67.2032C190.236 67.0137 189.679 66.919 189.064 66.919C188.472 66.919 187.832 67.0019 187.145 67.1677C186.482 67.3334 185.949 67.6768 185.547 68.1978C185.997 68.2925 186.388 68.5294 186.719 68.9083C187.051 69.2872 187.216 69.7726 187.216 70.3647C187.216 70.9567 187.027 71.4304 186.648 71.7856C186.269 72.1171 185.784 72.2829 185.192 72.2829C184.505 72.2829 183.996 72.0698 183.664 71.6435C183.356 71.1936 183.202 70.6962 183.202 70.1516C183.202 69.5358 183.356 69.0385 183.664 68.6596C183.972 68.2807 184.363 67.9255 184.836 67.5939C185.381 67.215 186.08 66.8953 186.932 66.6348C187.808 66.3506 188.791 66.2085 189.881 66.2085C190.852 66.2085 191.68 66.327 192.367 66.5638C193.054 66.7769 193.622 67.0966 194.072 67.5229C194.688 68.0912 195.091 68.7899 195.28 69.6187C195.47 70.4239 195.564 71.3948 195.564 72.5316L195.564 82.4068C195.564 82.9989 195.647 83.4252 195.813 83.6857C196.002 83.9462 196.287 84.0764 196.665 84.0764C196.926 84.0764 197.175 84.0172 197.411 83.8988C197.648 83.7804 197.932 83.5909 198.264 83.3304L198.655 83.9343C198.157 84.3132 197.684 84.6329 197.234 84.8934C196.784 85.1302 196.18 85.2487 195.422 85.2487C194.735 85.2487 194.167 85.1302 193.717 84.8934C193.267 84.6566 192.924 84.3132 192.687 83.8633C192.474 83.3896 192.367 82.7976 192.367 82.0871C191.728 83.1528 190.958 83.9462 190.058 84.4672C189.182 84.9882 188.187 85.2487 187.074 85.2487ZM188.353 83.8278C189.135 83.8278 189.857 83.6028 190.52 83.1528C191.207 82.7029 191.823 82.0279 192.367 81.128L192.367 74.1656C192.083 74.5682 191.669 74.9116 191.124 75.1958C190.579 75.4563 189.987 75.7286 189.348 76.0128C188.708 76.2733 188.093 76.593 187.501 76.9719C186.932 77.3271 186.459 77.8008 186.08 78.3928C185.701 78.9848 185.511 79.7545 185.511 80.7018C185.511 81.649 185.76 82.4069 186.257 82.9752C186.778 83.5436 187.477 83.8278 188.353 83.8278ZM195.458 57.0082L196.062 57.3279C195.73 58.1094 195.268 58.9027 194.676 59.7079C194.108 60.5131 193.409 61.188 192.58 61.7327C191.752 62.2537 190.792 62.5142 189.703 62.5142C188.614 62.5142 187.655 62.2537 186.826 61.7327C185.997 61.188 185.286 60.5131 184.694 59.7079C184.126 58.9027 183.676 58.1094 183.344 57.3279L183.948 57.0082C184.28 57.5292 184.694 58.062 185.192 58.6067C185.689 59.1277 186.305 59.5658 187.039 59.921C187.797 60.2526 188.685 60.4184 189.703 60.4184C190.721 60.4184 191.598 60.2526 192.332 59.921C193.09 59.5658 193.717 59.1277 194.214 58.6067C194.735 58.062 195.15 57.5292 195.458 57.0082ZM187.074 50.8273C187.714 50.8273 188.258 50.9457 188.708 51.1825C189.158 51.4193 189.561 51.6916 189.916 51.9995C190.295 52.3074 190.674 52.5797 191.053 52.8165C191.455 53.0533 191.917 53.1718 192.438 53.1718C192.936 53.1718 193.409 53.0297 193.859 52.7455C194.333 52.4376 194.771 51.9521 195.174 51.2891L195.671 51.5377C195.292 52.8402 194.724 53.7756 193.966 54.344C193.208 54.9124 192.379 55.1965 191.479 55.1965C190.84 55.1965 190.283 55.0781 189.81 54.8413C189.36 54.6045 188.945 54.3322 188.566 54.0243C188.211 53.6928 187.832 53.4086 187.43 53.1718C187.051 52.9349 186.601 52.8165 186.08 52.8165C185.582 52.8165 185.097 52.9705 184.623 53.2783C184.173 53.5625 183.747 54.048 183.344 54.7347L182.847 54.4861C183.226 53.1599 183.794 52.2245 184.552 51.6798C185.334 51.1114 186.174 50.8273 187.074 50.8273Z" fill="#2F2F2F"/>
<path d="M231.228 83.2487C230.257 83.2487 229.417 83.071 228.706 82.7158C227.996 82.3369 227.451 81.8159 227.072 81.1528C226.717 80.4897 226.539 79.7201 226.539 78.8439C226.539 77.8019 226.776 76.9493 227.25 76.2862C227.747 75.6231 228.375 75.0903 229.133 74.6877C229.89 74.2851 230.684 73.9536 231.513 73.6931C232.365 73.4089 233.17 73.1484 233.928 72.9116C234.686 72.6511 235.302 72.3551 235.775 72.0235C236.273 71.692 236.521 71.2539 236.521 70.7092L236.521 68.5068C236.521 67.5121 236.367 66.7543 236.059 66.2333C235.775 65.7123 235.385 65.369 234.887 65.2032C234.39 65.0137 233.833 64.919 233.218 64.919C232.626 64.919 231.986 65.0019 231.299 65.1677C230.636 65.3334 230.104 65.6768 229.701 66.1978C230.151 66.2925 230.542 66.5294 230.873 66.9083C231.205 67.2872 231.37 67.7726 231.37 68.3647C231.37 68.9567 231.181 69.4304 230.802 69.7856C230.423 70.1171 229.938 70.2829 229.346 70.2829C228.659 70.2829 228.15 70.0698 227.818 69.6435C227.51 69.1936 227.356 68.6962 227.356 68.1516C227.356 67.5358 227.51 67.0385 227.818 66.6596C228.126 66.2807 228.517 65.9255 228.99 65.5939C229.535 65.215 230.234 64.8953 231.086 64.6348C231.963 64.3506 232.945 64.2085 234.035 64.2085C235.006 64.2085 235.835 64.327 236.521 64.5638C237.208 64.7769 237.776 65.0966 238.226 65.5229C238.842 66.0912 239.245 66.7899 239.434 67.6187C239.624 68.4239 239.718 69.3948 239.718 70.5316L239.718 80.4068C239.718 80.9989 239.801 81.4252 239.967 81.6857C240.156 81.9462 240.441 82.0764 240.82 82.0764C241.08 82.0764 241.329 82.0172 241.565 81.8988C241.802 81.7804 242.086 81.5909 242.418 81.3304L242.809 81.9343C242.311 82.3132 241.838 82.6329 241.388 82.8934C240.938 83.1302 240.334 83.2487 239.576 83.2487C238.889 83.2487 238.321 83.1302 237.871 82.8934C237.421 82.6566 237.078 82.3132 236.841 81.8633C236.628 81.3896 236.521 80.7976 236.521 80.0871C235.882 81.1528 235.112 81.9462 234.212 82.4672C233.336 82.9882 232.341 83.2487 231.228 83.2487ZM232.507 81.8278C233.289 81.8278 234.011 81.6028 234.674 81.1528C235.361 80.7029 235.977 80.0279 236.521 79.128L236.521 72.1656C236.237 72.5682 235.823 72.9116 235.278 73.1958C234.733 73.4563 234.141 73.7286 233.502 74.0128C232.862 74.2733 232.247 74.593 231.655 74.9719C231.086 75.3271 230.613 75.8008 230.234 76.3928C229.855 76.9848 229.665 77.7545 229.665 78.7018C229.665 79.649 229.914 80.4069 230.411 80.9752C230.932 81.5436 231.631 81.8278 232.507 81.8278ZM239.612 55.0082L240.216 55.3279C239.884 56.1094 239.422 56.9027 238.83 57.7079C238.262 58.5131 237.563 59.188 236.734 59.7327C235.906 60.2537 234.946 60.5142 233.857 60.5142C232.768 60.5142 231.809 60.2537 230.98 59.7327C230.151 59.188 229.44 58.5131 228.848 57.7079C228.28 56.9027 227.83 56.1094 227.499 55.3279L228.102 55.0082C228.434 55.5292 228.848 56.062 229.346 56.6067C229.843 57.1277 230.459 57.5658 231.193 57.921C231.951 58.2526 232.839 58.4184 233.857 58.4184C234.875 58.4184 235.752 58.2526 236.486 57.921C237.244 57.5658 237.871 57.1277 238.368 56.6067C238.889 56.062 239.304 55.5292 239.612 55.0082ZM233.502 55.0792L233.502 53.1255C234.473 52.7466 235.16 52.3085 235.562 51.8112C235.988 51.2902 236.202 50.6863 236.202 49.9995C236.202 49.3127 236.012 48.7562 235.633 48.3299C235.254 47.9037 234.71 47.6905 233.999 47.6905C233.762 47.6905 233.478 47.7261 233.147 47.7971C232.815 47.8682 232.555 48.0221 232.365 48.2589C232.697 48.3299 232.969 48.4957 233.182 48.7562C233.395 48.993 233.502 49.3127 233.502 49.7153C233.502 50.2126 233.348 50.6034 233.04 50.8876C232.732 51.1481 232.353 51.2783 231.903 51.2783C231.453 51.2783 231.086 51.1481 230.802 50.8876C230.518 50.6034 230.376 50.2363 230.376 49.7864C230.376 49.3364 230.506 48.9338 230.767 48.5786C231.051 48.2234 231.382 47.9274 231.761 47.6905C232.022 47.5248 232.401 47.3708 232.898 47.2287C233.419 47.063 234.011 46.9801 234.674 46.9801C235.787 46.9801 236.723 47.2287 237.48 47.7261C238.262 48.2234 238.653 48.922 238.653 49.8219C238.653 50.7455 238.215 51.5151 237.338 52.1309C236.486 52.7229 235.444 53.161 234.212 53.4452L234.212 55.0792L233.502 55.0792Z" fill="#2F2F2F"/>
<path d="M270.228 70.2487C269.257 70.2487 268.417 70.071 267.706 69.7158C266.996 69.3369 266.451 68.8159 266.072 68.1528C265.717 67.4897 265.539 66.7201 265.539 65.8439C265.539 64.8019 265.776 63.9493 266.25 63.2862C266.747 62.6231 267.375 62.0903 268.133 61.6877C268.89 61.2851 269.684 60.9536 270.513 60.6931C271.365 60.4089 272.17 60.1484 272.928 59.9116C273.686 59.6511 274.302 59.3551 274.775 59.0235C275.273 58.692 275.521 58.2539 275.521 57.7092L275.521 55.5068C275.521 54.5121 275.367 53.7543 275.059 53.2333C274.775 52.7123 274.385 52.369 273.887 52.2032C273.39 52.0137 272.833 51.919 272.218 51.919C271.626 51.919 270.986 52.0019 270.299 52.1677C269.636 52.3334 269.104 52.6768 268.701 53.1978C269.151 53.2925 269.542 53.5294 269.873 53.9083C270.205 54.2872 270.37 54.7726 270.37 55.3647C270.37 55.9567 270.181 56.4304 269.802 56.7856C269.423 57.1171 268.938 57.2829 268.346 57.2829C267.659 57.2829 267.15 57.0698 266.818 56.6435C266.51 56.1936 266.356 55.6962 266.356 55.1516C266.356 54.5358 266.51 54.0385 266.818 53.6596C267.126 53.2807 267.517 52.9255 267.99 52.5939C268.535 52.215 269.234 51.8953 270.086 51.6348C270.963 51.3506 271.945 51.2085 273.035 51.2085C274.006 51.2085 274.835 51.327 275.521 51.5638C276.208 51.7769 276.776 52.0966 277.226 52.5229C277.842 53.0912 278.245 53.7899 278.434 54.6187C278.624 55.4239 278.718 56.3948 278.718 57.5316L278.718 67.4068C278.718 67.9989 278.801 68.4252 278.967 68.6857C279.156 68.9462 279.441 69.0764 279.82 69.0764C280.08 69.0764 280.329 69.0172 280.565 68.8988C280.802 68.7804 281.086 68.5909 281.418 68.3304L281.809 68.9343C281.311 69.3132 280.838 69.6329 280.388 69.8934C279.938 70.1302 279.334 70.2487 278.576 70.2487C277.889 70.2487 277.321 70.1302 276.871 69.8934C276.421 69.6566 276.078 69.3132 275.841 68.8633C275.628 68.3896 275.521 67.7976 275.521 67.0871C274.882 68.1528 274.112 68.9462 273.212 69.4672C272.336 69.9882 271.341 70.2487 270.228 70.2487ZM271.507 68.8278C272.289 68.8278 273.011 68.6028 273.674 68.1528C274.361 67.7029 274.977 67.0279 275.521 66.128L275.521 59.1656C275.237 59.5682 274.823 59.9116 274.278 60.1958C273.733 60.4563 273.141 60.7286 272.502 61.0128C271.862 61.2733 271.247 61.593 270.655 61.9719C270.086 62.3271 269.613 62.8008 269.234 63.3928C268.855 63.9848 268.665 64.7545 268.665 65.7018C268.665 66.649 268.914 67.4069 269.411 67.9752C269.932 68.5436 270.631 68.8278 271.507 68.8278ZM273.212 41.5109C273.686 42.695 274.444 43.8435 275.486 44.9566C276.551 46.0459 277.771 46.934 279.145 47.6208L278.86 48.1181C277.582 47.6681 276.338 47.1234 275.131 46.484C273.923 45.8446 272.94 45.2052 272.182 44.5658C271.59 45.2052 270.809 45.8446 269.838 46.484C268.89 47.1234 267.919 47.6681 266.925 48.1181L266.641 47.6208C268.014 46.934 269.222 46.0459 270.264 44.9566C271.33 43.8435 272.099 42.695 272.573 41.5109L273.212 41.5109Z" fill="#2F2F2F"/>
<path d="M308.074 70.2487C307.103 70.2487 306.263 70.071 305.552 69.7158C304.842 69.3369 304.297 68.8159 303.918 68.1528C303.563 67.4897 303.385 66.7201 303.385 65.8439C303.385 64.8019 303.622 63.9493 304.096 63.2862C304.593 62.6231 305.221 62.0903 305.979 61.6877C306.736 61.2851 307.53 60.9536 308.359 60.6931C309.211 60.4089 310.016 60.1484 310.774 59.9116C311.532 59.6511 312.148 59.3551 312.621 59.0235C313.119 58.692 313.367 58.2539 313.367 57.7092L313.367 55.5068C313.367 54.5121 313.213 53.7543 312.905 53.2333C312.621 52.7123 312.231 52.369 311.733 52.2032C311.236 52.0137 310.679 51.919 310.064 51.919C309.472 51.919 308.832 52.0019 308.145 52.1677C307.482 52.3334 306.949 52.6768 306.547 53.1978C306.997 53.2925 307.388 53.5294 307.719 53.9083C308.051 54.2872 308.216 54.7726 308.216 55.3647C308.216 55.9567 308.027 56.4304 307.648 56.7856C307.269 57.1171 306.784 57.2829 306.192 57.2829C305.505 57.2829 304.996 57.0698 304.664 56.6435C304.356 56.1936 304.202 55.6962 304.202 55.1516C304.202 54.5358 304.356 54.0385 304.664 53.6596C304.972 53.2807 305.363 52.9255 305.836 52.5939C306.381 52.215 307.08 51.8953 307.932 51.6348C308.808 51.3506 309.791 51.2085 310.881 51.2085C311.852 51.2085 312.68 51.327 313.367 51.5638C314.054 51.7769 314.622 52.0966 315.072 52.5229C315.688 53.0912 316.091 53.7899 316.28 54.6187C316.47 55.4239 316.564 56.3948 316.564 57.5316L316.564 67.4068C316.564 67.9989 316.647 68.4252 316.813 68.6857C317.002 68.9462 317.287 69.0764 317.665 69.0764C317.926 69.0764 318.175 69.0172 318.411 68.8988C318.648 68.7804 318.932 68.5909 319.264 68.3304L319.655 68.9343C319.157 69.3132 318.684 69.6329 318.234 69.8934C317.784 70.1302 317.18 70.2487 316.422 70.2487C315.735 70.2487 315.167 70.1302 314.717 69.8934C314.267 69.6566 313.924 69.3132 313.687 68.8633C313.474 68.3896 313.367 67.7976 313.367 67.0871C312.728 68.1528 311.958 68.9462 311.058 69.4672C310.182 69.9882 309.187 70.2487 308.074 70.2487ZM309.353 68.8278C310.135 68.8278 310.857 68.6028 311.52 68.1528C312.207 67.7029 312.823 67.0279 313.367 66.128L313.367 59.1656C313.083 59.5682 312.669 59.9116 312.124 60.1958C311.579 60.4563 310.987 60.7286 310.348 61.0128C309.708 61.2733 309.093 61.593 308.501 61.9719C307.932 62.3271 307.459 62.8008 307.08 63.3928C306.701 63.9848 306.511 64.7545 306.511 65.7018C306.511 66.649 306.76 67.4069 307.257 67.9752C307.778 68.5436 308.477 68.8278 309.353 68.8278ZM311.058 41.5109C311.532 42.695 312.29 43.8435 313.332 44.9566C314.397 46.0459 315.617 46.934 316.991 47.6208L316.706 48.1181C315.428 47.6681 314.184 47.1234 312.976 46.484C311.769 45.8446 310.786 45.2052 310.028 44.5658C309.436 45.2052 308.655 45.8446 307.684 46.484C306.736 47.1234 305.765 47.6681 304.771 48.1181L304.487 47.6208C305.86 46.934 307.068 46.0459 308.11 44.9566C309.176 43.8435 309.945 42.695 310.419 41.5109L311.058 41.5109ZM314.22 32.4526C314.504 32.6894 314.658 32.9973 314.682 33.3762C314.729 33.7551 314.575 34.1814 314.22 34.655C313.865 35.105 313.426 35.5549 312.905 36.0049C312.384 36.4548 311.769 36.9995 311.058 37.6389C310.371 38.2546 309.554 39.0598 308.607 40.0545L308.216 39.7347C308.951 38.5743 309.531 37.5797 309.957 36.7508C310.407 35.922 310.786 35.1997 311.094 34.584C311.402 33.9682 311.733 33.4354 312.088 32.9855C312.444 32.5118 312.811 32.2513 313.19 32.204C313.592 32.1566 313.936 32.2395 314.22 32.4526Z" fill="#2F2F2F"/>
</svg>
