<svg width="216" height="133" viewBox="0 0 216 133" fill="none" xmlns="http://www.w3.org/2000/svg">
<path d="M98.8344 97.7747C58.8129 102.593 48.197 110.525 37.7798 120.119C36.2475 121.53 31.388 126.323 30.1933 129.613C27.1772 109.73 14.9703 98.8367 9.24389 95.8756C13.526 61.0099 43.85 52.3789 58.4767 52.4217C76.1378 53.6664 117.456 50.3771 141.442 27.2623C165.428 4.14752 182.063 10.2767 187.383 16.2306C186.642 20.5486 187.274 30.2606 195.731 34.5651C206.303 39.9458 209.944 45.551 211.492 50.7652C205.213 38.3988 183.849 46.4405 172.975 60.8143C160.274 77.6023 138.856 92.9559 98.8344 97.7747Z" fill="#D3CDC4" stroke="#1B1B1B" stroke-width="3"/>
<path d="M152.554 42.4853C153.208 42.1033 153.89 41.8152 154.599 41.6207C155.308 41.4263 156.004 41.3495 156.686 41.3903C157.335 41.4226 157.902 41.5717 158.386 41.8375C158.858 42.0829 159.232 42.4409 159.506 42.9113C159.829 43.4636 159.926 43.9826 159.798 44.4684C159.658 44.9338 159.353 45.3038 158.883 45.5783C158.433 45.8409 157.956 45.9407 157.454 45.8777C156.971 45.8027 156.587 45.5198 156.3 45.0289C156.026 44.5585 155.928 44.1085 156.006 43.6789C156.105 43.2374 156.304 42.8743 156.604 42.5895C156.185 42.3407 155.638 42.2487 154.963 42.3136C154.308 42.3666 153.684 42.5661 153.091 42.9122C152.58 43.2106 152.14 43.6317 151.772 44.1755C151.404 44.7194 151.172 45.403 151.076 46.2263C150.969 47.0292 151.069 47.9992 151.376 49.1361C151.671 50.2526 152.242 51.537 153.09 52.9892C154.14 54.7892 155.18 56.1016 156.21 56.9265C157.24 57.7514 158.219 58.2081 159.148 58.2966C160.086 58.3528 160.953 58.1481 161.751 57.6826C162.283 57.3723 162.765 56.9537 163.198 56.4269C163.631 55.9001 163.961 55.2685 164.19 54.5321C164.406 53.7752 164.461 52.9066 164.356 51.9265L165.064 51.8011C165.241 52.575 165.292 53.4367 165.215 54.3862C165.127 55.3152 164.829 56.2153 164.323 57.0865C163.817 57.9576 163.012 58.7154 161.907 59.36C160.639 60.1 159.303 60.4411 157.898 60.3833C156.493 60.3256 155.132 59.8723 153.814 59.0236C152.505 58.1425 151.361 56.8633 150.382 55.1861C149.404 53.5088 148.841 51.8631 148.694 50.2488C148.556 48.6021 148.82 47.1046 149.486 45.7561C150.14 44.3872 151.163 43.2969 152.554 42.4853ZM150.261 32.1427C150.626 32.204 150.914 32.3923 151.126 32.7076C151.358 33.011 151.439 33.4568 151.371 34.0449C151.291 34.6125 151.14 35.222 150.916 35.8732C150.693 36.5244 150.436 37.3052 150.145 38.2155C149.862 39.0934 149.562 40.2006 149.245 41.5371L148.746 41.4579C148.796 40.0857 148.795 38.9342 148.746 38.0035C148.717 37.0608 148.68 36.246 148.636 35.559C148.591 34.872 148.609 34.2447 148.689 33.6771C148.757 33.089 148.943 32.679 149.246 32.4471C149.57 32.2033 149.908 32.1018 150.261 32.1427Z" fill="#2F2F2F"/>
<path d="M125.005 58.6806C125.721 58.4321 126.446 58.2808 127.179 58.2267C127.912 58.1726 128.609 58.2314 129.271 58.4029C129.902 58.5598 130.429 58.8154 130.853 59.1696C131.269 59.5015 131.566 59.9247 131.745 60.4392C131.955 61.0432 131.95 61.5713 131.731 62.0234C131.504 62.4531 131.133 62.7573 130.619 62.9359C130.127 63.1068 129.64 63.1129 129.159 62.9541C128.7 62.7876 128.377 62.4358 128.191 61.8989C128.012 61.3844 128.003 60.9239 128.162 60.5175C128.344 60.1033 128.61 59.7854 128.959 59.5639C128.596 59.2389 128.076 59.0431 127.402 58.9766C126.749 58.9024 126.098 58.9778 125.45 59.2031C124.89 59.3973 124.378 59.7257 123.912 60.1884C123.446 60.651 123.086 61.2771 122.834 62.0666C122.574 62.8338 122.485 63.8048 122.567 64.9796C122.641 66.132 122.954 67.5024 123.506 69.0908C124.189 71.0595 124.957 72.5479 125.808 73.5558C126.659 74.5638 127.532 75.2008 128.427 75.4668C129.336 75.7026 130.227 75.6691 131.099 75.3661C131.681 75.1642 132.235 74.8465 132.761 74.413C133.288 73.9796 133.734 73.4236 134.1 72.745C134.458 72.044 134.68 71.2024 134.765 70.2203L135.484 70.2338C135.509 71.0273 135.392 71.8826 135.134 72.7995C134.868 73.6941 134.403 74.5199 133.738 75.2771C133.074 76.0343 132.137 76.6227 130.929 77.0421C129.542 77.5237 128.165 77.6008 126.798 77.2732C125.431 76.9457 124.182 76.2385 123.053 75.1516C121.938 74.0346 121.062 72.5588 120.425 70.7244C119.788 68.8899 119.553 67.1665 119.721 65.5542C119.902 63.9118 120.45 62.4932 121.364 61.2985C122.27 60.0815 123.484 59.2088 125.005 58.6806ZM130.629 76.3943L130.665 79.3147C130.933 79.1466 131.227 78.9819 131.547 78.8207C131.867 78.6594 132.206 78.5166 132.564 78.3924C133.19 78.1749 133.729 78.1382 134.18 78.2824C134.653 78.4188 134.98 78.7443 135.158 79.2588C135.376 79.8852 135.334 80.4512 135.033 80.9567C134.763 81.4768 134.364 81.9162 133.836 82.2748C133.317 82.6557 132.789 82.9394 132.252 83.1258C131.625 83.3433 131.062 83.4888 130.561 83.5625C130.09 83.6507 129.683 83.7045 129.338 83.7237L129.263 83.0731C129.382 83.0566 129.558 83.0207 129.789 82.9654C130.043 82.9024 130.305 82.8242 130.573 82.731C131.02 82.5757 131.452 82.3756 131.869 82.1307C132.307 81.8781 132.645 81.5856 132.88 81.2531C133.146 80.9353 133.209 80.575 133.069 80.1723C132.851 79.5459 132.273 79.3958 131.333 79.722C131.154 79.7842 130.901 79.8847 130.573 80.0236C130.253 80.1848 129.985 80.3529 129.77 80.5279L129.723 76.7089L130.629 76.3943Z" fill="#2F2F2F"/>
<path d="M87.4943 69.5004C88.1508 69.1219 88.8341 68.8373 89.5442 68.6465C90.2543 68.4558 90.9502 68.3826 91.6319 68.4269C92.2812 68.4626 92.8472 68.6146 93.33 68.883C93.8009 69.1308 94.1724 69.4907 94.4445 69.9626C94.7639 70.5165 94.8584 71.036 94.7281 71.5212C94.586 71.9859 94.279 72.3542 93.8071 72.6263C93.3558 72.8865 92.8788 72.9839 92.3763 72.9182C91.8943 72.8408 91.5113 72.5559 91.2274 72.0635C90.9553 71.5917 90.8596 71.1411 90.9402 70.712C91.0413 70.271 91.2425 69.9089 91.544 69.6257C91.1259 69.3747 90.5792 69.2799 89.9038 69.3413C89.249 69.3908 88.6241 69.5871 88.0291 69.9302C87.5162 70.2259 87.0743 70.6447 86.7034 71.1866C86.3324 71.7285 86.0971 72.4109 85.9975 73.2338C85.8861 74.0361 85.9809 75.0066 86.282 76.1451C86.5712 77.2631 87.1358 78.5504 87.9757 80.0071C89.0166 81.8124 90.0498 83.1303 91.0752 83.9605C92.1007 84.7907 93.0777 85.2525 94.0063 85.3459C94.9435 85.4068 95.8122 85.2067 96.6123 84.7453C97.1457 84.4378 97.6302 84.0217 98.0659 83.4972C98.5015 82.9726 98.8354 82.3428 99.0675 81.6075C99.2879 80.8517 99.3476 79.9835 99.2469 79.0028L99.9558 78.8811C100.129 79.6559 100.175 80.5179 100.094 81.4669C100 82.3955 99.6983 83.2941 99.1876 84.1626C98.6769 85.0311 97.8677 85.7847 96.7598 86.4235C95.4878 87.1569 94.1497 87.4911 92.7454 87.426C91.341 87.361 89.9822 86.9006 88.6688 86.0451C87.3641 85.1572 86.2268 83.8721 85.2568 82.1898C84.2868 80.5075 83.7326 78.8588 83.5941 77.2438C83.4644 75.5964 83.7362 74.1003 84.4095 72.7553C85.071 71.3898 86.0993 70.3048 87.4943 69.5004ZM83.2453 62.2733C83.7787 61.9658 84.3527 61.8945 84.9672 62.0596C85.5818 62.2246 86.0428 62.5739 86.3504 63.1073C86.6579 63.6407 86.7292 64.2147 86.5642 64.8292C86.3991 65.4438 86.0499 65.9048 85.5165 66.2124C84.9831 66.5199 84.4091 66.5912 83.7945 66.4261C83.18 66.2611 82.7189 65.9119 82.4114 65.3784C82.1038 64.845 82.0326 64.2711 82.1976 63.6565C82.3626 63.042 82.7119 62.5809 83.2453 62.2733Z" fill="#2F2F2F"/>
<path d="M50.3546 74.8083C51.035 74.4747 51.7359 74.2366 52.4572 74.094C53.1785 73.9513 53.8778 73.925 54.5549 74.0151C55.2003 74.0942 55.7549 74.2839 56.2185 74.5841C56.6718 74.863 57.0183 75.247 57.2581 75.7361C57.5395 76.3102 57.599 76.8349 57.4364 77.3102C57.2634 77.7643 56.9323 78.1112 56.4433 78.351C55.9755 78.5803 55.4931 78.6454 54.9961 78.5462C54.5203 78.4366 54.1573 78.1266 53.9071 77.6163C53.6674 77.1272 53.6021 76.6713 53.7113 76.2485C53.8418 75.8153 54.0669 75.4675 54.3867 75.2052C53.9864 74.9267 53.4473 74.7954 52.7694 74.8113C52.1127 74.8168 51.476 74.9707 50.8593 75.273C50.3277 75.5336 49.8587 75.9218 49.4522 76.4376C49.0457 76.9534 48.7651 77.6184 48.6105 78.4327C48.4454 79.2258 48.4749 80.2004 48.6988 81.3566C48.9124 82.4915 49.3892 83.8138 50.1294 85.3235C51.0468 87.1947 51.9892 88.579 52.9565 89.4762C53.9239 90.3734 54.8677 90.8997 55.7879 91.0552C56.7189 91.179 57.5991 91.0376 58.4284 90.631C58.9813 90.36 59.4926 89.9774 59.9625 89.4833C60.4324 88.9892 60.8078 88.3831 61.0888 87.6651C61.3593 86.9259 61.4773 86.0636 61.4426 85.0784L62.1581 85.0045C62.2791 85.7892 62.267 86.6523 62.122 87.5938C61.9665 88.514 61.6048 89.3902 61.037 90.2225C60.4692 91.0547 59.6111 91.7523 58.4629 92.3153C57.1445 92.9616 55.787 93.2052 54.3902 93.046C52.9934 92.8868 51.6685 92.3363 50.4155 91.3945C49.1734 90.421 48.1249 89.0624 47.2701 87.3188C46.4152 85.5752 45.973 83.893 45.9433 82.2723C45.9244 80.62 46.2961 79.1454 47.0582 77.8487C47.8099 76.5307 48.9087 75.5172 50.3546 74.8083ZM50.6148 63.8803L51.0889 64.2018C50.1475 65.4018 49.4433 66.7361 48.9764 68.2046C48.5308 69.6627 48.356 71.0276 48.4519 72.2992L47.8778 72.5807C46.9313 71.726 45.7346 71.0335 44.2878 70.5033C42.8622 69.9625 41.3868 69.6968 39.8616 69.7061L39.8979 69.1344C41.2442 68.9755 42.6003 68.9173 43.9662 68.9597C45.3534 68.9918 46.5173 69.1333 47.458 69.3842C47.7294 68.539 48.1496 67.6209 48.7187 66.6298C49.2878 65.6387 49.9198 64.7222 50.6148 63.8803Z" fill="#2F2F2F"/>
</svg>
