<svg width="376" height="348" viewBox="0 0 376 348" fill="none" xmlns="http://www.w3.org/2000/svg">
<path d="M171.309 311.542C171.309 351.16 197.24 363.406 200.122 311.542C182.834 285.611 173.71 300.737 171.309 311.542Z" fill="#B4ACA3" stroke="black" stroke-width="3" stroke-linecap="round"/>
<path d="M54.0577 48.6642C39.1847 41.3766 41.9393 28.813 43.4077 28.813H333.36C337.562 31.8144 339.843 40.6984 315.352 52.2236C301.772 58.6141 298.276 64.5617 300.615 71.3556C305.789 86.3838 322.187 94.5728 332.305 106.83C373.428 156.646 447.68 298.112 185.716 313.343C-55.7017 299.058 -3.64875 170.808 35.3791 115.307C48.3761 96.8234 79.9023 83.9853 73.9569 62.1862C73.7613 61.4693 73.5102 60.7811 73.2103 60.1228C70.0202 53.1214 60.9668 52.0496 54.0577 48.6642Z" fill="#EBE9E3" stroke="black" stroke-width="3" stroke-linecap="round"/>
<path d="M316.056 280.095C335.875 329.575 322.541 374.108 283.63 297.767C274.626 273.027 305.49 259.572 316.056 280.095Z" fill="#EBE9E3" stroke="black" stroke-width="3" stroke-linecap="round"/>
<path d="M336.993 27.068C336.993 28.3333 336.29 29.7824 334.462 31.3999C332.641 33.0115 329.869 34.6359 326.157 36.2252C318.746 39.3985 307.929 42.2907 294.449 44.732C267.514 49.61 230.242 52.636 189.031 52.636C147.819 52.636 110.547 49.61 83.6122 44.732C70.1324 42.2907 59.3157 39.3985 51.9043 36.2252C48.1927 34.6359 45.42 33.0115 43.599 31.3999C41.7714 29.7824 41.0684 28.3333 41.0684 27.068C41.0684 25.8027 41.7714 24.3536 43.599 22.7361C45.42 21.1245 48.1927 19.5 51.9043 17.9108C59.3157 14.7374 70.1324 11.8452 83.6122 9.40402C110.547 4.52601 147.819 1.5 189.031 1.5C230.242 1.5 267.514 4.52601 294.449 9.40402C307.929 11.8452 318.746 14.7374 326.157 17.9108C329.869 19.5 332.641 21.1245 334.462 22.7361C336.29 24.3536 336.993 25.8027 336.993 27.068Z" fill="#EBE9E3" stroke="black" stroke-width="3"/>
<path d="M315.808 27.0683C315.808 27.2368 315.617 27.8822 313.947 28.8557C312.4 29.7572 310.022 30.6771 306.821 31.5798C300.441 33.3787 291.138 35.0161 279.559 36.3971C256.42 39.1568 224.413 40.8676 189.03 40.8676C153.647 40.8676 121.639 39.1568 98.5006 36.3971C86.9211 35.0161 77.6184 33.3787 71.2388 31.5798C68.0375 30.6771 65.6592 29.7572 64.1125 28.8557C62.4421 27.8822 62.251 27.2368 62.251 27.0683C62.251 26.8998 62.4421 26.2545 64.1125 25.2809C65.6592 24.3795 68.0375 23.4596 71.2388 22.5569C77.6184 20.758 86.9211 19.1206 98.5006 17.7395C121.639 14.9799 153.647 13.269 189.03 13.269C224.413 13.269 256.42 14.9799 279.559 17.7395C291.138 19.1206 300.441 20.758 306.821 22.5569C310.022 23.4596 312.4 24.3795 313.947 25.2809C315.617 26.2545 315.808 26.8998 315.808 27.0683Z" fill="#B4ACA3" stroke="black" stroke-width="3"/>
<path d="M56.5248 279.593C37.064 329.14 50.1566 373.733 88.3659 297.289C97.2068 272.515 65.0188 259.775 56.5248 279.593Z" fill="#EBE9E3" stroke="black" stroke-width="3" stroke-linecap="round"/>
<path d="M302.419 183.997C302.419 203.513 289.979 221.396 269.416 234.475C248.871 247.542 220.397 255.673 188.868 255.673C157.338 255.673 128.864 247.542 108.319 234.475C87.7564 221.396 75.3164 203.513 75.3164 183.997C75.3164 164.481 87.7564 146.598 108.319 133.52C128.864 120.453 157.338 112.321 188.868 112.321C220.397 112.321 248.871 120.453 269.416 133.52C289.979 146.598 302.419 164.481 302.419 183.997Z" stroke="black" stroke-width="3"/>
</svg>
