<svg width="266" height="173" viewBox="0 0 266 173" fill="none" xmlns="http://www.w3.org/2000/svg">
<path d="M98.0455 107.516C57.7751 78.2952 41.51 76.5673 24.0307 76.5097C21.4598 76.5013 13.0386 76.7626 9.19674 78.7381C23.1508 58.209 21.2415 38.1061 18.5427 30.6207C51.6748 2.65375 86.366 20.2861 99.5701 32.5982C114.512 48.5444 154.674 80.2377 195.781 79.4409C236.888 78.6441 246.804 98.1512 246.623 108.004C242.329 111.291 234.751 120.613 238.795 131.606C243.85 145.347 242.442 153.476 239.468 159.495C244.161 143.032 218.074 132.384 196.17 136.271C170.587 140.81 138.316 136.736 98.0455 107.516Z" fill="#D3CDC4" stroke="#1B1B1B" stroke-width="3"/>
<path d="M79.3965 49.5145L79.1102 50.2034C78.2136 49.8308 77.5003 49.7267 76.9704 49.8912C76.4623 50.0647 76.0174 50.6107 75.6357 51.5292L71.1646 62.2886C70.7829 63.2071 70.7098 63.9076 70.9452 64.3901C71.2026 64.8817 71.7795 65.3138 72.6762 65.6864L72.3899 66.3753C72.0272 66.1989 71.4677 65.9408 70.7114 65.6008C69.9642 65.239 69.2297 64.9082 68.5081 64.6083C67.7864 64.3084 67.0666 64.0349 66.3486 63.7878C65.6616 63.528 65.1386 63.3363 64.7796 63.2128L65.0659 62.5239C65.8531 62.8511 66.4789 62.9188 66.9433 62.7271C67.4076 62.5353 67.8306 61.9803 68.2123 61.0618L72.6835 50.3024C73.0652 49.3839 73.1601 48.6925 72.9684 48.2281C72.7767 47.7638 72.2872 47.368 71.5 47.0409L71.7862 46.352C72.127 46.5193 72.6273 46.7657 73.2871 47.0911C73.9778 47.4038 74.684 47.7101 75.4056 48.01C76.1273 48.3099 76.8754 48.6079 77.6499 48.9041C78.4334 49.1784 79.0156 49.3819 79.3965 49.5145ZM68.3747 44.9343L68.0884 45.6232C67.3012 45.2961 66.6754 45.2283 66.211 45.42C65.7467 45.6118 65.3237 46.1669 64.942 47.0853L60.4708 57.8447C60.0891 58.7632 59.9942 59.4546 60.1859 59.919C60.3776 60.3833 60.8671 60.7791 61.6543 61.1062L61.3681 61.7951C61.0273 61.6278 60.5115 61.3878 59.8208 61.0752C59.1611 60.7497 58.4703 60.437 57.7487 60.1371C57.027 59.8372 56.2744 59.5501 55.4908 59.2758C54.7163 58.9796 54.1386 58.7652 53.7578 58.6326L54.0441 57.9437C54.9407 58.3163 55.643 58.4158 56.1511 58.2423C56.6811 58.0778 57.1369 57.5364 57.5186 56.6179L61.9897 45.8585C62.3714 44.94 62.4336 44.235 62.1762 43.7434C61.9408 43.2608 61.3748 42.8333 60.4781 42.4607L60.7644 41.7718C61.1271 41.9482 61.682 42.2173 62.4293 42.5791C63.1856 42.919 63.9246 43.2389 64.6462 43.5388C65.3679 43.8387 66.0722 44.1186 66.7593 44.3784C67.4772 44.6255 68.0157 44.8108 68.3747 44.9343ZM73.325 49.6842L73.6999 50.2632L59.4991 58.9796L59.1379 58.3679L73.325 49.6842Z" fill="#2F2F2F"/>
<path d="M114.377 71.5004L114.091 72.1896C113.194 71.8181 112.481 71.7148 111.951 71.8799C111.443 72.054 110.999 72.6005 110.618 73.5194L106.16 84.2839C105.779 85.2028 105.707 85.9034 105.943 86.3856C106.201 86.8769 106.778 87.3084 107.675 87.68L107.39 88.3692C107.027 88.1932 106.467 87.9357 105.71 87.5966C104.963 87.2357 104.228 86.9057 103.506 86.6066C102.784 86.3075 102.064 86.0348 101.345 85.7886C100.658 85.5295 100.135 85.3384 99.7756 85.2153L100.061 84.5261C100.849 84.8524 101.475 84.9194 101.939 84.7271C102.403 84.5349 102.825 83.9793 103.206 83.0604L107.665 72.2959C108.045 71.377 108.14 70.6855 107.947 70.2214C107.755 69.7572 107.265 69.362 106.478 69.0358L106.763 68.3466C107.104 68.5135 107.605 68.7593 108.265 69.084C108.956 69.3959 109.662 69.7013 110.384 70.0004C111.106 70.2995 111.855 70.5967 112.63 70.892C113.413 71.1654 113.996 71.3683 114.377 71.5004ZM103.35 66.9328L103.064 67.622C102.277 67.2957 101.651 67.2287 101.187 67.421C100.723 67.6132 100.3 68.1688 99.9196 69.0877L95.4607 79.8522C95.0801 80.7711 94.9859 81.4626 95.1782 81.9267C95.3704 82.3909 95.8603 82.7861 96.648 83.1123L96.3625 83.8015C96.0215 83.6346 95.5055 83.3952 94.8144 83.0834C94.1543 82.7587 93.4632 82.4468 92.7412 82.1477C92.0192 81.8486 91.2663 81.5624 90.4824 81.2889C89.7075 80.9936 89.1296 80.7799 88.7486 80.6477L89.0341 79.9585C89.9311 80.3301 90.6336 80.4288 91.1415 80.2547C91.6712 80.0896 92.1264 79.5476 92.5071 78.6287L96.966 67.8642C97.3466 66.9453 97.408 66.2402 97.1501 65.7489C96.9141 65.2666 96.3476 64.8397 95.4505 64.4682L95.736 63.779C96.0989 63.9549 96.6541 64.2234 97.4018 64.5843C98.1585 64.9234 98.8978 65.2425 99.6199 65.5415C100.342 65.8406 101.047 66.1197 101.734 66.3787C102.452 66.625 102.991 66.8097 103.35 66.9328ZM108.306 71.677L108.681 72.2556L94.4903 80.9882L94.1284 80.3769L108.306 71.677ZM105.084 56.1549C105.429 56.0667 105.767 56.117 106.099 56.3058C106.452 56.5036 106.703 56.8893 106.85 57.4628C107.006 58.0145 107.108 58.6336 107.157 59.3203C107.206 60.007 107.268 60.8147 107.345 61.7436C107.443 62.6816 107.61 63.8271 107.844 65.1801L107.361 65.3259C106.888 64.0536 106.441 62.997 106.021 62.1563C105.609 61.2937 105.248 60.5548 104.939 59.9397C104.652 59.3337 104.419 58.7503 104.242 58.1896C104.095 57.6161 104.105 57.1589 104.272 56.8179C104.46 56.4859 104.731 56.2649 105.084 56.1549Z" fill="#2F2F2F"/>
<path d="M152.936 96.292L152.654 96.9826C151.755 96.6157 151.041 96.5161 150.512 96.6839C150.005 96.8606 149.564 97.4094 149.188 98.3303L144.785 109.118C144.409 110.038 144.34 110.739 144.579 111.22C144.839 111.71 145.419 112.139 146.318 112.506L146.036 113.196C145.672 113.022 145.111 112.768 144.352 112.433C143.603 112.075 142.866 111.749 142.143 111.454C141.419 111.159 140.698 110.89 139.978 110.647C139.29 110.392 138.765 110.203 138.406 110.082L138.688 109.391C139.477 109.713 140.103 109.777 140.566 109.583C141.029 109.388 141.449 108.83 141.825 107.909L146.228 97.122C146.604 96.2011 146.695 95.5091 146.5 95.046C146.305 94.5829 145.813 94.1902 145.024 93.868L145.306 93.1774C145.648 93.3425 146.15 93.5857 146.812 93.907C147.504 94.2153 148.212 94.5172 148.936 94.8125C149.659 95.1079 150.409 95.4012 151.186 95.6925C151.971 95.9619 152.554 96.1617 152.936 96.292ZM141.886 91.7812L141.604 92.4718C140.814 92.1496 140.188 92.0859 139.725 92.2805C139.262 92.4751 138.842 93.0329 138.467 93.9537L134.063 104.741C133.687 105.662 133.597 106.354 133.791 106.817C133.986 107.28 134.478 107.673 135.267 107.995L134.985 108.686C134.643 108.521 134.126 108.284 133.434 107.975C132.772 107.654 132.079 107.346 131.356 107.051C130.632 106.755 129.878 106.473 129.092 106.203C128.316 105.912 127.737 105.701 127.355 105.571L127.637 104.88C128.536 105.247 129.239 105.342 129.746 105.166C130.275 104.998 130.727 104.454 131.103 103.533L135.507 92.7455C135.883 91.8246 135.94 91.1192 135.68 90.6292C135.441 90.1482 134.873 89.7242 133.974 89.3573L134.256 88.6666C134.619 88.8407 135.176 89.1063 135.926 89.4634C136.684 89.7985 137.425 90.1138 138.149 90.4091C138.872 90.7045 139.578 90.9799 140.267 91.2355C140.986 91.478 141.526 91.6599 141.886 91.7812ZM146.866 96.4998L147.244 97.0764L133.099 105.882L132.734 105.273L146.866 96.4998ZM151.597 85.0024C152.102 85.2083 152.451 85.5428 152.646 86.0059C152.84 86.469 152.835 86.9527 152.629 87.457C152.441 87.9175 152.12 88.2978 151.664 88.598C151.218 88.8763 150.702 89.075 150.117 89.194C149.531 89.313 148.827 89.3454 148.005 89.2912C147.183 89.2371 146.224 88.9862 145.128 88.5387C144.053 88.1002 143.193 87.6082 142.546 87.0627C141.921 86.5262 141.44 86.0105 141.105 85.5156C140.77 85.0207 140.541 84.5177 140.417 84.0067C140.302 83.4738 140.338 82.9771 140.526 82.5166C140.732 82.0124 141.066 81.6629 141.53 81.4683C141.993 81.2736 142.476 81.2793 142.981 81.4851C143.485 81.6909 143.85 82.019 144.075 82.4691C144.301 82.9193 144.297 83.4294 144.065 83.9994C143.877 84.4599 143.593 84.7789 143.214 84.9565C142.856 85.1431 142.451 85.1952 141.999 85.1129C142.24 85.7742 142.713 86.3383 143.418 86.805C144.145 87.2807 144.804 87.6393 145.396 87.881C145.988 88.1226 146.699 88.3233 147.529 88.4831C148.381 88.6518 149.125 88.5845 149.76 88.2812C149.379 88.0234 149.116 87.6983 148.969 87.3059C148.844 86.9224 148.876 86.5004 149.064 86.04C149.296 85.47 149.651 85.103 150.127 84.9393C150.625 84.7845 151.115 84.8055 151.597 85.0024Z" fill="#2F2F2F"/>
<path d="M174.777 124.142L174.969 123.644C176.365 124.105 177.622 123.903 178.74 123.039C179.85 122.197 180.779 120.804 181.527 118.858L182.725 115.741C181.834 116.871 180.776 117.644 179.55 118.061C178.333 118.455 177.039 118.389 175.668 117.863C174.895 117.565 174.263 117.196 173.773 116.754C173.284 116.312 172.927 115.82 172.704 115.277C172.454 114.674 172.388 113.989 172.505 113.222C172.622 112.455 172.88 111.552 173.28 110.513L176.478 102.19C176.861 101.196 176.964 100.398 176.789 99.798C176.622 99.1757 176.052 98.6777 175.08 98.3039L175.347 97.6076C176.029 97.9458 176.702 98.2423 177.365 98.4972C178.006 98.7435 178.627 98.944 179.227 99.0986C179.858 99.2395 180.446 99.3261 180.992 99.3583L175.983 112.389C175.72 113.075 175.522 113.722 175.39 114.33C175.257 114.939 175.3 115.488 175.518 115.978C175.735 116.467 176.242 116.865 177.038 117.171C177.966 117.528 178.864 117.568 179.731 117.293C180.598 117.017 181.383 116.494 182.085 115.724C182.809 114.962 183.388 114.017 183.821 112.89L186.459 106.026C186.841 105.031 186.945 104.234 186.769 103.634C186.603 103.012 186.033 102.514 185.06 102.14L185.328 101.443C186.01 101.782 186.682 102.078 187.345 102.333C187.986 102.579 188.607 102.78 189.207 102.934C189.838 103.075 190.426 103.162 190.972 103.194L185.735 116.822C185.31 117.927 184.829 118.948 184.292 119.883C183.755 120.818 183.152 121.627 182.484 122.309C181.816 122.991 181.076 123.531 180.263 123.929C179.481 124.313 178.609 124.536 177.647 124.598C176.706 124.668 175.75 124.516 174.777 124.142ZM182.081 90.6816C182.656 90.9025 183.072 91.3037 183.331 91.8851C183.59 92.4665 183.608 93.0446 183.388 93.6194C183.167 94.1941 182.766 94.6108 182.184 94.8693C181.603 95.1279 181.025 95.1468 180.45 94.9259C179.875 94.705 179.458 94.3038 179.2 93.7224C178.941 93.141 178.922 92.5629 179.143 91.9882C179.364 91.4134 179.765 90.9968 180.347 90.7382C180.928 90.4796 181.506 90.4608 182.081 90.6816ZM192.161 94.5557C192.736 94.7766 193.153 95.1778 193.411 95.7592C193.67 96.3406 193.689 96.9187 193.468 97.4934C193.247 98.0682 192.846 98.4848 192.264 98.7434C191.683 99.002 191.105 99.0208 190.53 98.8C189.955 98.5791 189.539 98.1779 189.28 97.5965C189.021 97.0151 189.003 96.437 189.223 95.8622C189.444 95.2875 189.845 94.8708 190.427 94.6123C191.008 94.3537 191.586 94.3348 192.161 94.5557Z" fill="#2F2F2F"/>
</svg>
