<svg width="317" height="207" viewBox="0 0 317 207" fill="none" xmlns="http://www.w3.org/2000/svg">
<path d="M117.13 128.468C69.025 93.5473 49.5932 91.4789 28.7105 91.4058C25.6389 91.395 15.5779 91.7052 10.9875 94.0644C27.6637 69.5414 25.3877 45.5235 22.1652 36.58C61.7558 3.17554 103.198 24.2499 118.97 38.9627C136.818 58.0177 184.791 95.8923 233.903 94.9506C283.015 94.0088 294.856 117.317 294.638 129.089C289.507 133.014 280.451 144.149 285.28 157.284C291.315 173.702 289.631 183.413 286.076 190.603C291.687 170.936 260.524 158.209 234.354 162.847C203.788 168.264 165.234 163.388 117.13 128.468Z" fill="#D3CDC4" stroke="#1B1B1B" stroke-width="3"/>
<path d="M147.948 91.0867C148.499 91.3614 148.876 91.8004 149.078 92.4038C149.28 93.0072 149.243 93.5845 148.969 94.1356C148.694 94.6866 148.255 95.0632 147.651 95.2652C147.048 95.4672 146.471 95.4309 145.92 95.1562C145.369 94.8816 144.992 94.4425 144.79 93.8391C144.588 93.2357 144.624 92.6584 144.899 92.1074C145.174 91.5563 145.613 91.1798 146.216 90.9777C146.82 90.7757 147.397 90.8121 147.948 91.0867ZM145.814 99.5092L138.953 113.275C138.509 114.166 138.389 114.86 138.59 115.357C138.814 115.865 139.36 116.336 140.229 116.769L139.896 117.436C139.546 117.236 139.006 116.94 138.274 116.549C137.575 116.147 136.854 115.762 136.112 115.392C135.392 115.033 134.65 114.69 133.887 114.362C133.134 114.014 132.573 113.76 132.202 113.602L132.535 112.934C133.404 113.367 134.098 113.515 134.616 113.376C135.156 113.249 135.648 112.74 136.092 111.849L141.051 101.898C141.527 100.944 141.706 100.16 141.588 99.5464C141.482 98.9111 140.962 98.361 140.029 97.8962L140.362 97.2286C141.009 97.6302 141.65 97.9895 142.286 98.3064C142.9 98.6127 143.499 98.8714 144.082 99.0825C144.696 99.2829 145.274 99.4251 145.814 99.5092Z" fill="#2F2F2F"/>
<path d="M184.502 118.248L177.031 131.693C176.548 132.563 176.396 133.25 176.575 133.757C176.775 134.274 177.3 134.769 178.148 135.24L177.786 135.892C177.446 135.676 176.919 135.356 176.206 134.933C175.525 134.501 174.822 134.083 174.098 133.68C173.394 133.289 172.668 132.913 171.921 132.552C171.185 132.17 170.635 131.892 170.272 131.717L170.634 131.065C171.483 131.536 172.169 131.715 172.694 131.6C173.239 131.496 173.753 131.01 174.236 130.14L179.637 120.421C180.154 119.49 180.368 118.715 180.278 118.096C180.2 117.457 179.706 116.884 178.795 116.378L179.157 115.726C179.785 116.156 180.41 116.543 181.031 116.889C181.631 117.222 182.218 117.507 182.79 117.744C183.395 117.972 183.966 118.14 184.502 118.248ZM191.099 110.251C191.232 110.596 191.217 110.94 191.054 111.283C190.911 111.637 190.57 111.935 190.029 112.176C189.5 112.397 188.899 112.577 188.225 112.718C187.551 112.858 186.748 113.035 185.816 113.249C184.917 113.454 183.812 113.761 182.501 114.17L182.314 113.701C183.52 113.043 184.51 112.455 185.285 111.938C186.081 111.432 186.763 110.984 187.331 110.596C187.9 110.207 188.448 109.902 188.977 109.682C189.518 109.44 189.965 109.391 190.319 109.533C190.694 109.687 190.954 109.927 191.099 110.251Z" fill="#2F2F2F"/>
<path d="M226.643 123.526L219.891 137.346C219.454 138.239 219.339 138.934 219.544 139.43C219.772 139.936 220.321 140.403 221.194 140.829L220.866 141.499C220.515 141.301 219.972 141.01 219.238 140.624C218.535 140.228 217.811 139.848 217.067 139.485C216.343 139.131 215.599 138.794 214.833 138.473C214.078 138.13 213.514 137.881 213.142 137.726L213.47 137.055C214.342 137.481 215.037 137.623 215.555 137.481C216.094 137.349 216.582 136.836 217.018 135.942L221.899 125.952C222.367 124.995 222.539 124.209 222.417 123.596C222.306 122.962 221.782 122.416 220.845 121.958L221.173 121.288C221.822 121.685 222.466 122.039 223.105 122.351C223.722 122.652 224.323 122.906 224.907 123.113C225.523 123.308 226.102 123.446 226.643 123.526ZM234.143 116.832L234.545 117.384C233.904 117.941 233.141 118.451 232.256 118.914C231.392 119.388 230.468 119.688 229.484 119.814C228.51 119.918 227.534 119.731 226.556 119.253C225.577 118.775 224.829 118.12 224.313 117.288C223.808 116.434 223.476 115.521 223.319 114.548C223.14 113.565 223.074 112.649 223.119 111.802L223.802 111.78C223.871 112.393 224.01 113.054 224.217 113.762C224.435 114.448 224.796 115.112 225.3 115.753C225.835 116.384 226.561 116.923 227.476 117.37C228.39 117.817 229.251 118.052 230.056 118.077C230.893 118.09 231.649 117.972 232.324 117.722C233.031 117.461 233.638 117.165 234.143 116.832Z" fill="#2F2F2F"/>
<path d="M112.877 75.5823L106.61 89.6289C106.205 90.5372 106.113 91.2356 106.336 91.724C106.581 92.2221 107.147 92.6689 108.033 93.0646L107.729 93.7458C107.371 93.5601 106.819 93.2876 106.071 92.9283C105.355 92.557 104.619 92.2024 103.862 91.8647C103.127 91.5367 102.371 91.2254 101.595 90.9309C100.828 90.6148 100.256 90.3856 99.8788 90.2432L100.183 89.5619C101.069 89.9575 101.769 90.0752 102.281 89.9148C102.815 89.7641 103.285 89.2346 103.69 88.3262L108.221 78.1725C108.655 77.1992 108.8 76.4084 108.657 75.7998C108.523 75.1696 107.98 74.6423 107.029 74.2177L107.333 73.5365C107.996 73.9101 108.652 74.2417 109.301 74.5312C109.928 74.811 110.537 75.0439 111.128 75.2299C111.751 75.4039 112.334 75.5214 112.877 75.5823ZM117.737 69.3099C118.235 69.5318 118.58 69.9194 118.774 70.4727C118.999 71.0141 119.001 71.5334 118.779 72.0309C118.548 72.5499 118.155 72.9064 117.602 73.1004C117.07 73.304 116.556 73.2948 116.058 73.0729C115.539 72.8413 115.178 72.4597 114.974 71.928C114.771 71.3963 114.785 70.871 115.016 70.3519C115.238 69.8545 115.615 69.504 116.147 69.3004C116.688 69.0751 117.218 69.0783 117.737 69.3099ZM110.86 66.2414C111.357 66.4634 111.703 66.851 111.897 67.4043C112.122 67.9456 112.124 68.465 111.902 68.9624C111.67 69.4815 111.278 69.838 110.725 70.0319C110.193 70.2356 109.678 70.2264 109.181 70.0045C108.662 69.7729 108.301 69.3913 108.097 68.8596C107.893 68.3279 107.907 67.8025 108.139 67.2835C108.361 66.7861 108.738 66.4355 109.269 66.2319C109.811 66.0067 110.341 66.0098 110.86 66.2414Z" fill="#2F2F2F"/>
<path d="M76.3377 56.6422L71.1172 71.1104C70.7796 72.046 70.3612 72.6126 69.8619 72.8101C69.3404 72.9995 68.6229 72.9295 67.7096 72.5999L67.4564 73.3016C67.8432 73.416 68.4304 73.6027 69.2181 73.8617C69.9915 74.0905 70.7681 74.3455 71.5478 74.6268C72.3051 74.9001 73.0656 75.1997 73.8292 75.5256C74.6008 75.8292 75.172 76.0604 75.5426 76.2193L75.7958 75.5176C74.8825 75.1881 74.2968 74.7879 74.0386 74.3171C73.7582 73.8383 73.7868 73.1311 74.1244 72.1955L77.8982 61.737C78.2599 60.7345 78.7033 60.0637 79.2285 59.7246C79.7618 59.3631 80.5185 59.3592 81.4986 59.7129L81.7518 59.0112C81.0149 58.8208 80.3123 58.605 79.644 58.3639C78.998 58.1308 78.3974 57.8763 77.8424 57.6005C77.2731 57.2944 76.7715 56.975 76.3377 56.6422ZM83.5324 50.0993C82.931 49.8823 82.3784 49.8088 81.8748 49.8788C81.3712 49.9489 80.9001 50.0684 80.4614 50.2374C80.0005 50.3984 79.5517 50.526 79.1149 50.6201C78.6558 50.7062 78.1813 50.6609 77.6912 50.484C77.2234 50.3152 76.8261 50.0208 76.4993 49.6008C76.1583 49.1505 75.911 48.5451 75.7573 47.7847L75.2051 47.8498C75.1195 49.2036 75.3366 50.2764 75.8565 51.0683C76.3764 51.8601 77.0596 52.4087 77.9061 52.7142C78.5076 52.9312 79.0713 53.0087 79.5972 52.9467C80.1008 52.8766 80.583 52.7611 81.0439 52.6002C81.4906 52.4089 81.9435 52.2701 82.4026 52.184C82.8393 52.0899 83.3028 52.1312 83.7928 52.308C84.2606 52.4768 84.6539 52.7824 84.9727 53.2247C85.3217 53.6528 85.5691 54.2581 85.7147 55.0408L86.2669 54.9757C86.3606 53.5996 86.1323 52.5228 85.582 51.7452C85.0621 50.9534 84.3789 50.4047 83.5324 50.0993Z" fill="#2F2F2F"/>
</svg>
