<svg width="1335" height="548" viewBox="0 0 1335 548" fill="none" xmlns="http://www.w3.org/2000/svg">
<rect x="960.087" y="405.14" width="291.926" height="98.299" transform="rotate(8.68444 960.087 405.14)" fill="#B4ACA3" stroke="#1B1B1B" stroke-width="2"/>
<rect x="204.196" y="430.707" width="214.37" height="90.4043" transform="rotate(-5.51863 204.196 430.707)" fill="#B4ACA3" stroke="#1B1B1B" stroke-width="2"/>
<rect x="1.12944" y="110.385" width="322.938" height="112.957" transform="rotate(-8 1.12944 110.385)" fill="#D3CDC4" stroke="#1B1B1B" stroke-width="2"/>
<rect x="682.158" y="97.3034" width="372.067" height="122.029" transform="rotate(-8.37133 682.158 97.3034)" fill="#B4ACA3" stroke="#1B1B1B" stroke-width="2"/>
<rect x="782.716" y="346.832" width="223.799" height="98.299" transform="rotate(-10 782.716 346.832)" fill="#D3CDC4" stroke="#1B1B1B" stroke-width="2"/>
<rect x="282.588" y="292.879" width="351.695" height="110.526" transform="rotate(9 282.588 292.879)" fill="#D3CDC4" stroke="#1B1B1B" stroke-width="2"/>
<rect x="34.7101" y="327.319" width="216.271" height="99.0554" transform="rotate(-16.1291 34.7101 327.319)" fill="#D3CDC4" stroke="#1B1B1B" stroke-width="2"/>
<rect x="189.447" y="221.843" width="275.562" height="93.3903" transform="rotate(-26.6269 189.447 221.843)" fill="#B4ACA3" stroke="#1B1B1B" stroke-width="2"/>
<rect x="973.036" y="222.102" width="362.761" height="119.296" transform="rotate(6.17378 973.036 222.102)" fill="#D3CDC4" stroke="#1B1B1B" stroke-width="2"/>
<rect x="515.431" y="184.102" width="343.617" height="104.369" transform="rotate(6.17378 515.431 184.102)" fill="#D3CDC4" stroke="#1B1B1B" stroke-width="2"/>
<rect x="484.803" y="43.2817" width="146.422" height="77.2358" transform="rotate(20 484.803 43.2817)" fill="#D3CDC4" stroke="#1B1B1B" stroke-width="2"/>
<rect x="694.133" y="5.60329" width="160.494" height="77.2358" transform="rotate(-1.63355 694.133 5.60329)" fill="#D3CDC4" stroke="#1B1B1B" stroke-width="2"/>
<rect x="968.425" y="181.91" width="306.302" height="78.0038" transform="rotate(-24.0013 968.425 181.91)" fill="#D3CDC4" stroke="#1B1B1B" stroke-width="2"/>
</svg>
