<svg width="321" height="185" viewBox="0 0 321 185" fill="none" xmlns="http://www.w3.org/2000/svg">
<path d="M144.707 138.386C84.9885 142.697 68.6762 153.713 52.5409 167.206C50.1676 169.191 42.6179 175.958 40.6123 180.755C37.5472 151.041 20.2093 134.015 11.9234 129.216C20.7485 77.7922 66.3497 67.1372 88.0472 68.2378C114.161 71.3367 175.695 69.3864 212.92 36.7935C250.144 4.20065 274.391 14.4735 281.861 23.684C280.455 30.0377 280.704 44.4915 292.947 51.4774C308.25 60.2099 313.254 68.7839 315.18 76.6297C306.741 57.8374 274.475 68.2534 257.323 88.8076C237.291 112.814 204.425 134.074 144.707 138.386Z" fill="#D3CDC4" stroke="#1B1B1B" stroke-width="3"/>
<path d="M60.419 109.776C61.768 109.086 63.1311 108.76 64.5084 108.8C65.8856 108.839 67.2143 109.33 68.4943 110.27C69.7954 111.2 70.9641 112.677 72.0004 114.701C73.0367 116.724 73.552 118.536 73.5463 120.135C73.5508 121.703 73.1667 123.057 72.394 124.197C71.6212 125.338 70.5604 126.254 69.2113 126.945C67.8834 127.625 66.5203 127.95 65.1219 127.922C63.7447 127.882 62.4109 127.408 61.1206 126.499C59.8406 125.558 58.6824 124.076 57.6461 122.052C56.6098 120.029 56.084 118.223 56.0686 116.634C56.0744 115.035 56.4636 113.665 57.2364 112.524C58.0302 111.372 59.0911 110.457 60.419 109.776ZM60.7428 110.409C59.5414 111.024 58.8691 112.153 58.7261 113.796C58.6042 115.429 59.2665 117.657 60.713 120.481C62.1595 123.306 63.5806 125.146 64.9763 126.001C66.3823 126.824 67.686 126.928 68.8875 126.312C70.089 125.697 70.7561 124.584 70.8888 122.973C71.0318 121.33 70.38 119.096 68.9335 116.271C67.487 113.447 66.0554 111.613 64.6386 110.768C63.2429 109.913 61.9443 109.794 60.7428 110.409ZM61.4105 98.932L62.0937 98.9413C62.1548 99.788 62.1054 100.705 61.9455 101.691C61.8067 102.667 61.4925 103.586 61.003 104.449C60.5028 105.29 59.7678 105.959 58.7982 106.456C57.8286 106.952 56.8562 107.158 55.881 107.072C54.895 106.965 53.955 106.688 53.061 106.241C52.1881 105.784 51.426 105.283 50.7746 104.738L51.1664 104.178C51.699 104.491 52.3107 104.776 53.0017 105.034C53.6818 105.271 54.4295 105.381 55.2449 105.362C56.0705 105.312 56.9365 105.055 57.8429 104.59C58.7493 104.126 59.4536 103.579 59.9559 102.95C60.4685 102.288 60.8274 101.612 61.0325 100.922C61.248 100.199 61.374 99.5361 61.4105 98.932Z" fill="#2F2F2F"/>
<path d="M104.824 100.654C106.164 99.9449 107.523 99.6011 108.9 99.6225C110.278 99.6438 111.613 100.116 112.905 101.04C114.219 101.953 115.407 103.414 116.47 105.423C117.533 107.433 118.073 109.237 118.088 110.837C118.114 112.404 117.748 113.763 116.99 114.914C116.233 116.065 115.184 116.995 113.844 117.703C112.526 118.401 111.167 118.745 109.768 118.735C108.391 118.713 107.051 118.257 105.749 117.365C104.456 116.441 103.278 114.975 102.215 112.965C101.152 110.956 100.602 109.157 100.566 107.568C100.55 105.969 100.921 104.594 101.678 103.443C102.457 102.281 103.505 101.351 104.824 100.654ZM105.156 101.282C103.963 101.913 103.306 103.051 103.185 104.696C103.085 106.329 103.777 108.549 105.261 111.354C106.745 114.159 108.19 115.979 109.597 116.816C111.014 117.62 112.319 117.707 113.512 117.075C114.705 116.444 115.358 115.322 115.469 113.709C115.59 112.065 114.909 109.84 113.425 107.035C111.941 104.23 110.485 102.415 109.057 101.589C107.65 100.753 106.35 100.65 105.156 101.282ZM106.951 88.1149C107.313 88.1914 107.593 88.3915 107.792 88.7154C108.011 89.0281 108.074 89.4769 107.981 90.0617C107.878 90.6255 107.701 91.2281 107.451 91.8695C107.201 92.5108 106.911 93.2802 106.582 94.1777C106.263 95.0431 105.918 96.1368 105.545 97.459L105.05 97.3591C105.157 95.9901 105.204 94.8396 105.194 93.9076C105.204 92.9646 105.201 92.1489 105.185 91.4607C105.169 90.7725 105.213 90.1465 105.317 89.5826C105.409 88.9979 105.612 88.5959 105.925 88.3769C106.258 88.1468 106.601 88.0594 106.951 88.1149ZM101.362 91.0718C101.724 91.1483 102.004 91.3484 102.203 91.6723C102.422 91.985 102.485 92.4338 102.392 93.0186C102.289 93.5824 102.112 94.185 101.862 94.8264C101.612 95.4678 101.322 96.2371 100.993 97.1346C100.674 98 100.328 99.0938 99.9563 100.416L99.4614 100.316C99.5677 98.947 99.6154 97.7965 99.6046 96.8646C99.6147 95.9215 99.6118 95.1059 99.596 94.4176C99.5802 93.7294 99.6241 93.1034 99.7277 92.5395C99.8202 91.9548 100.023 91.5529 100.336 91.3338C100.669 91.1037 101.012 91.0163 101.362 91.0718Z" fill="#2F2F2F"/>
<path d="M151.14 91.6307C152.516 90.9947 153.891 90.7242 155.266 90.8192C156.64 90.9142 157.948 91.4575 159.189 92.4491C160.452 93.4308 161.56 94.9534 162.514 97.017C163.468 99.0805 163.91 100.911 163.84 102.509C163.782 104.075 163.343 105.413 162.525 106.522C161.707 107.63 160.61 108.503 159.235 109.139C157.881 109.765 156.505 110.035 155.109 109.95C153.735 109.855 152.421 109.328 151.169 108.368C149.927 107.376 148.83 105.848 147.876 103.785C146.922 101.721 146.469 99.8955 146.517 98.3077C146.588 96.7098 147.032 95.3566 147.85 94.2479C148.689 93.1292 149.786 92.2568 151.14 91.6307ZM151.438 92.2756C150.213 92.8421 149.496 93.9433 149.287 95.5792C149.099 97.2052 149.672 99.4584 151.003 102.339C152.335 105.219 153.681 107.115 155.041 108.025C156.413 108.904 157.711 109.06 158.937 108.494C160.162 107.927 160.873 106.842 161.071 105.237C161.28 103.602 160.718 101.343 159.387 98.463C158.055 95.5826 156.698 93.6921 155.316 92.7916C153.956 91.8811 152.664 91.7091 151.438 92.2756ZM155.884 91.903L156.666 92.3243L154.637 108.251L153.808 107.813L155.884 91.903ZM153.486 107.962L154.314 108.4L153.343 114.172L152.457 114.033L153.486 107.962ZM157.079 86.6152L157.885 86.7511L156.988 92.1752L156.206 91.7539L157.079 86.6152ZM150.453 80.8338C150.811 80.9295 151.08 81.1444 151.26 81.4784C151.462 81.8024 151.501 82.2539 151.378 82.8329C151.244 83.3904 151.035 83.9827 150.751 84.6097C150.467 85.2368 150.137 85.9896 149.76 86.8681C149.395 87.7152 148.991 88.7889 148.549 90.0892L148.06 89.963C148.24 88.6017 148.349 87.4554 148.388 86.5241C148.448 85.583 148.489 84.7683 148.51 84.0803C148.531 83.3922 148.609 82.7694 148.742 82.2119C148.866 81.6329 149.09 81.2424 149.414 81.0404C149.759 80.8285 150.106 80.7596 150.453 80.8338Z" fill="#2F2F2F"/>
<path d="M198.522 83.6787L198.087 83.144C198.675 82.787 199.179 82.4206 199.598 82.0446C200.017 81.6686 200.372 81.2722 200.663 80.8555L200.746 81.0927C200.427 80.9909 200.08 80.8363 199.707 80.6292C199.344 80.3902 199.059 80.0707 198.853 79.6709C198.636 79.2499 198.561 78.7954 198.629 78.3074C198.686 77.7982 198.978 77.408 199.504 77.1365C199.988 76.8868 200.422 76.8496 200.806 77.0248C201.189 77.2 201.489 77.4981 201.707 77.919C201.956 78.4031 202.037 78.9211 201.949 79.4729C201.87 79.9929 201.686 80.4878 201.395 80.9575C201.116 81.4482 200.73 81.9138 200.237 82.3543C199.766 82.7839 199.194 83.2253 198.522 83.6787ZM194.456 83.7776C195.803 83.0828 197.165 82.7531 198.543 82.7887C199.92 82.8243 201.25 83.3106 202.533 84.2477C203.837 85.1739 205.01 86.6472 206.052 88.6677C207.095 90.6881 207.615 92.498 207.614 94.0974C207.623 95.6648 207.243 97.0201 206.474 98.1631C205.705 99.3061 204.646 100.225 203.299 100.92C201.974 101.604 200.611 101.933 199.213 101.909C197.836 101.873 196.5 101.403 195.207 100.498C193.925 99.5606 192.762 98.0818 191.72 96.0614C190.678 94.0409 190.146 92.2364 190.126 90.648C190.127 89.0486 190.513 87.6774 191.282 86.5344C192.072 85.3805 193.13 84.4616 194.456 83.7776ZM194.782 84.409C193.582 85.0279 192.914 86.159 192.775 87.8025C192.658 89.435 193.327 91.6614 194.782 94.4817C196.237 97.3019 197.663 99.1374 199.062 99.9883C200.47 100.807 201.774 100.907 202.974 100.288C204.173 99.6696 204.837 98.5544 204.965 96.9429C205.103 95.2994 204.445 93.0676 202.99 90.2474C201.535 87.4272 200.098 85.5971 198.679 84.757C197.281 83.9062 195.982 83.7902 194.782 84.409ZM188.323 77.3888C188.891 77.0957 189.429 76.9512 189.938 76.9553C190.446 76.9595 190.929 77.017 191.386 77.1277C191.864 77.2276 192.325 77.2959 192.77 77.3327C193.237 77.3586 193.701 77.2521 194.165 77.0132C194.606 76.7852 194.962 76.4418 195.232 75.983C195.512 75.4922 195.678 74.8599 195.732 74.0861L196.288 74.0791C196.549 75.4103 196.472 76.5022 196.059 77.3548C195.647 78.2073 195.04 78.8398 194.24 79.2524C193.672 79.5456 193.123 79.6955 192.594 79.7021C192.085 79.698 191.592 79.6459 191.114 79.546C190.647 79.4143 190.18 79.3354 189.713 79.3095C189.268 79.2728 188.814 79.3738 188.351 79.6127C187.909 79.8407 187.548 80.2001 187.268 80.6908C186.998 81.1496 186.842 81.7765 186.799 82.5714L186.243 82.5784C185.972 81.2261 186.048 80.1342 186.472 79.3027C186.906 78.4393 187.523 77.8014 188.323 77.3888Z" fill="#2F2F2F"/>
<path d="M224.07 58.5719C225.123 57.8058 226.266 57.3844 227.499 57.3078C228.751 57.2172 230.043 57.5654 231.377 58.3523C232.716 59.1062 234.054 60.4024 235.391 62.2409C236.729 64.0795 237.557 65.7614 237.875 67.2866C238.199 68.7787 238.125 70.1063 237.653 71.2694C237.201 72.4186 236.448 73.3762 235.394 74.1423C234.245 74.9781 232.997 75.4761 231.649 75.6363C230.321 75.7826 228.968 75.4928 227.591 74.7668C226.2 74.0217 224.835 72.7298 223.498 70.8912C222.161 69.0527 221.359 67.3664 221.093 65.8325C220.812 64.2794 220.946 62.8935 221.495 61.6747C222.062 60.442 222.921 59.4077 224.07 58.5719ZM224.488 59.1465C223.492 59.8708 223.079 61.0348 223.25 62.6383C223.407 64.2228 224.418 66.2981 226.285 68.8645C228.151 71.4308 229.821 73.0421 231.294 73.6985C232.753 74.3357 233.981 74.2921 234.977 73.5678C235.992 72.8295 236.411 71.6751 236.235 70.1047C236.065 68.5011 235.046 66.4161 233.179 63.8498C231.313 61.2835 229.65 59.6817 228.191 59.0445C226.737 58.3742 225.503 58.4082 224.488 59.1465ZM233.989 51.3137C235.578 50.1576 237.199 49.7693 238.851 50.1488C240.49 50.5091 242.096 51.7714 243.67 53.9355L234.391 60.6844L233.965 60.1595L240.515 55.3956C239.871 54.4293 239.177 53.6162 238.434 52.9563C237.676 52.2773 236.932 51.8377 236.201 51.6375C235.489 51.4234 234.845 51.5253 234.271 51.9431C233.39 52.5839 232.925 53.5955 232.876 54.978C232.847 56.3465 233.461 58.0371 234.72 60.0498L234.89 60.102C235.061 60.4171 235.262 60.754 235.493 61.1127C235.725 61.4713 235.966 61.823 236.217 62.1678C237.164 63.4701 238.189 64.4373 239.293 65.0692C240.397 65.7012 241.465 66.0224 242.498 66.0328C243.536 66.0102 244.418 65.7342 245.146 65.2048C245.682 64.8148 246.127 64.3595 246.481 63.8389C246.82 63.2991 247.038 62.6723 247.134 61.9585C247.248 61.2307 247.201 60.401 246.992 59.4695L247.734 59.2815C248.002 60.0528 248.122 60.9024 248.095 61.8304C248.067 62.7585 247.847 63.6647 247.437 64.5492C247.012 65.4146 246.349 66.1746 245.449 66.8293C244.185 67.7486 242.873 68.2197 241.513 68.2423C240.154 68.265 238.83 67.8951 237.544 67.1325C236.243 66.3508 235.063 65.2322 234.005 63.7766C232.779 62.0913 231.967 60.4712 231.568 58.9164C231.174 57.3285 231.181 55.8886 231.589 54.5967C232.001 53.2717 232.801 52.1774 233.989 51.3137Z" fill="#2F2F2F"/>
</svg>
