<svg width="256" height="774" viewBox="0 0 256 774" fill="none" xmlns="http://www.w3.org/2000/svg">
<path d="M189.657 343.312L172.699 345.043C173.306 361.43 163.812 389.183 179.292 387.603C197.804 385.713 196.292 360.334 189.657 343.312Z" fill="#1B1B1B"/>
<path d="M173.022 338.579L188.369 338.039C188.016 332.052 185.958 319.289 175.78 320.328C166.177 321.308 171.498 332.186 173.022 338.579Z" fill="#1B1B1B"/>
<path d="M189.657 343.312L172.699 345.043C173.306 361.43 163.812 389.183 179.292 387.603C197.804 385.713 196.292 360.334 189.657 343.312Z" stroke="#1B1B1B" stroke-width="2"/>
<path d="M173.022 338.579L188.369 338.039C188.016 332.052 185.958 319.289 175.78 320.328C166.177 321.308 171.498 332.186 173.022 338.579Z" stroke="#1B1B1B" stroke-width="2"/>
<path d="M187.856 208.875L171.406 213.349C174.679 229.417 169.839 258.348 184.854 254.263C202.81 249.379 197.179 224.586 187.856 208.875Z" fill="#1B1B1B"/>
<path d="M170.671 206.919L185.725 203.883C184.4 198.033 180.287 185.777 170.415 188.462C161.1 190.996 168.124 200.86 170.671 206.919Z" fill="#1B1B1B"/>
<path d="M187.856 208.875L171.406 213.349C174.679 229.417 169.839 258.348 184.854 254.263C202.81 249.379 197.179 224.586 187.856 208.875Z" stroke="#1B1B1B" stroke-width="2"/>
<path d="M170.671 206.919L185.725 203.883C184.4 198.033 180.287 185.777 170.415 188.462C161.1 190.996 168.124 200.86 170.671 206.919Z" stroke="#1B1B1B" stroke-width="2"/>
<path d="M163.175 473.689L146.258 471.591C143.192 487.699 127.742 512.633 143.184 514.548C161.651 516.839 165.843 491.762 163.175 473.689Z" fill="#1B1B1B"/>
<path d="M148.016 465.361L163.097 468.261C164.089 462.347 164.932 449.446 154.779 448.187C145.199 446.999 147.957 458.79 148.016 465.361Z" fill="#1B1B1B"/>
<path d="M163.175 473.689L146.258 471.591C143.192 487.699 127.742 512.633 143.184 514.548C161.651 516.839 165.843 491.762 163.175 473.689Z" stroke="#1B1B1B" stroke-width="2"/>
<path d="M148.016 465.361L163.097 468.261C164.089 462.347 164.932 449.446 154.779 448.187C145.199 446.999 147.957 458.79 148.016 465.361Z" stroke="#1B1B1B" stroke-width="2"/>
<path d="M151.271 76.6323L135.577 83.2879C140.99 98.7665 140.104 128.085 154.429 122.01C171.561 114.745 162.631 90.9395 151.271 76.6323Z" fill="#1B1B1B"/>
<path d="M133.98 77.0153L148.485 71.9734C146.382 66.3567 140.651 54.7687 131.233 58.7631C122.345 62.532 130.638 71.3569 133.98 77.0153Z" fill="#1B1B1B"/>
<path d="M151.271 76.6323L135.577 83.2879C140.99 98.7665 140.104 128.085 154.429 122.01C171.561 114.745 162.631 90.9395 151.271 76.6323Z" stroke="#1B1B1B" stroke-width="2"/>
<path d="M133.98 77.0153L148.485 71.9734C146.382 66.3567 140.651 54.7687 131.233 58.7631C122.345 62.532 130.638 71.3569 133.98 77.0153Z" stroke="#1B1B1B" stroke-width="2"/>
<path d="M118.096 607.893L101.672 603.327C96.2678 618.808 77.316 641.196 92.3076 645.364C110.236 650.348 118.074 626.162 118.096 607.893Z" fill="#1B1B1B"/>
<path d="M104.329 597.424L118.818 602.513C120.67 596.808 123.403 584.173 113.546 581.432C104.245 578.847 105.237 590.916 104.329 597.424Z" fill="#1B1B1B"/>
<path d="M118.096 607.893L101.672 603.327C96.2678 618.808 77.316 641.196 92.3076 645.364C110.236 650.348 118.074 626.162 118.096 607.893Z" stroke="#1B1B1B" stroke-width="2"/>
<path d="M104.329 597.424L118.818 602.513C120.67 596.808 123.403 584.173 113.546 581.432C104.245 578.847 105.237 590.916 104.329 597.424Z" stroke="#1B1B1B" stroke-width="2"/>
<path d="M59.7183 733.193L44.331 725.856C36.3316 740.17 13.7946 758.944 27.8399 765.641C44.6364 773.65 56.5384 751.183 59.7183 733.193Z" fill="#1B1B1B"/>
<path d="M47.9681 720.502L61.3592 728.018C64.1699 722.72 69.0459 710.747 59.8112 706.344C51.0977 702.189 49.9884 714.248 47.9681 720.502Z" fill="#1B1B1B"/>
<path d="M59.7183 733.193L44.331 725.856C36.3316 740.17 13.7946 758.944 27.8399 765.641C44.6364 773.65 56.5384 751.183 59.7183 733.193Z" stroke="#1B1B1B" stroke-width="2"/>
<path d="M47.9681 720.502L61.3592 728.018C64.1699 722.72 69.0459 710.747 59.8112 706.344C51.0977 702.189 49.9884 714.248 47.9681 720.502Z" stroke="#1B1B1B" stroke-width="2"/>
<path d="M103.956 396.302L122.731 399.258C120.791 415.558 129.238 443.927 112.1 441.229C91.6043 438.002 95.2457 412.798 103.956 396.302Z" fill="#1B1B1B"/>
<path d="M122.869 392.787L105.798 391.136C106.653 385.19 109.932 372.609 121.2 374.383C131.833 376.057 125.062 386.521 122.869 392.787Z" fill="#1B1B1B"/>
<path d="M103.956 396.302L122.731 399.258C120.791 415.558 129.238 443.927 112.1 441.229C91.6043 438.002 95.2457 412.798 103.956 396.302Z" stroke="#1B1B1B" stroke-width="2"/>
<path d="M122.869 392.787L105.798 391.136C106.653 385.19 109.932 372.609 121.2 374.383C131.833 376.057 125.062 386.521 122.869 392.787Z" stroke="#1B1B1B" stroke-width="2"/>
<path d="M116.373 271.395L135.345 272.548C134.967 288.959 146.078 316.394 128.76 315.342C108.051 314.083 109.274 288.646 116.373 271.395Z" fill="#1B1B1B"/>
<path d="M134.865 266.093L117.715 266.077C117.999 260.076 120.065 247.241 131.451 247.933C142.194 248.586 136.451 259.648 134.865 266.093Z" fill="#1B1B1B"/>
<path d="M116.373 271.395L135.345 272.548C134.967 288.959 146.078 316.394 128.76 315.342C108.051 314.083 109.274 288.646 116.373 271.395Z" stroke="#1B1B1B" stroke-width="2"/>
<path d="M134.865 266.093L117.715 266.077C117.999 260.076 120.065 247.241 131.451 247.933C142.194 248.586 136.451 259.648 134.865 266.093Z" stroke="#1B1B1B" stroke-width="2"/>
<path d="M106.188 151.304L125.112 149.53C127.258 165.805 142.449 191.209 125.176 192.827C104.518 194.763 101.822 169.44 106.188 151.304Z" fill="#1B1B1B"/>
<path d="M123.647 143.226L106.698 145.842C106.058 139.869 106.128 126.869 117.485 125.805C128.201 124.801 124.224 136.613 123.647 143.226Z" fill="#1B1B1B"/>
<path d="M106.188 151.304L125.112 149.53C127.258 165.805 142.449 191.209 125.176 192.827C104.518 194.763 101.822 169.44 106.188 151.304Z" stroke="#1B1B1B" stroke-width="2"/>
<path d="M123.647 143.226L106.698 145.842C106.058 139.869 106.128 126.869 117.485 125.805C128.201 124.801 124.224 136.613 123.647 143.226Z" stroke="#1B1B1B" stroke-width="2"/>
<path d="M72.5464 27.0012L91.4704 25.2281C93.6163 41.5022 108.808 66.9064 91.534 68.5248C70.8769 70.4603 68.1804 45.1374 72.5464 27.0012Z" fill="#1B1B1B"/>
<path d="M90.0051 18.9233L73.0559 21.5399C72.416 15.5669 72.486 2.56648 83.8433 1.50235C94.5596 0.498285 90.5827 12.3105 90.0051 18.9233Z" fill="#1B1B1B"/>
<path d="M72.5464 27.0012L91.4704 25.2281C93.6163 41.5022 108.808 66.9064 91.534 68.5248C70.8769 70.4603 68.1804 45.1374 72.5464 27.0012Z" stroke="#1B1B1B" stroke-width="2"/>
<path d="M90.0051 18.9233L73.0559 21.5399C72.416 15.5669 72.486 2.56648 83.8433 1.50235C94.5596 0.498285 90.5827 12.3105 90.0051 18.9233Z" stroke="#1B1B1B" stroke-width="2"/>
<path d="M70.8643 510.341L87.8357 518.898C81.0025 533.823 80.3657 563.416 64.8744 555.605C46.3487 546.264 57.5256 523.381 70.8643 510.341Z" fill="#1B1B1B"/>
<path d="M89.946 512.779L74.1989 505.986C76.8319 500.586 83.8019 489.612 93.9873 494.748C103.598 499.594 93.9504 507.485 89.946 512.779Z" fill="#1B1B1B"/>
<path d="M70.8643 510.341L87.8357 518.898C81.0025 533.823 80.3657 563.416 64.8744 555.605C46.3487 546.264 57.5256 523.381 70.8643 510.341Z" stroke="#1B1B1B" stroke-width="2"/>
<path d="M89.946 512.779L74.1989 505.986C76.8319 500.586 83.8019 489.612 93.9873 494.748C103.598 499.594 93.9504 507.485 89.946 512.779Z" stroke="#1B1B1B" stroke-width="2"/>
<path d="M22.0477 633.66L38.7048 642.814C31.3463 657.488 29.6598 687.039 14.4555 678.683C-3.72713 668.69 8.25467 646.219 22.0477 633.66Z" fill="#1B1B1B"/>
<path d="M41.0309 636.774L25.5348 629.426C28.3577 624.123 35.7127 613.403 45.7095 618.897C55.142 624.081 45.2206 631.625 41.0309 636.774Z" fill="#1B1B1B"/>
<path d="M22.0477 633.66L38.7048 642.814C31.3463 657.488 29.6598 687.039 14.4555 678.683C-3.72713 668.69 8.25467 646.219 22.0477 633.66Z" stroke="#1B1B1B" stroke-width="2"/>
<path d="M41.0309 636.774L25.5348 629.426C28.3577 624.123 35.7127 613.403 45.7095 618.897C55.142 624.081 45.2206 631.625 41.0309 636.774Z" stroke="#1B1B1B" stroke-width="2"/>
</svg>
