<svg width="629" height="312" viewBox="0 0 629 312" fill="none" xmlns="http://www.w3.org/2000/svg">
<path d="M31.5002 197C84.5311 157.846 201.708 77.1999 253.179 58.6707C267.119 62.4471 294.6 75 293 95C291.4 115 263.447 161.833 249.67 182.75C205.218 238.999 150.237 181.096 113.973 215.838C84.9623 243.632 52.7535 260.507 40.2755 265.47C-3.00661 277.051 12.5 208 31.5002 197Z" fill="#B4ACA3" stroke="#1B1B1B" stroke-width="3"/>
<path d="M515.965 225.747C507.598 180.643 527.973 143.94 539.206 131.227C545.404 122.383 565.005 107.017 593.825 116.303C629.849 127.911 631.011 169.367 622.876 190.924C617.066 206.321 599.635 200.873 577.555 210.822C559.892 218.782 570.196 278.257 577.555 307C565.935 297.051 562.449 278.81 550.828 255.595C541.531 237.023 523.712 227.958 515.965 225.747Z" fill="#B4ACA3" stroke="#1B1B1B" stroke-width="3"/>
<path d="M255.872 183.077C136.54 154.944 97.933 166.529 58.1569 183.077C52.3063 185.511 33.4182 194.142 26.5682 202.308C38.7353 142.231 15.259 98.261 2 83.7859C50.6685 -11.534 146.29 -4.47324 188.016 10.9721C237.153 33.037 358.59 66.9066 451.247 25.8662C543.905 -15.1743 585.008 19.7983 593.977 42.4147C587.347 53.9987 579.002 82.4623 598.657 103.644C623.225 130.122 627.763 149.981 626.734 166.529C621.727 124.551 552.31 125.19 506.233 154.945C452.417 189.697 375.203 211.21 255.872 183.077Z" fill="#D3CDC4"/>
<path d="M15 256.5C9.96003 244.954 11.5 218 26.5682 202.308M623.225 191.352C626.421 181.833 627.576 173.58 626.734 166.529M26.5682 202.308C33.4182 194.142 52.3063 185.511 58.1569 183.077C97.933 166.529 136.54 154.944 255.872 183.077C375.203 211.21 452.417 189.697 506.233 154.945C552.31 125.19 621.727 124.551 626.734 166.529M26.5682 202.308C38.7353 142.231 15.259 98.261 2 83.7859C50.6685 -11.534 146.29 -4.47324 188.016 10.9721C237.153 33.037 358.59 66.9066 451.247 25.8662C543.905 -15.1743 585.008 19.7983 593.977 42.4147C587.347 53.9987 579.002 82.4623 598.657 103.644C623.225 130.122 627.763 149.981 626.734 166.529" stroke="#1B1B1B" stroke-width="3"/>
</svg>
