<svg width="626" height="308" viewBox="0 0 626 308" fill="none" xmlns="http://www.w3.org/2000/svg">
<path d="M435.999 209C447.199 209 490.333 162.5 514.499 130.5C530.666 127.167 563.2 124.8 564 142C564.8 159.2 547.874 194.5 534.874 218.5C493 221 424.799 209 435.999 209Z" fill="#B4ACA3" stroke="#1B1B1B" stroke-width="3" stroke-linecap="round"/>
<path d="M47.5712 307.204C48.8466 301.993 50.6803 295.766 53.0505 289.098C59.1235 265.798 63.9115 234.126 54.5765 217.842C39.3983 191.365 9.04176 207.913 3.20397 174.816C0.0904779 162.129 1.10236 135.762 30.0578 131.79C59.0133 127.819 91.9384 124.619 104.782 123.516C124.397 163.232 116.068 207.361 109.452 224.462C82.3082 225.53 62.9755 261.177 53.0505 289.098C51.2239 296.106 49.281 302.357 47.5712 307.204Z" fill="#B4ACA3"/>
<path d="M47.5712 307.204C54.1874 280.174 75.8261 225.785 109.452 224.462C116.068 207.361 124.397 163.232 104.782 123.516C91.9384 124.619 59.0133 127.819 30.0578 131.79C1.10236 135.762 0.0904779 162.129 3.20397 174.816C9.04176 207.913 39.3983 191.365 54.5765 217.842C66.7192 239.024 54.9657 286.242 47.5712 307.204Z" stroke="#1B1B1B" stroke-width="3"/>
<path d="M135.393 158.359C117.86 150.114 113.184 143.81 64.0899 133.625C33.0762 127.192 16.5583 133.048 8.54209 143.159C7.23656 145.478 5.88146 147.835 4.47517 150.231C5.47398 147.729 6.80944 145.345 8.54209 143.159C44.5665 79.1709 42.8449 44.3142 37.2044 34.6917C63.3879 -12.7963 128.38 1.71391 157.603 14.905C251.116 59.7549 396.061 28.0961 456.845 6.66051C553.164 -13.1262 608.414 51.1806 624 85.8073C602.492 102.956 598.673 166.603 600.622 201.23C532.825 108.892 414.764 173.199 315.406 191.336C235.92 205.847 162.278 175.397 135.393 158.359Z" fill="#D3CDC4"/>
<path d="M4.47517 179.794C1.78018 171.297 0.620275 159.887 4.47517 150.231M4.47517 150.231C10.095 136.154 26.3728 125.801 64.0899 133.625C113.184 143.81 117.86 150.114 135.393 158.359C162.278 175.397 235.92 205.847 315.406 191.336C414.764 173.199 532.825 108.892 600.622 201.23C598.673 166.603 602.492 102.956 624 85.8073C608.414 51.1806 553.164 -13.1262 456.845 6.66051C396.061 28.0961 251.116 59.7549 157.603 14.905C128.38 1.71391 63.3879 -12.7963 37.2044 34.6917C43.0493 44.6629 44.6861 81.7304 4.47517 150.231Z" stroke="#1B1B1B" stroke-width="3"/>
</svg>
