<svg width="275" height="98" viewBox="0 0 275 98" fill="none" xmlns="http://www.w3.org/2000/svg">
<path d="M110.196 82.8765C59.0743 68.5594 42.1589 72.8572 24.6477 79.2761C22.072 80.2203 13.7425 83.602 10.6302 87.0023C16.9862 61.2902 7.62713 41.8824 2.15307 35.3924C24.943 -4.86807 66.1888 -0.0789255 83.9629 7.34821C104.823 17.7677 156.752 34.5996 197.589 18.5709C238.426 2.54224 255.576 18.3874 259.046 28.3135C255.967 33.1933 251.839 45.3282 259.958 54.8298C270.108 66.7069 271.711 75.362 270.965 82.4866C269.561 64.2747 239.513 63.2866 219.036 75.2917C195.119 89.3131 161.318 97.1935 110.196 82.8765Z" fill="#D3CDC4" stroke="#1B1B1B" stroke-width="3"/>
<path d="M62.3727 28.1503L62.3727 52.128C62.3727 53.1937 62.5621 53.9871 62.941 54.508C63.3436 55.0054 64.0541 55.254 65.0724 55.254L65.0724 56C64.3382 55.929 63.6041 55.8934 62.87 55.8934C62.1832 55.8934 61.5201 55.929 60.8807 56C60.265 56.071 59.6966 56.2013 59.1756 56.3907L59.1756 32.413C59.1756 31.3473 58.9862 30.5658 58.6073 30.0685C58.2283 29.5475 57.5179 29.287 56.4759 29.287L56.4759 28.541C57.2337 28.6121 57.9679 28.6476 58.6783 28.6476C59.3651 28.6476 60.0163 28.6121 60.632 28.541C61.2715 28.4463 61.8517 28.3161 62.3727 28.1503ZM54.9129 37.2085C55.9549 37.2085 56.9259 37.4572 57.8258 37.9545C58.7493 38.4518 59.3651 39.3044 59.6729 40.5121L59.2111 40.8674C58.8796 39.8727 58.3586 39.1504 57.6481 38.7005C56.9614 38.2505 56.1444 38.0256 55.1971 38.0256C53.7999 38.0256 52.6276 38.7479 51.6804 40.1924C50.7568 41.637 50.3068 43.8631 50.3305 46.8707C50.3305 48.7889 50.5081 50.3874 50.8633 51.6662C51.2422 52.9214 51.7869 53.8686 52.4974 54.5081C53.2315 55.1238 54.1196 55.4316 55.1616 55.4316C56.1562 55.4316 57.0561 55.0054 57.8613 54.1528C58.6665 53.3003 59.1519 52.0451 59.3177 50.3874L59.744 50.8847C59.5545 52.6846 58.9743 54.0699 58.0034 55.0409C57.0561 56.0118 55.7655 56.4973 54.1314 56.4973C52.6631 56.4973 51.3725 56.1421 50.2594 55.4316C49.1701 54.7212 48.3294 53.6555 47.7373 52.2346C47.169 50.8137 46.8848 49.0257 46.8848 46.8707C46.8848 44.7157 47.2519 42.9277 47.986 41.5068C48.7438 40.0622 49.7266 38.9847 50.9344 38.2742C52.1658 37.5638 53.492 37.2085 54.9129 37.2085ZM65.4986 33.6918L65.4986 34.4023L52.9236 34.4023L52.9236 33.6918L65.4986 33.6918Z" fill="#2F2F2F"/>
<path d="M106.373 40.1503L106.373 64.128C106.373 65.1937 106.562 65.9871 106.941 66.508C107.344 67.0054 108.054 67.254 109.072 67.254L109.072 68C108.338 67.929 107.604 67.8934 106.87 67.8934C106.183 67.8934 105.52 67.929 104.881 68C104.265 68.071 103.697 68.2013 103.176 68.3907L103.176 44.413C103.176 43.3473 102.986 42.5658 102.607 42.0685C102.228 41.5475 101.518 41.287 100.476 41.287L100.476 40.541C101.234 40.6121 101.968 40.6476 102.678 40.6476C103.365 40.6476 104.016 40.6121 104.632 40.541C105.271 40.4463 105.852 40.3161 106.373 40.1503ZM98.9129 49.2085C99.9549 49.2085 100.926 49.4572 101.826 49.9545C102.749 50.4518 103.365 51.3044 103.673 52.5121L103.211 52.8674C102.88 51.8727 102.359 51.1504 101.648 50.7005C100.961 50.2505 100.144 50.0256 99.1971 50.0256C97.7999 50.0256 96.6276 50.7479 95.6804 52.1924C94.7568 53.637 94.3068 55.8631 94.3305 58.8707C94.3305 60.7889 94.5081 62.3874 94.8633 63.6662C95.2422 64.9214 95.7869 65.8686 96.4974 66.5081C97.2315 67.1238 98.1196 67.4316 99.1616 67.4316C100.156 67.4316 101.056 67.0054 101.861 66.1528C102.666 65.3003 103.152 64.0451 103.318 62.3874L103.744 62.8847C103.555 64.6846 102.974 66.0699 102.003 67.0409C101.056 68.0118 99.7655 68.4973 98.1314 68.4973C96.6631 68.4973 95.3725 68.1421 94.2594 67.4316C93.1701 66.7212 92.3294 65.6555 91.7373 64.2346C91.169 62.8137 90.8848 61.0257 90.8848 58.8707C90.8848 56.7157 91.2519 54.9277 91.986 53.5068C92.7438 52.0622 93.7266 50.9847 94.9344 50.2742C96.1658 49.5638 97.492 49.2085 98.9129 49.2085ZM111.168 40.1503C111.216 40.2687 111.251 40.4937 111.275 40.8252C111.322 41.1331 111.346 41.3936 111.346 41.6067C111.346 42.2935 111.133 43.146 110.706 44.1643C110.28 45.1827 109.7 46.4615 108.966 48.0008L108.468 47.8587C108.753 46.2483 108.942 45.0642 109.037 44.3064C109.132 43.5486 109.179 43.0158 109.179 42.7079C109.179 42.2343 109.132 41.879 109.037 41.6422C108.966 41.4054 108.776 41.287 108.468 41.287L108.468 40.541C109.108 40.5884 109.629 40.5647 110.031 40.47C110.458 40.3753 110.837 40.2687 111.168 40.1503Z" fill="#2F2F2F"/>
<path d="M142.902 43.2213C144.607 43.8844 146.229 44.7133 147.769 45.7079C149.308 46.6789 150.67 47.8511 151.854 49.2246C153.062 50.5745 153.997 52.1612 154.66 53.9847C155.347 55.8082 155.69 57.904 155.69 60.2722C155.69 62.8061 155.3 64.9138 154.518 66.5952C153.76 68.2529 152.766 69.4844 151.534 70.2895C150.303 71.0947 148.988 71.4973 147.591 71.4973C146.052 71.4973 144.678 71.1421 143.47 70.4316C142.263 69.7212 141.315 68.6555 140.629 67.2346C139.966 65.8137 139.634 64.0494 139.634 61.9417C139.634 60.7577 139.8 59.5972 140.131 58.4605C140.463 57.3001 140.948 56.2581 141.588 55.3345C142.227 54.3873 143.032 53.6295 144.003 53.0611C144.974 52.4927 146.099 52.2085 147.378 52.2085C149.178 52.2085 150.528 52.7414 151.428 53.8071C152.351 54.8491 152.896 56.4831 153.062 58.7092L152.316 58.8513C152.221 57.1462 151.913 55.8792 151.392 55.0504C150.895 54.1978 150.303 53.6413 149.616 53.3808C148.953 53.0966 148.29 52.9545 147.627 52.9545C146.798 52.9545 146.028 53.2387 145.318 53.8071C144.631 54.3754 144.086 55.3227 143.684 56.6489C143.281 57.975 143.08 59.763 143.08 62.0128C143.08 64.1441 143.281 65.8492 143.684 67.128C144.086 68.4069 144.619 69.3423 145.282 69.9343C145.945 70.5027 146.656 70.7869 147.413 70.7869C148.242 70.7869 149.024 70.479 149.758 69.8633C150.516 69.2476 151.132 68.1819 151.605 66.6662C152.079 65.1269 152.316 62.9956 152.316 60.2722C152.316 57.5488 152.043 55.2635 151.499 53.4163C150.954 51.5691 150.22 50.0417 149.296 48.8339C148.373 47.6261 147.331 46.6315 146.17 45.85C145.01 45.0685 143.826 44.3936 142.618 43.8252L142.902 43.2213ZM147.911 46.3828L148.515 46.8802L141.446 50.3258L141.126 49.6864L147.911 46.3828ZM153.452 43.6831L153.772 44.3225L148.515 46.8802L147.911 46.3828L153.452 43.6831Z" fill="#2F2F2F"/>
<path d="M198.627 44.7414L198.627 45.4874C197.656 45.4874 196.958 45.665 196.531 46.0202C196.129 46.3754 195.928 47.0504 195.928 48.045L195.928 59.6964C195.928 60.691 196.117 61.366 196.496 61.7212C196.899 62.0764 197.739 62.254 199.018 62.254C198.923 63.0829 198.852 63.8762 198.805 64.634C198.781 65.3919 198.769 65.9721 198.769 66.3746C198.769 66.8009 198.781 67.2035 198.805 67.5824C198.829 67.985 198.852 68.3165 198.876 68.577L198.059 68.577C197.941 67.1798 197.775 66.0549 197.562 65.2024C197.372 64.3735 197.029 63.7697 196.531 63.3907C196.058 63.0355 195.336 62.8579 194.365 62.8579C193.796 62.8579 193.263 62.8697 192.766 62.8934C192.269 62.8934 191.724 62.9053 191.132 62.929C190.564 62.9526 189.877 62.9763 189.072 63C188.267 63 187.272 63 186.088 63C185.117 63 184.383 63.1658 183.885 63.4973C183.412 63.8525 183.068 64.4327 182.855 65.2379C182.666 66.0668 182.512 67.1798 182.393 68.577L181.576 68.577C181.624 68.3165 181.648 67.985 181.648 67.5824C181.671 67.2035 181.683 66.8009 181.683 66.3746C181.683 65.9721 181.659 65.3919 181.612 64.634C181.588 63.8762 181.529 63.0829 181.434 62.254L190.386 62.254C191.239 62.254 191.843 62.0764 192.198 61.7212C192.553 61.366 192.731 60.691 192.731 59.6964L192.731 48.045C192.731 47.0504 192.553 46.3754 192.198 46.0202C191.843 45.665 191.239 45.4874 190.386 45.4874L190.066 45.4874C189.214 45.4874 188.634 45.665 188.326 46.0202C188.018 46.3754 187.817 47.0504 187.722 48.045C187.627 49.3238 187.497 50.6737 187.331 52.0946C187.189 53.4918 186.988 54.8535 186.727 56.1797C186.467 57.5058 186.112 58.7018 185.662 59.7674C185.401 60.4069 185.058 61.0226 184.631 61.6146C184.205 62.183 183.613 62.5382 182.855 62.6803L182.109 62.254C182.867 62.254 183.495 61.9817 183.992 61.437C184.489 60.8686 184.856 60.2529 185.093 59.5898C185.496 58.5478 185.816 57.3993 186.052 56.1441C186.313 54.889 186.526 53.5747 186.692 52.2011C186.858 50.8276 186.988 49.4422 187.082 48.045C187.154 47.0504 186.94 46.3754 186.443 46.0202C185.969 45.665 185.247 45.4874 184.276 45.4874L184.276 44.7414C184.466 44.7651 184.762 44.8006 185.164 44.848C185.591 44.8716 186.1 44.8835 186.692 44.8835C187.284 44.8835 187.888 44.8598 188.503 44.8124C189.143 44.7651 189.794 44.7414 190.457 44.7414C191.12 44.7414 191.724 44.7651 192.269 44.8124C192.837 44.8598 193.524 44.8835 194.329 44.8835C195.158 44.8835 195.975 44.8716 196.78 44.848C197.609 44.8006 198.225 44.7651 198.627 44.7414Z" fill="#2F2F2F"/>
</svg>
