<svg width="627" height="993" viewBox="0 0 627 993" fill="none" xmlns="http://www.w3.org/2000/svg">
<path d="M315.793 494.01L313.704 491.857L313.704 491.857L315.793 494.01ZM264.932 580.525L262 579.892L261.998 579.902L264.932 580.525ZM316.495 729.126L315.031 731.744L315.065 731.763L315.1 731.782L316.495 729.126ZM384.098 740.98L384.324 743.972L384.346 743.97L384.367 743.968L384.098 740.98ZM583.745 651.708L581.656 649.556L581.647 649.564L583.745 651.708ZM634.046 565.409L631.114 564.776L631.11 564.791L631.107 564.806L634.046 565.409ZM582.699 417.368L581.234 419.986L581.269 420.005L581.304 420.024L582.699 417.368ZM515.656 405.298L515.869 408.29L515.897 408.288L515.926 408.285L515.656 405.298ZM302.187 760.374L301.762 763.344L301.773 763.345L301.784 763.347L302.187 760.374ZM207.218 625.952L210.169 626.49L210.171 626.478L210.173 626.466L207.218 625.952ZM240.127 549.581L242.603 551.275L242.603 551.275L240.127 549.581ZM312.886 476.481L311.099 474.071L311.093 474.076L312.886 476.481ZM597.567 385.904L597.142 388.874L597.154 388.876L597.165 388.877L597.567 385.904ZM692.536 520.326L695.488 520.863L695.49 520.851L695.492 520.839L692.536 520.326ZM659.411 596.137L656.935 594.443L656.935 594.443L659.411 596.137ZM586.092 669.454L584.305 667.044L584.298 667.049L586.092 669.454ZM257.963 439.153L257.349 442.089L259.889 442.62L260.78 440.183L257.963 439.153ZM236.456 430.088L234.592 432.438L234.675 432.504L234.762 432.564L236.456 430.088ZM225.577 371.903L228.082 373.553L228.088 373.545L228.093 373.536L225.577 371.903ZM307.684 336.355L307.543 339.352L307.58 339.354L307.618 339.355L307.684 336.355ZM351.974 341.129L351.406 344.075L351.44 344.081L351.474 344.087L351.974 341.129ZM395.703 346.118L395.528 349.113L395.582 349.116L395.636 349.118L395.703 346.118ZM512.634 287.484L514.642 289.712L515.362 289.064L515.566 288.117L512.634 287.484ZM524.998 251.198L522.363 249.766L522.363 249.766L524.998 251.198ZM543.726 241.398L542.709 244.221L542.736 244.231L542.764 244.24L543.726 241.398ZM548.999 256.728L546.119 255.886L546.119 255.886L548.999 256.728ZM520.048 291.697L518.049 289.46L517.794 289.688L517.597 289.967L520.048 291.697ZM482.308 362.215L479.488 361.19L479.482 361.207L479.476 361.224L482.308 362.215ZM467.487 435.464L464.494 435.263L464.493 435.284L464.492 435.305L467.487 435.464ZM470.471 519.85L467.488 520.172L467.489 520.173L470.471 519.85ZM491.807 716.776L488.824 717.099L488.825 717.104L491.807 716.776ZM491.383 797.331L488.408 796.943L488.404 796.974L488.401 797.005L491.383 797.331ZM468.373 866.023L470.911 867.623L470.911 867.623L468.373 866.023ZM384.517 917.038L384.211 914.053L384.147 914.06L384.084 914.069L384.517 917.038ZM360.477 914.739L361.59 911.953L361.534 911.931L361.478 911.911L360.477 914.739ZM345.383 900.627L342.636 901.833L342.641 901.843L342.645 901.853L345.383 900.627ZM344.922 874.437L342.113 873.385L342.099 873.422L342.086 873.46L344.922 874.437ZM382.033 855.612L380.818 858.355L380.818 858.355L382.033 855.612ZM395.575 869.037L398.31 867.803L398.306 867.794L395.575 869.037ZM396.115 888.765L393.326 887.661L393.305 887.712L393.287 887.764L396.115 888.765ZM384.635 907.345L382.466 905.273L376.944 911.052L384.904 910.333L384.635 907.345ZM393.679 905.784L393.232 902.817L393.092 902.839L392.954 902.873L393.679 905.784ZM437.881 872.003L435.138 870.788L435.127 870.813L435.116 870.838L437.881 872.003ZM447.427 820.084L444.427 820.07L444.427 820.081L444.427 820.091L447.427 820.084ZM442.744 756.291L439.767 756.66L439.77 756.686L439.773 756.711L442.744 756.291ZM434.781 687.333L431.798 687.652L431.798 687.653L434.781 687.333ZM421.978 567.507L424.961 567.188L424.959 567.174L421.978 567.507ZM419.298 485.576L422.291 485.793L422.291 485.783L422.292 485.772L419.298 485.576ZM432.233 420.773L429.415 419.743L429.413 419.748L432.233 420.773ZM462.706 361.42L460.207 359.76L460.207 359.76L462.706 361.42ZM511.18 297.049L513.491 298.962L508.963 295.029L511.18 297.049ZM476.671 330.948L478.618 333.23L478.635 333.216L478.652 333.201L476.671 330.948ZM440.346 358.473L441.94 361.014L441.974 360.993L442.007 360.971L440.346 358.473ZM356.765 386.872L356.818 383.872L356.818 383.872L356.765 386.872ZM318.378 382.393L317.697 385.315L317.697 385.315L318.378 382.393ZM285.588 375.754L285.094 378.713L285.094 378.713L285.588 375.754ZM240.719 391.141L238.098 389.683L238.066 389.739L238.037 389.797L240.719 391.141ZM248.722 420.209L246.782 422.498L246.829 422.538L246.878 422.576L248.722 420.209ZM262.343 427.172L265.16 428.202L266.225 425.29L263.279 424.322L262.343 427.172ZM428.187 423.62C379.43 442.438 341.217 465.154 313.704 491.857L317.882 496.163C344.643 470.19 382.079 447.847 430.347 429.218L428.187 423.62ZM313.704 491.857C286.219 518.531 268.916 547.876 262 579.892L267.865 581.159C274.489 550.495 291.092 522.163 317.882 496.163L313.704 491.857ZM261.998 579.902C255.321 611.365 258.55 643.975 271.549 677.657L277.147 675.497C264.51 642.754 261.462 611.33 267.867 581.148L261.998 579.902ZM271.549 677.657C281.244 702.778 295.692 720.924 315.031 731.744L317.96 726.508C300.113 716.522 286.463 699.635 277.147 675.497L271.549 677.657ZM315.1 731.782C334.527 741.986 357.65 745.987 384.324 743.972L383.872 737.989C358.053 739.94 336.108 736.039 317.89 726.47L315.1 731.782ZM384.367 743.968C410.813 741.581 439.814 734.269 471.351 722.098L469.191 716.5C438.035 728.524 409.587 735.667 383.828 737.993L384.367 743.968ZM471.351 722.098C520.475 703.139 558.696 680.421 585.843 653.852L581.647 649.564C555.266 675.383 517.837 697.725 469.191 716.5L471.351 722.098ZM585.834 653.861C613.321 627.185 630.446 597.901 636.985 566.012L631.107 564.806C624.853 595.308 608.443 623.558 581.656 649.556L585.834 653.861ZM636.978 566.043C643.884 534.075 640.852 501.39 627.989 468.061L622.391 470.221C634.876 502.57 637.748 534.064 631.114 564.776L636.978 566.043ZM627.989 468.061C618.287 442.924 603.704 425.012 584.094 414.712L581.304 420.024C599.337 429.496 613.082 446.1 622.391 470.221L627.989 468.061ZM584.164 414.75C564.933 403.989 541.951 399.912 515.386 402.31L515.926 408.285C541.566 405.971 563.279 409.94 581.234 419.986L584.164 414.75ZM515.443 402.305C489.197 404.171 460.103 411.303 428.187 423.62L430.347 429.218C461.87 417.052 490.369 410.103 515.869 408.29L515.443 402.305ZM470.84 727.44C403.142 753.568 347.114 763.426 302.589 757.401L301.784 763.347C347.737 769.565 404.864 759.334 473.001 733.038L470.84 727.44ZM302.612 757.404C258.115 751.035 229.255 729.712 215.308 693.575L209.711 695.735C224.568 734.232 255.493 756.721 301.762 763.344L302.612 757.404ZM215.308 693.575C207.467 673.257 205.717 650.924 210.169 626.49L204.266 625.415C199.643 650.789 201.422 674.258 209.711 695.735L215.308 693.575ZM210.173 626.466C214.479 601.692 225.249 576.631 242.603 551.275L237.651 547.887C219.913 573.805 208.743 599.659 204.262 625.439L210.173 626.466ZM242.603 551.275C259.923 525.968 283.923 501.83 314.68 478.885L311.093 474.076C279.929 497.324 255.423 521.92 237.651 547.887L242.603 551.275ZM314.674 478.89C345.745 455.844 383.738 435.63 428.698 418.278L426.537 412.681C381.189 430.182 342.695 450.636 311.099 474.071L314.674 478.89ZM428.698 418.278C496.39 392.153 552.483 382.482 597.142 388.874L597.992 382.934C551.887 376.336 494.679 386.382 426.537 412.681L428.698 418.278ZM597.165 388.877C641.505 394.878 670.284 416.01 684.23 452.143L689.827 449.983C674.968 411.482 644.107 389.175 597.97 382.931L597.165 388.877ZM684.23 452.143C692.072 472.464 693.895 494.991 689.581 519.812L695.492 520.839C699.965 495.106 698.115 471.458 689.827 449.983L684.23 452.143ZM689.585 519.788C685.138 544.194 674.296 569.076 656.935 594.443L661.887 597.832C679.618 571.924 690.86 546.265 695.488 520.863L689.585 519.788ZM656.935 594.443C639.619 619.745 615.436 643.953 584.305 667.044L587.879 671.863C619.415 648.473 644.111 623.804 661.887 597.832L656.935 594.443ZM584.298 667.049C553.603 689.947 515.801 710.088 470.84 727.44L473.001 733.038C518.348 715.536 556.659 695.153 587.886 671.858L584.298 667.049ZM258.576 436.216C251.018 434.637 244.22 431.766 238.151 427.613L234.762 432.564C241.512 437.183 249.051 440.355 257.349 442.089L258.576 436.216ZM238.321 427.738C232.607 423.204 228.231 417.108 225.232 409.338L219.635 411.498C222.973 420.148 227.946 427.165 234.592 432.438L238.321 427.738ZM225.232 409.338C220.066 395.951 221.108 384.146 228.082 373.553L223.071 370.253C214.908 382.652 213.855 396.524 219.635 411.498L225.232 409.338ZM228.093 373.536C235.467 362.176 247.186 353.273 263.542 346.96L261.382 341.363C244.152 348.012 231.281 357.604 223.06 370.27L228.093 373.536ZM263.542 346.96C278.494 341.19 293.153 338.673 307.543 339.352L307.826 333.359C292.52 332.636 277.031 335.323 261.382 341.363L263.542 346.96ZM307.618 339.355C322.149 339.678 336.745 341.251 351.406 344.075L352.541 338.183C337.558 335.297 322.628 333.688 307.751 333.356L307.618 339.355ZM351.474 344.087C366.256 346.586 380.941 348.262 395.528 349.113L395.878 343.124C381.515 342.285 367.047 340.635 352.474 338.171L351.474 344.087ZM395.636 349.118C410.756 349.455 425.773 346.733 440.67 340.983L438.51 335.386C424.299 340.87 410.059 343.438 395.77 343.119L395.636 349.118ZM440.67 340.983C453.66 335.97 466.547 328.582 479.332 318.861L475.7 314.085C463.293 323.519 450.895 330.606 438.51 335.386L440.67 340.983ZM479.332 318.861C491.989 309.237 503.76 299.521 514.642 289.712L510.625 285.256C499.877 294.943 488.236 304.553 475.7 314.085L479.332 318.861ZM515.566 288.117C518.759 273.314 522.802 261.518 527.634 252.631L522.363 249.766C517.164 259.327 512.965 271.722 509.701 286.852L515.566 288.117ZM527.634 252.631C529.988 248.301 532.438 245.741 534.832 244.488C537.111 243.296 539.653 243.12 542.709 244.221L544.742 238.576C540.328 236.986 536.014 237.098 532.05 239.172C528.202 241.186 525.023 244.872 522.363 249.766L527.634 252.631ZM542.764 244.24C544.998 244.996 546.119 246.177 546.646 247.709C547.236 249.424 547.241 252.052 546.119 255.886L551.878 257.57C553.16 253.187 553.487 249.152 552.32 245.757C551.089 242.179 548.371 239.804 544.688 238.557L542.764 244.24ZM546.119 255.886C545.089 259.409 542.382 264.001 537.648 269.719C532.953 275.39 526.435 281.968 518.049 289.46L522.047 293.934C530.558 286.33 537.314 279.531 542.27 273.545C547.186 267.607 550.506 262.263 551.878 257.57L546.119 255.886ZM517.597 289.967C500.837 313.72 488.123 337.46 479.488 361.19L485.127 363.241C493.554 340.083 506 316.811 522.499 293.427L517.597 289.967ZM479.476 361.224C471.226 384.788 466.234 409.471 464.494 435.263L470.481 435.666C472.185 410.393 477.074 386.243 485.139 363.207L479.476 361.224ZM464.492 435.305C463.132 460.885 464.137 489.178 467.488 520.172L473.454 519.527C470.129 488.785 469.144 460.821 470.483 435.624L464.492 435.305ZM467.489 520.173L488.824 717.099L494.789 716.452L473.454 519.527L467.489 520.173ZM488.825 717.104C491.877 744.853 491.734 771.464 488.408 796.943L494.358 797.719C497.75 771.727 497.889 744.634 494.789 716.448L488.825 717.104ZM488.401 797.005C485.603 822.569 478.064 845.021 465.835 864.424L470.911 867.623C483.678 847.365 491.479 824.022 494.365 797.657L488.401 797.005ZM465.835 864.424C453.729 883.631 435.531 897.992 411.041 907.444L413.202 913.041C438.716 903.194 458.02 888.075 470.911 867.623L465.835 864.424ZM411.041 907.444C401.937 910.958 392.995 913.154 384.211 914.053L384.822 920.022C394.186 919.063 403.647 916.729 413.202 913.041L411.041 907.444ZM384.084 914.069C375.581 915.309 368.114 914.56 361.59 911.953L359.364 917.525C367.033 920.589 375.592 921.371 384.95 920.006L384.084 914.069ZM361.478 911.911C355.326 909.733 350.908 905.626 348.121 899.402L342.645 901.853C346.078 909.522 351.722 914.822 359.475 917.567L361.478 911.911ZM348.13 899.421C344.931 892.135 344.736 884.193 347.759 875.413L342.086 873.46C338.64 883.47 338.752 892.988 342.636 901.833L348.13 899.421ZM347.732 875.489C350.811 867.267 356.351 861.665 364.504 858.519L362.344 852.921C352.585 856.687 345.79 863.564 342.113 873.385L347.732 875.489ZM364.504 858.519C370.605 856.164 375.971 856.208 380.818 858.355L383.248 852.869C376.717 849.975 369.677 850.091 362.344 852.921L364.504 858.519ZM380.818 858.355C386.35 860.806 390.326 864.746 392.845 870.279L398.306 867.794C395.181 860.928 390.129 855.918 383.248 852.869L380.818 858.355ZM392.841 870.27C395.479 876.119 395.626 881.852 393.326 887.661L398.904 889.87C401.815 882.52 401.602 875.1 398.31 867.803L392.841 870.27ZM393.287 887.764C390.969 894.31 387.37 900.139 382.466 905.273L386.804 909.418C392.283 903.683 396.337 897.127 398.943 889.767L393.287 887.764ZM384.904 910.333C387.973 910.056 391.141 909.507 394.404 908.695L392.954 902.873C389.959 903.618 387.096 904.111 384.365 904.357L384.904 910.333ZM394.126 908.75C398.007 908.165 401.908 907.11 405.827 905.598L403.666 900C400.122 901.368 396.645 902.303 393.232 902.817L394.126 908.75ZM405.827 905.598C422.545 899.145 434.251 888.339 440.645 873.168L435.116 870.838C429.425 884.342 419.041 894.066 403.666 900L405.827 905.598ZM440.623 873.218C447.25 858.263 450.48 840.519 450.427 820.076L444.427 820.091C444.478 839.912 441.344 856.781 435.138 870.788L440.623 873.218ZM450.427 820.098C450.52 800.173 448.946 778.763 445.714 755.872L439.773 756.711C442.97 779.36 444.518 800.478 444.427 820.07L450.427 820.098ZM445.721 755.922C442.882 733.025 440.23 710.056 437.764 687.014L431.798 687.653C434.268 710.727 436.924 733.73 439.767 756.66L445.721 755.922ZM437.764 687.015L424.961 567.188L418.995 567.825L431.798 687.652L437.764 687.015ZM424.959 567.174C421.491 536.058 420.611 508.939 422.291 485.793L416.306 485.359C414.593 508.971 415.5 536.472 418.996 567.839L424.959 567.174ZM422.292 485.772C423.828 462.262 428.092 440.945 435.052 421.798L429.413 419.748C422.232 439.501 417.873 461.387 416.305 485.381L422.292 485.772ZM435.051 421.803C442.262 402.079 452.307 382.504 465.206 363.079L460.207 359.76C447.075 379.537 436.805 399.531 429.415 419.743L435.051 421.803ZM465.206 363.079C478.149 343.587 494.24 322.215 513.491 298.962L508.869 295.136C489.52 318.508 473.295 340.051 460.207 359.76L465.206 363.079ZM508.963 295.029C498.196 306.848 486.772 318.07 474.69 328.695L478.652 333.201C490.899 322.431 502.481 311.053 513.398 299.069L508.963 295.029ZM474.724 328.665C462.874 338.773 450.861 347.875 438.684 355.975L442.007 360.971C454.395 352.731 466.598 343.483 478.618 333.23L474.724 328.665ZM438.751 355.932C426.47 363.638 414.271 369.823 402.154 374.499L404.315 380.097C416.827 375.268 429.369 368.902 441.94 361.014L438.751 355.932ZM402.154 374.499C385.236 381.028 370.139 384.106 356.818 383.872L356.712 389.871C371.018 390.122 386.901 386.817 404.315 380.097L402.154 374.499ZM356.818 383.872C343.186 383.633 330.603 382.16 319.058 379.471L317.697 385.315C329.708 388.112 342.716 389.626 356.712 389.871L356.818 383.872ZM319.058 379.471C307.23 376.716 296.237 374.49 286.082 372.795L285.094 378.713C295.104 380.383 305.971 382.583 317.697 385.315L319.058 379.471ZM286.082 372.795C275.483 371.026 265.233 372.033 255.391 375.832L257.551 381.429C266.368 378.027 275.529 377.116 285.094 378.713L286.082 372.795ZM255.391 375.832C247.46 378.893 241.563 383.454 238.098 389.683L243.341 392.6C245.951 387.908 250.555 384.129 257.551 381.429L255.391 375.832ZM238.037 389.797C234.938 395.98 234.891 402.704 237.596 409.711L243.194 407.551C241.001 401.871 241.171 396.934 243.401 392.486L238.037 389.797ZM237.596 409.711C239.513 414.679 242.594 418.947 246.782 422.498L250.662 417.921C247.204 414.99 244.733 411.54 243.194 407.551L237.596 409.711ZM246.878 422.576C250.882 425.696 255.746 428.163 261.406 430.022L263.279 424.322C258.137 422.633 253.921 420.458 250.566 417.843L246.878 422.576ZM259.525 426.142L255.145 438.123L260.78 440.183L265.16 428.202L259.525 426.142Z" fill="#1B1B1B"/>
<mask id="mask0_154_1073" style="mask-type:alpha" maskUnits="userSpaceOnUse" x="171" y="68" width="428" height="429">
<circle cx="385.205" cy="282.534" r="213.5" transform="rotate(-21.1037 385.205 282.534)" fill="#D9D9D9"/>
</mask>
<g mask="url(#mask0_154_1073)">
<path d="M429.267 426.419C380.755 445.142 342.93 467.673 315.793 494.01C288.656 520.347 271.702 549.186 264.932 580.525C258.391 611.348 261.53 643.365 274.348 676.577C283.853 701.207 297.903 718.723 316.495 729.126C335.317 739.012 357.851 742.964 384.098 740.981C410.2 738.624 438.924 731.397 470.271 719.299C519.156 700.432 556.981 677.902 583.745 651.709C610.882 625.371 627.649 596.605 634.046 565.409C640.816 534.07 637.864 501.98 625.19 469.141C615.684 444.512 601.521 427.254 582.699 417.368C564.106 406.965 541.758 402.941 515.656 405.298C489.783 407.137 460.987 414.177 429.267 426.419ZM471.92 730.239C404.003 756.451 347.425 766.496 302.187 760.374C256.804 753.879 226.912 731.972 212.509 694.655C204.444 673.757 202.68 650.857 207.218 625.953C211.611 600.675 222.581 575.218 240.127 549.581C257.673 523.944 281.926 499.577 312.886 476.481C344.22 453.24 382.464 432.906 427.618 415.48C495.535 389.267 552.185 379.409 597.567 385.904C642.806 392.026 672.626 413.746 687.028 451.063C695.094 471.961 696.93 495.048 692.536 520.326C687.999 545.23 676.957 570.5 659.411 596.137C641.865 621.774 617.425 646.213 586.092 669.454C555.131 692.55 517.074 712.812 471.92 730.239ZM257.963 439.153C250.034 437.496 242.866 434.475 236.456 430.088C230.276 425.185 225.602 418.628 222.433 410.418C216.961 396.238 218.008 383.399 225.577 371.903C233.374 359.89 245.669 350.643 262.462 344.162C277.762 338.257 292.836 335.655 307.684 336.356C322.389 336.683 337.152 338.274 351.974 341.129C366.652 343.611 381.228 345.274 395.703 346.119C410.407 346.446 425.036 343.802 439.59 338.185C452.278 333.288 464.92 326.051 477.516 316.473C490.112 306.895 501.818 297.232 512.634 287.484C515.862 272.518 519.983 260.423 524.998 251.199C530.013 241.974 536.256 238.707 543.726 241.398C549.644 243.402 551.402 248.512 548.999 256.728C546.596 264.944 536.946 276.601 520.048 291.697C503.419 315.265 490.838 338.772 482.308 362.216C474.15 385.516 469.21 409.932 467.487 435.465C466.138 460.853 467.133 488.982 470.471 519.85L491.807 716.776C494.883 744.744 494.742 771.596 491.383 797.331C488.541 823.296 480.871 846.193 468.373 866.023C455.874 885.853 437.124 900.593 412.121 910.243C402.792 913.843 393.59 916.108 384.517 917.038C375.587 918.341 367.573 917.574 360.477 914.739C353.524 912.278 348.493 907.574 345.383 900.627C341.842 892.562 341.688 883.832 344.922 874.437C348.301 865.415 354.468 859.176 363.424 855.72C370.141 853.127 376.344 853.092 382.033 855.612C388.24 858.362 392.754 862.837 395.575 869.037C398.541 875.61 398.721 882.186 396.115 888.766C393.653 895.718 389.826 901.912 384.635 907.345C387.535 907.083 390.55 906.563 393.679 905.784C397.326 905.234 401.015 904.239 404.747 902.799C420.793 896.606 431.838 886.341 437.881 872.003C444.297 857.522 447.479 840.215 447.427 820.084C447.519 800.325 445.958 779.061 442.744 756.291C439.903 733.377 437.249 710.391 434.781 687.334L421.978 567.507C418.495 536.265 417.602 508.955 419.298 485.576C420.85 461.824 425.162 440.223 432.233 420.773C439.533 400.805 449.691 381.021 462.706 361.42C475.722 341.819 491.88 320.362 511.18 297.049C500.339 308.951 488.836 320.251 476.671 330.948C464.736 341.128 452.628 350.303 440.346 358.473C427.92 366.27 415.549 372.545 403.235 377.298C386.069 383.923 370.579 387.114 356.765 386.872C342.951 386.629 330.155 385.136 318.378 382.393C306.6 379.65 295.67 377.437 285.588 375.754C275.506 374.071 265.8 375.03 256.471 378.631C249.008 381.511 243.757 385.681 240.719 391.141C238.054 396.457 237.946 402.287 240.395 408.631C242.123 413.109 244.899 416.969 248.722 420.209C252.401 423.077 256.942 425.398 262.343 427.172L257.963 439.153Z" fill="#1B1B1B"/>
<path d="M315.793 494.01L313.704 491.857L313.704 491.857L315.793 494.01ZM264.932 580.525L262 579.892L261.998 579.902L264.932 580.525ZM316.495 729.126L315.031 731.744L315.065 731.764L315.1 731.782L316.495 729.126ZM384.098 740.981L384.324 743.972L384.346 743.97L384.367 743.968L384.098 740.981ZM583.745 651.709L581.656 649.556L581.647 649.565L583.745 651.709ZM634.046 565.409L631.114 564.776L631.11 564.791L631.107 564.807L634.046 565.409ZM582.699 417.368L581.234 419.986L581.269 420.006L581.304 420.024L582.699 417.368ZM515.656 405.298L515.869 408.29L515.897 408.288L515.926 408.286L515.656 405.298ZM302.187 760.374L301.762 763.344L301.773 763.345L301.784 763.347L302.187 760.374ZM207.218 625.953L210.169 626.49L210.171 626.478L210.173 626.466L207.218 625.953ZM240.127 549.581L242.603 551.276L242.603 551.276L240.127 549.581ZM312.886 476.481L311.099 474.071L311.093 474.076L312.886 476.481ZM597.567 385.904L597.142 388.874L597.154 388.876L597.165 388.877L597.567 385.904ZM692.536 520.326L695.488 520.863L695.49 520.851L695.492 520.839L692.536 520.326ZM659.411 596.137L656.935 594.443L656.935 594.443L659.411 596.137ZM586.092 669.454L584.305 667.044L584.298 667.049L586.092 669.454ZM257.963 439.153L257.349 442.089L259.889 442.62L260.78 440.183L257.963 439.153ZM236.456 430.088L234.592 432.438L234.675 432.504L234.762 432.564L236.456 430.088ZM225.577 371.903L228.082 373.553L228.088 373.545L228.093 373.537L225.577 371.903ZM307.684 336.356L307.543 339.352L307.58 339.354L307.618 339.355L307.684 336.356ZM351.974 341.129L351.406 344.075L351.44 344.081L351.474 344.087L351.974 341.129ZM395.703 346.119L395.528 349.113L395.582 349.117L395.636 349.118L395.703 346.119ZM512.634 287.484L514.642 289.713L515.362 289.064L515.566 288.117L512.634 287.484ZM524.998 251.199L522.363 249.766L522.363 249.766L524.998 251.199ZM543.726 241.398L542.709 244.221L542.736 244.231L542.764 244.24L543.726 241.398ZM548.999 256.728L546.119 255.886L546.119 255.886L548.999 256.728ZM520.048 291.697L518.049 289.46L517.794 289.688L517.597 289.968L520.048 291.697ZM482.308 362.216L479.488 361.19L479.482 361.207L479.476 361.224L482.308 362.216ZM467.487 435.465L464.494 435.263L464.493 435.284L464.492 435.305L467.487 435.465ZM470.471 519.85L467.488 520.173L467.489 520.173L470.471 519.85ZM491.807 716.776L488.824 717.099L488.825 717.104L491.807 716.776ZM491.383 797.331L488.408 796.943L488.404 796.974L488.401 797.005L491.383 797.331ZM468.373 866.023L470.911 867.623L470.911 867.623L468.373 866.023ZM384.517 917.038L384.211 914.053L384.147 914.06L384.084 914.069L384.517 917.038ZM360.477 914.739L361.59 911.954L361.534 911.931L361.478 911.911L360.477 914.739ZM345.383 900.627L342.636 901.834L342.641 901.843L342.645 901.853L345.383 900.627ZM344.922 874.437L342.113 873.385L342.099 873.422L342.086 873.46L344.922 874.437ZM382.033 855.612L380.818 858.355L380.818 858.355L382.033 855.612ZM395.575 869.037L398.31 867.803L398.306 867.794L395.575 869.037ZM396.115 888.766L393.326 887.661L393.305 887.712L393.287 887.764L396.115 888.766ZM384.635 907.345L382.466 905.273L376.944 911.052L384.904 910.333L384.635 907.345ZM393.679 905.784L393.232 902.818L393.092 902.839L392.954 902.873L393.679 905.784ZM437.881 872.003L435.138 870.788L435.127 870.813L435.116 870.838L437.881 872.003ZM447.427 820.084L444.427 820.07L444.427 820.081L444.427 820.092L447.427 820.084ZM442.744 756.291L439.767 756.661L439.77 756.686L439.773 756.711L442.744 756.291ZM434.781 687.334L431.798 687.652L431.798 687.653L434.781 687.334ZM421.978 567.507L424.961 567.188L424.959 567.174L421.978 567.507ZM419.298 485.576L422.291 485.793L422.291 485.783L422.292 485.772L419.298 485.576ZM432.233 420.773L429.415 419.743L429.413 419.748L432.233 420.773ZM462.706 361.42L460.207 359.76L460.207 359.76L462.706 361.42ZM511.18 297.049L513.491 298.962L508.963 295.029L511.18 297.049ZM476.671 330.948L478.618 333.23L478.635 333.216L478.652 333.201L476.671 330.948ZM440.346 358.473L441.94 361.014L441.974 360.993L442.007 360.971L440.346 358.473ZM356.765 386.872L356.818 383.872L356.818 383.872L356.765 386.872ZM318.378 382.393L317.697 385.315L317.697 385.315L318.378 382.393ZM285.588 375.754L285.094 378.713L285.094 378.713L285.588 375.754ZM240.719 391.141L238.098 389.683L238.066 389.739L238.037 389.797L240.719 391.141ZM248.722 420.209L246.782 422.498L246.829 422.538L246.878 422.576L248.722 420.209ZM262.343 427.172L265.16 428.202L266.225 425.29L263.279 424.322L262.343 427.172ZM428.187 423.621C379.43 442.438 341.217 465.154 313.704 491.857L317.882 496.163C344.643 470.191 382.079 447.847 430.347 429.218L428.187 423.621ZM313.704 491.857C286.219 518.531 268.916 547.876 262 579.892L267.865 581.159C274.489 550.495 291.092 522.163 317.882 496.163L313.704 491.857ZM261.998 579.902C255.321 611.365 258.55 643.975 271.549 677.657L277.147 675.497C264.51 642.755 261.462 611.33 267.867 581.148L261.998 579.902ZM271.549 677.657C281.244 702.778 295.692 720.924 315.031 731.744L317.96 726.508C300.113 716.522 286.463 699.635 277.147 675.497L271.549 677.657ZM315.1 731.782C334.527 741.986 357.65 745.987 384.324 743.972L383.872 737.989C358.053 739.94 336.108 736.039 317.89 726.47L315.1 731.782ZM384.367 743.968C410.813 741.581 439.814 734.269 471.351 722.098L469.191 716.5C438.035 728.525 409.587 735.667 383.828 737.993L384.367 743.968ZM471.351 722.098C520.475 703.139 558.696 680.421 585.843 653.853L581.647 649.565C555.266 675.383 517.837 697.726 469.191 716.5L471.351 722.098ZM585.834 653.861C613.321 627.185 630.446 597.901 636.985 566.012L631.107 564.807C624.853 595.308 608.443 623.558 581.656 649.556L585.834 653.861ZM636.978 566.043C643.884 534.076 640.852 501.391 627.989 468.061L622.391 470.221C634.876 502.57 637.748 534.064 631.114 564.776L636.978 566.043ZM627.989 468.061C618.287 442.924 603.704 425.012 584.094 414.712L581.304 420.024C599.337 429.496 613.082 446.1 622.391 470.221L627.989 468.061ZM584.164 414.75C564.933 403.99 541.951 399.912 515.386 402.31L515.926 408.286C541.566 405.971 563.279 409.94 581.234 419.986L584.164 414.75ZM515.443 402.305C489.197 404.171 460.103 411.303 428.187 423.621L430.347 429.218C461.87 417.052 490.369 410.103 515.869 408.29L515.443 402.305ZM470.84 727.44C403.142 753.568 347.114 763.427 302.589 757.401L301.784 763.347C347.737 769.566 404.864 759.334 473.001 733.038L470.84 727.44ZM302.612 757.404C258.115 751.036 229.255 729.712 215.308 693.575L209.711 695.735C224.568 734.232 255.493 756.722 301.762 763.344L302.612 757.404ZM215.308 693.575C207.467 673.257 205.717 650.924 210.169 626.49L204.266 625.415C199.643 650.79 201.422 674.258 209.711 695.735L215.308 693.575ZM210.173 626.466C214.479 601.692 225.249 576.631 242.603 551.276L237.651 547.887C219.913 573.805 208.743 599.659 204.262 625.439L210.173 626.466ZM242.603 551.276C259.923 525.968 283.923 501.83 314.68 478.885L311.093 474.076C279.929 497.324 255.423 521.92 237.651 547.887L242.603 551.276ZM314.674 478.89C345.745 455.844 383.738 435.63 428.698 418.278L426.537 412.681C381.189 430.183 342.695 450.636 311.099 474.071L314.674 478.89ZM428.698 418.278C496.39 392.153 552.483 382.482 597.142 388.874L597.992 382.935C551.887 376.336 494.679 386.382 426.537 412.681L428.698 418.278ZM597.165 388.877C641.505 394.878 670.284 416.01 684.23 452.144L689.827 449.983C674.968 411.482 644.107 389.175 597.97 382.931L597.165 388.877ZM684.23 452.144C692.072 472.464 693.895 494.991 689.581 519.812L695.492 520.839C699.965 495.106 698.115 471.458 689.827 449.983L684.23 452.144ZM689.585 519.788C685.138 544.194 674.296 569.077 656.935 594.443L661.887 597.832C679.618 571.924 690.86 546.265 695.488 520.863L689.585 519.788ZM656.935 594.443C639.619 619.745 615.436 643.954 584.305 667.044L587.879 671.863C619.415 648.473 644.111 623.804 661.887 597.832L656.935 594.443ZM584.298 667.049C553.603 689.947 515.801 710.088 470.84 727.44L473.001 733.038C518.348 715.536 556.659 695.153 587.886 671.858L584.298 667.049ZM258.576 436.216C251.018 434.637 244.22 431.766 238.151 427.613L234.762 432.564C241.512 437.184 249.051 440.356 257.349 442.089L258.576 436.216ZM238.321 427.738C232.607 423.204 228.231 417.108 225.232 409.338L219.635 411.498C222.973 420.148 227.946 427.165 234.592 432.438L238.321 427.738ZM225.232 409.338C220.066 395.952 221.108 384.146 228.082 373.553L223.071 370.254C214.908 382.652 213.855 396.524 219.635 411.498L225.232 409.338ZM228.093 373.537C235.467 362.176 247.186 353.273 263.542 346.961L261.382 341.363C244.152 348.013 231.281 357.604 223.06 370.27L228.093 373.537ZM263.542 346.961C278.494 341.19 293.153 338.673 307.543 339.352L307.826 333.359C292.52 332.636 277.031 335.323 261.382 341.363L263.542 346.961ZM307.618 339.355C322.149 339.679 336.745 341.251 351.406 344.075L352.541 338.183C337.558 335.298 322.628 333.688 307.751 333.356L307.618 339.355ZM351.474 344.087C366.256 346.586 380.941 348.262 395.528 349.113L395.878 343.124C381.515 342.285 367.047 340.635 352.474 338.171L351.474 344.087ZM395.636 349.118C410.756 349.455 425.773 346.733 440.67 340.983L438.51 335.386C424.299 340.87 410.059 343.438 395.77 343.119L395.636 349.118ZM440.67 340.983C453.66 335.97 466.547 328.582 479.332 318.861L475.7 314.085C463.293 323.519 450.895 330.606 438.51 335.386L440.67 340.983ZM479.332 318.861C491.989 309.237 503.76 299.521 514.642 289.713L510.625 285.256C499.877 294.943 488.236 304.553 475.7 314.085L479.332 318.861ZM515.566 288.117C518.759 273.315 522.802 261.518 527.634 252.632L522.363 249.766C517.164 259.328 512.965 271.722 509.701 286.852L515.566 288.117ZM527.634 252.632C529.988 248.301 532.438 245.741 534.832 244.488C537.111 243.296 539.653 243.12 542.709 244.221L544.742 238.576C540.328 236.986 536.014 237.098 532.05 239.172C528.202 241.186 525.023 244.872 522.363 249.766L527.634 252.632ZM542.764 244.24C544.998 244.996 546.119 246.177 546.646 247.709C547.236 249.425 547.241 252.052 546.119 255.886L551.878 257.57C553.16 253.188 553.487 249.152 552.32 245.757C551.089 242.179 548.371 239.804 544.688 238.557L542.764 244.24ZM546.119 255.886C545.089 259.409 542.382 264.001 537.648 269.719C532.953 275.39 526.435 281.968 518.049 289.46L522.047 293.934C530.558 286.33 537.314 279.531 542.27 273.545C547.186 267.607 550.506 262.263 551.878 257.57L546.119 255.886ZM517.597 289.968C500.837 313.72 488.123 337.461 479.488 361.19L485.127 363.241C493.554 340.083 506 316.811 522.499 293.427L517.597 289.968ZM479.476 361.224C471.226 384.788 466.234 409.471 464.494 435.263L470.481 435.666C472.185 410.393 477.074 386.243 485.139 363.207L479.476 361.224ZM464.492 435.305C463.132 460.885 464.137 489.178 467.488 520.173L473.454 519.527C470.129 488.785 469.144 460.821 470.483 435.624L464.492 435.305ZM467.489 520.173L488.824 717.099L494.789 716.453L473.454 519.527L467.489 520.173ZM488.825 717.104C491.877 744.853 491.734 771.464 488.408 796.943L494.358 797.719C497.75 771.727 497.889 744.634 494.789 716.448L488.825 717.104ZM488.401 797.005C485.603 822.569 478.064 845.021 465.835 864.424L470.911 867.623C483.678 847.365 491.479 824.023 494.365 797.658L488.401 797.005ZM465.835 864.424C453.729 883.631 435.531 897.992 411.041 907.444L413.202 913.042C438.716 903.194 458.02 888.076 470.911 867.623L465.835 864.424ZM411.041 907.444C401.937 910.958 392.995 913.154 384.211 914.053L384.822 920.022C394.186 919.063 403.647 916.729 413.202 913.042L411.041 907.444ZM384.084 914.069C375.581 915.31 368.114 914.56 361.59 911.954L359.364 917.525C367.033 920.589 375.592 921.371 384.95 920.006L384.084 914.069ZM361.478 911.911C355.326 909.733 350.908 905.626 348.121 899.402L342.645 901.853C346.078 909.522 351.722 914.822 359.475 917.567L361.478 911.911ZM348.13 899.421C344.931 892.136 344.736 884.193 347.759 875.413L342.086 873.46C338.64 883.47 338.752 892.988 342.636 901.834L348.13 899.421ZM347.732 875.489C350.811 867.267 356.351 861.665 364.504 858.519L362.344 852.921C352.585 856.687 345.79 863.564 342.113 873.385L347.732 875.489ZM364.504 858.519C370.605 856.164 375.971 856.208 380.818 858.355L383.248 852.869C376.717 849.975 369.677 850.091 362.344 852.921L364.504 858.519ZM380.818 858.355C386.35 860.806 390.326 864.746 392.845 870.279L398.306 867.794C395.181 860.928 390.129 855.918 383.248 852.869L380.818 858.355ZM392.841 870.27C395.479 876.119 395.626 881.852 393.326 887.661L398.904 889.87C401.815 882.52 401.602 875.1 398.31 867.803L392.841 870.27ZM393.287 887.764C390.969 894.31 387.37 900.14 382.466 905.273L386.804 909.418C392.283 903.683 396.337 897.127 398.943 889.767L393.287 887.764ZM384.904 910.333C387.973 910.056 391.141 909.508 394.404 908.695L392.954 902.873C389.959 903.619 387.096 904.111 384.365 904.357L384.904 910.333ZM394.126 908.75C398.007 908.165 401.908 907.11 405.827 905.598L403.666 900C400.122 901.368 396.645 902.303 393.232 902.818L394.126 908.75ZM405.827 905.598C422.545 899.146 434.251 888.34 440.645 873.168L435.116 870.838C429.425 884.342 419.041 894.066 403.666 900L405.827 905.598ZM440.623 873.219C447.25 858.263 450.48 840.519 450.427 820.076L444.427 820.092C444.478 839.912 441.344 856.781 435.138 870.788L440.623 873.219ZM450.427 820.098C450.52 800.173 448.946 778.763 445.714 755.872L439.773 756.711C442.97 779.36 444.518 800.478 444.427 820.07L450.427 820.098ZM445.721 755.922C442.882 733.025 440.23 710.056 437.764 687.014L431.798 687.653C434.268 710.727 436.924 733.73 439.767 756.661L445.721 755.922ZM437.764 687.015L424.961 567.188L418.995 567.825L431.798 687.652L437.764 687.015ZM424.959 567.174C421.491 536.058 420.611 508.939 422.291 485.793L416.306 485.359C414.593 508.971 415.5 536.472 418.996 567.839L424.959 567.174ZM422.292 485.772C423.828 462.262 428.092 440.945 435.052 421.798L429.413 419.748C422.232 439.502 417.873 461.387 416.305 485.381L422.292 485.772ZM435.051 421.803C442.262 402.079 452.307 382.504 465.206 363.079L460.207 359.76C447.075 379.537 436.805 399.531 429.415 419.743L435.051 421.803ZM465.206 363.079C478.149 343.587 494.24 322.216 513.491 298.962L508.869 295.136C489.52 318.508 473.295 340.051 460.207 359.76L465.206 363.079ZM508.963 295.029C498.196 306.848 486.772 318.07 474.69 328.695L478.652 333.201C490.899 322.431 502.481 311.054 513.398 299.069L508.963 295.029ZM474.724 328.665C462.874 338.773 450.861 347.875 438.684 355.975L442.007 360.971C454.395 352.731 466.598 343.483 478.618 333.23L474.724 328.665ZM438.751 355.932C426.47 363.638 414.271 369.823 402.154 374.499L404.315 380.097C416.827 375.268 429.369 368.903 441.94 361.014L438.751 355.932ZM402.154 374.499C385.236 381.029 370.139 384.106 356.818 383.872L356.712 389.871C371.018 390.122 386.901 386.818 404.315 380.097L402.154 374.499ZM356.818 383.872C343.186 383.633 330.603 382.16 319.058 379.471L317.697 385.315C329.708 388.112 342.716 389.626 356.712 389.871L356.818 383.872ZM319.058 379.471C307.23 376.716 296.237 374.49 286.082 372.795L285.094 378.713C295.104 380.384 305.971 382.583 317.697 385.315L319.058 379.471ZM286.082 372.795C275.483 371.026 265.233 372.034 255.391 375.832L257.551 381.429C266.368 378.027 275.529 377.117 285.094 378.713L286.082 372.795ZM255.391 375.832C247.46 378.893 241.563 383.454 238.098 389.683L243.341 392.6C245.951 387.908 250.555 384.13 257.551 381.429L255.391 375.832ZM238.037 389.797C234.938 395.981 234.891 402.704 237.596 409.711L243.194 407.551C241.001 401.871 241.171 396.934 243.401 392.486L238.037 389.797ZM237.596 409.711C239.513 414.679 242.594 418.947 246.782 422.498L250.662 417.921C247.204 414.99 244.733 411.54 243.194 407.551L237.596 409.711ZM246.878 422.576C250.882 425.696 255.746 428.163 261.406 430.022L263.279 424.322C258.137 422.633 253.921 420.458 250.566 417.843L246.878 422.576ZM259.525 426.142L255.145 438.123L260.78 440.183L265.16 428.202L259.525 426.142Z" fill="#1B1B1B"/>
</g>
</svg>
