<svg width="356" height="345" viewBox="0 0 356 345" fill="none" xmlns="http://www.w3.org/2000/svg">
<g clip-path="url(#clip0_153_997)">
<path d="M206.156 109.41L209.155 109.343L209.149 109.056L209.088 108.776L206.156 109.41ZM204.725 182.413L201.734 182.179L201.734 182.179L204.725 182.413ZM196.067 233.338L193.199 232.458L193.192 232.479L193.186 232.5L196.067 233.338ZM180.213 265.602L177.905 263.685L177.893 263.7L177.881 263.715L180.213 265.602ZM130.431 284.369L129.215 287.112L129.215 287.112L130.431 284.369ZM109.34 236.341L106.343 236.483L106.344 236.492L106.344 236.501L109.34 236.341ZM103.52 113.403L100.523 113.542L100.524 113.545L103.52 113.403ZM99.5129 95.2279L102.065 93.6512L102.065 93.6512L99.5129 95.2279ZM77.4663 105.872L74.6665 104.795L74.6521 104.832L74.6386 104.87L77.4663 105.872ZM74.5676 141.715L77.5662 141.625L77.5661 141.621L74.5676 141.715ZM75.0404 157.395L76.1198 160.194L78.1031 159.43L78.0391 157.305L75.0404 157.395ZM67.9493 160.13L64.9515 160.244L65.1113 164.439L69.0287 162.929L67.9493 160.13ZM66.7743 129.287L63.7753 129.362L63.7757 129.382L63.7765 129.401L66.7743 129.287ZM70.6266 100.364L67.8566 99.2124L67.8426 99.2461L67.8294 99.2801L70.6266 100.364ZM82.3576 82.9798L84.3285 85.2415L84.3559 85.2177L84.3827 85.1931L82.3576 82.9798ZM121.779 72.9235L120.049 75.3742L120.117 75.4222L120.188 75.4664L121.779 72.9235ZM133.368 90.7477L130.457 91.4715L130.468 91.5165L130.48 91.561L133.368 90.7477ZM137.412 117.912L134.414 118.025L134.414 118.039L134.415 118.054L137.412 117.912ZM143.114 238.323L146.111 238.184L146.111 238.181L143.114 238.323ZM179.425 251.33L181.996 252.877L182.013 252.848L182.03 252.818L179.425 251.33ZM191.03 220.276L193.942 220.997L193.946 220.98L193.95 220.963L191.03 220.276ZM197.598 176.159L194.609 175.893L194.608 175.904L194.607 175.915L197.598 176.159ZM199.245 121.506L196.246 121.544L196.246 121.556L196.246 121.568L199.245 121.506ZM195.2 58.7602L198.132 58.1259L192.219 59.0935L195.2 58.7602ZM242.597 207.251L239.611 207.536L239.613 207.565L239.617 207.593L242.597 207.251ZM246.46 225.053L243.661 226.132L243.693 226.215L243.73 226.295L246.46 225.053ZM268.363 214.035L265.499 213.144L265.496 213.152L265.494 213.16L268.363 214.035ZM271.176 179.083L268.178 179.173L268.178 179.181L268.178 179.189L271.176 179.083ZM270.704 163.403L269.624 160.604L267.641 161.369L267.705 163.493L270.704 163.403ZM277.795 160.669L280.793 160.554L280.633 156.359L276.715 157.87L277.795 160.669ZM278.97 191.511L275.972 191.625L275.972 191.638L275.973 191.65L278.97 191.511ZM275.117 220.434L272.347 219.282L272.333 219.315L272.32 219.35L275.117 220.434ZM263.386 237.818L261.447 235.529L261.386 235.581L261.328 235.636L263.386 237.818ZM225.714 244.628L223.641 246.796L223.699 246.853L223.761 246.905L225.714 244.628ZM217.286 229.443L214.382 230.195L214.396 230.25L214.413 230.305L217.286 229.443ZM212.438 201.303L209.459 201.664L209.46 201.672L212.438 201.303ZM193.176 42.3925L191.985 39.6388L189.928 40.5282L190.198 42.7535L193.176 42.3925ZM210.515 33.992L209.096 31.3483L209.089 31.3521L209.082 31.3559L210.515 33.992ZM225.124 24.0717L228.11 23.7868L227.553 17.943L223.143 21.8183L225.124 24.0717ZM203.157 109.477C203.792 137.747 203.315 161.976 201.734 182.179L207.716 182.647C209.317 162.183 209.794 137.743 209.155 109.343L203.157 109.477ZM201.734 182.179C200.154 202.379 197.295 219.121 193.199 232.458L198.935 234.219C203.202 220.324 206.115 203.115 207.716 182.647L201.734 182.179ZM193.186 232.5C189.33 245.758 184.203 256.104 177.905 263.685L182.521 267.519C189.496 259.122 194.939 247.959 198.947 234.176L193.186 232.5ZM177.881 263.715C171.804 271.225 164.555 276.57 156.116 279.824L158.275 285.422C167.751 281.769 175.846 275.767 182.545 267.49L177.881 263.715ZM156.116 279.824C145.509 283.914 137.499 284.221 131.648 281.627L129.215 287.112C137.154 290.632 146.986 289.775 158.275 285.422L156.116 279.824ZM131.648 281.627C125.623 278.955 121.033 273.892 117.995 266.014L112.397 268.173C115.883 277.215 121.45 283.668 129.215 287.112L131.648 281.627ZM117.995 266.014C114.877 257.928 112.966 248.006 112.336 236.182L106.344 236.501C106.998 248.761 108.991 259.34 112.397 268.173L117.995 266.014ZM112.337 236.2L106.517 113.261L100.524 113.545L106.343 236.483L112.337 236.2ZM106.517 113.264C106.122 104.727 104.766 98.0224 102.065 93.6512L96.9606 96.8046C98.8232 99.8197 100.139 105.232 100.523 113.542L106.517 113.264ZM102.065 93.6512C100.583 91.2517 98.4962 89.5394 95.7926 88.8785C93.1784 88.2393 90.3719 88.678 87.5471 89.7672L89.7057 95.3655C91.8571 94.5359 93.3532 94.4588 94.3677 94.7068C95.2931 94.933 96.1615 95.511 96.9606 96.8046L102.065 93.6512ZM87.5471 89.7672C81.7081 92.0187 77.5334 97.3464 74.6665 104.795L80.2661 106.95C82.8246 100.303 86.0899 96.7597 89.7057 95.3655L87.5471 89.7672ZM74.6386 104.87C71.9695 112.402 71.0373 124.853 71.5691 141.809L77.5661 141.621C77.0352 124.691 78.0354 113.247 80.294 106.875L74.6386 104.87ZM71.5689 141.806L72.0418 157.486L78.0391 157.305L77.5662 141.625L71.5689 141.806ZM73.9611 154.596L66.87 157.33L69.0287 162.929L76.1198 160.194L73.9611 154.596ZM70.9472 160.015L69.7721 129.173L63.7765 129.401L64.9515 160.244L70.9472 160.015ZM69.7734 129.212C69.4815 117.54 70.7545 108.335 73.4239 101.449L67.8294 99.2801C64.7677 107.179 63.4725 117.256 63.7753 129.362L69.7734 129.212ZM73.3966 101.516C76.3848 94.3313 80.0586 88.9624 84.3285 85.2415L80.3867 80.718C75.244 85.1995 71.0972 91.4203 67.8566 99.2124L73.3966 101.516ZM84.3827 85.1931C89.0286 80.9424 93.6342 77.9886 98.19 76.2319L96.0314 70.6336C90.6348 72.7145 85.405 76.1254 80.3325 80.7664L84.3827 85.1931ZM98.19 76.2319C108.891 72.1056 115.831 72.3958 120.049 75.3742L123.51 70.4728C116.732 65.6875 107.226 66.3172 96.0314 70.6336L98.19 76.2319ZM120.188 75.4664C125.005 78.4815 128.513 83.6529 130.457 91.4715L136.279 90.0239C134.074 81.1511 129.856 74.4397 123.371 70.3806L120.188 75.4664ZM130.48 91.561C132.731 99.5513 134.049 108.367 134.414 118.025L140.41 117.799C140.03 107.737 138.652 98.4436 136.256 89.9344L130.48 91.561ZM134.415 118.054L140.118 238.465L146.111 238.181L140.408 117.77L134.415 118.054ZM140.118 238.462C140.668 250.343 142.646 259.358 146.574 264.812C148.61 267.638 151.231 269.591 154.449 270.361C157.615 271.119 161.01 270.649 164.493 269.306L162.334 263.708C159.597 264.764 157.481 264.918 155.846 264.526C154.262 264.147 152.79 263.177 151.443 261.305C148.604 257.364 146.653 249.89 146.111 238.184L140.118 238.462ZM164.493 269.306C171.303 266.68 177.091 261.027 181.996 252.877L176.855 249.783C172.353 257.264 167.467 261.729 162.334 263.708L164.493 269.306ZM182.03 252.818C186.818 244.439 190.771 233.805 193.942 220.997L188.118 219.555C185.031 232.024 181.248 242.093 176.821 249.842L182.03 252.818ZM193.95 220.963C197.025 207.898 199.233 193.04 200.588 176.402L194.607 175.915C193.271 192.325 191.101 206.878 188.11 219.588L193.95 220.963ZM200.586 176.424C202.095 159.432 202.646 141.104 202.245 121.445L196.246 121.568C196.644 141.041 196.096 159.149 194.609 175.893L200.586 176.424ZM202.245 121.469C201.997 101.449 200.641 80.4345 198.181 58.4269L192.219 59.0935C194.659 80.925 196 101.741 196.246 121.544L202.245 121.469ZM192.268 59.3945L203.224 110.044L209.088 108.776L198.132 58.1259L192.268 59.3945ZM239.617 207.593C240.48 215.113 241.807 221.325 243.661 226.132L249.26 223.974C247.66 219.824 246.411 214.168 245.577 206.909L239.617 207.593ZM243.73 226.295C244.921 228.916 246.803 230.961 249.519 231.839C252.136 232.684 254.992 232.267 257.824 231.175L255.665 225.577C253.521 226.403 252.174 226.391 251.364 226.129C250.652 225.899 249.879 225.324 249.191 223.811L243.73 226.295ZM257.824 231.175C264.422 228.63 268.787 222.931 271.233 214.91L265.494 213.16C263.396 220.039 260.014 223.9 255.665 225.577L257.824 231.175ZM271.228 214.927C273.807 206.637 274.727 194.574 274.175 178.977L268.178 179.189C268.724 194.606 267.769 205.845 265.499 213.144L271.228 214.927ZM274.175 178.992L273.702 163.312L267.705 163.493L268.178 179.173L274.175 178.992ZM271.783 166.202L278.874 163.468L276.715 157.87L269.624 160.604L271.783 166.202ZM274.797 160.783L275.972 191.625L281.968 191.397L280.793 160.554L274.797 160.783ZM275.973 191.65C276.507 203.187 275.233 212.344 272.347 219.282L277.887 221.586C281.231 213.546 282.524 203.422 281.967 191.372L275.973 191.65ZM272.32 219.35C269.596 226.377 265.945 231.72 261.447 235.529L265.325 240.108C270.738 235.523 274.908 229.275 277.915 221.518L272.32 219.35ZM261.328 235.636C256.963 239.754 252.371 242.709 247.554 244.566L249.713 250.165C255.346 247.992 260.589 244.583 265.445 240L261.328 235.636ZM247.554 244.566C243.998 245.938 240.397 246.437 236.716 246.084L236.143 252.057C240.772 252.501 245.307 251.863 249.713 250.165L247.554 244.566ZM236.716 246.084C233.137 245.741 230.157 244.486 227.667 242.351L223.761 246.905C227.248 249.896 231.412 251.603 236.143 252.057L236.716 246.084ZM227.787 242.46C224.659 239.469 222.063 234.929 220.16 228.582L214.413 230.305C216.504 237.279 219.526 242.863 223.641 246.796L227.787 242.46ZM220.191 228.692C218.49 222.12 216.893 212.888 215.415 200.935L209.46 201.672C210.951 213.725 212.586 223.253 214.382 230.195L220.191 228.692ZM215.416 200.942L196.154 42.0315L190.198 42.7535L209.459 201.664L215.416 200.942ZM194.366 45.1462C200.566 42.4661 206.427 39.627 211.947 36.628L209.082 31.3559C203.732 34.263 198.034 37.0243 191.985 39.6388L194.366 45.1462ZM211.933 36.6356C217.78 33.4986 222.847 30.0666 227.104 26.3251L223.143 21.8183C219.289 25.2059 214.616 28.3873 209.096 31.3483L211.933 36.6356ZM222.137 24.3566L239.611 207.536L245.583 206.966L228.11 23.7868L222.137 24.3566Z" fill="#1B1B1B"/>
<mask id="mask0_153_997" style="mask-type:alpha" maskUnits="userSpaceOnUse" x="1" y="39" width="153" height="153">
<circle cx="77.5" cy="115.5" r="76.5" fill="#D9D9D9"/>
</mask>
<g mask="url(#mask0_153_997)">
<path d="M206.156 109.41C206.793 137.745 206.316 162.079 204.725 182.413C203.134 202.747 200.248 219.722 196.067 233.338C192.134 246.858 186.85 257.613 180.213 265.602C173.825 273.496 166.153 279.169 157.195 282.623C146.248 286.845 137.326 287.427 130.431 284.369C123.536 281.312 118.458 275.553 115.196 267.094C111.934 258.634 109.982 248.383 109.34 236.341L103.52 113.403C103.13 104.979 101.794 98.921 99.5129 95.2279C97.2314 91.5347 93.6026 90.6476 88.6264 92.5664C83.899 94.3892 80.179 98.8246 77.4663 105.872C75.0024 112.824 74.0362 124.772 74.5676 141.715L75.0404 157.395L67.9493 160.13L66.7743 129.287C66.477 117.398 67.7611 107.757 70.6266 100.364C73.741 92.8758 77.6513 87.0809 82.3576 82.9798C87.2168 78.5339 92.1345 75.3515 97.1107 73.4327C108.058 69.2114 116.281 69.0416 121.779 72.9235C127.43 76.4606 131.293 82.402 133.368 90.7477C135.692 98.9975 137.04 108.052 137.412 117.912L143.114 238.323C144.207 261.909 150.973 271.304 163.414 266.507C169.385 264.204 174.722 259.146 179.425 251.33C184.033 243.266 187.901 232.914 191.03 220.276C194.063 207.388 196.252 192.682 197.598 176.159C199.096 159.29 199.645 141.073 199.245 121.506C198.999 101.595 197.65 80.6798 195.2 58.7602L206.156 109.41ZM242.597 207.251C243.446 214.641 244.734 220.575 246.46 225.053C248.34 229.187 251.768 230.294 256.744 228.376C262.218 226.265 266.091 221.485 268.363 214.035C270.788 206.241 271.726 194.59 271.176 179.083L270.704 163.403L277.795 160.669L278.97 191.511C279.516 203.304 278.232 212.945 275.117 220.434C272.252 227.826 268.342 233.621 263.386 237.818C258.776 242.168 253.858 245.351 248.633 247.365C244.652 248.9 240.584 249.469 236.429 249.07C232.275 248.672 228.703 247.191 225.714 244.628C222.092 241.166 219.283 236.104 217.286 229.443C215.538 222.686 213.922 213.306 212.438 201.303L193.176 42.3925C199.3 39.7452 205.08 36.945 210.515 33.992C216.198 30.943 221.068 27.6362 225.124 24.0717L242.597 207.251Z" fill="#1B1B1B"/>
<path d="M206.156 109.41L209.155 109.343L209.149 109.056L209.088 108.776L206.156 109.41ZM204.725 182.413L201.734 182.179L201.734 182.179L204.725 182.413ZM196.067 233.338L193.199 232.458L193.192 232.479L193.186 232.5L196.067 233.338ZM180.213 265.602L177.905 263.685L177.893 263.7L177.881 263.715L180.213 265.602ZM130.431 284.369L129.215 287.112L129.215 287.112L130.431 284.369ZM109.34 236.341L106.343 236.483L106.344 236.492L106.344 236.501L109.34 236.341ZM103.52 113.403L100.523 113.542L100.524 113.545L103.52 113.403ZM99.5129 95.2279L102.065 93.6512L102.065 93.6512L99.5129 95.2279ZM77.4663 105.872L74.6665 104.795L74.6521 104.832L74.6386 104.87L77.4663 105.872ZM74.5676 141.715L77.5662 141.625L77.5661 141.621L74.5676 141.715ZM75.0404 157.395L76.1198 160.194L78.1031 159.43L78.0391 157.305L75.0404 157.395ZM67.9493 160.13L64.9515 160.244L65.1113 164.439L69.0287 162.929L67.9493 160.13ZM66.7743 129.287L63.7753 129.362L63.7757 129.382L63.7765 129.401L66.7743 129.287ZM70.6266 100.364L67.8566 99.2124L67.8426 99.2461L67.8294 99.2801L70.6266 100.364ZM82.3576 82.9798L84.3285 85.2415L84.3559 85.2177L84.3827 85.1931L82.3576 82.9798ZM121.779 72.9235L120.049 75.3742L120.117 75.4222L120.188 75.4664L121.779 72.9235ZM133.368 90.7477L130.457 91.4715L130.468 91.5165L130.48 91.561L133.368 90.7477ZM137.412 117.912L134.414 118.025L134.414 118.039L134.415 118.054L137.412 117.912ZM143.114 238.323L146.111 238.184L146.111 238.181L143.114 238.323ZM179.425 251.33L181.996 252.877L182.013 252.848L182.03 252.818L179.425 251.33ZM191.03 220.276L193.942 220.997L193.946 220.98L193.95 220.963L191.03 220.276ZM197.598 176.159L194.609 175.893L194.608 175.904L194.607 175.915L197.598 176.159ZM199.245 121.506L196.246 121.544L196.246 121.556L196.246 121.568L199.245 121.506ZM195.2 58.7602L198.132 58.1259L192.219 59.0935L195.2 58.7602ZM242.597 207.251L239.611 207.536L239.613 207.565L239.617 207.593L242.597 207.251ZM246.46 225.053L243.661 226.132L243.693 226.215L243.73 226.295L246.46 225.053ZM268.363 214.035L265.499 213.144L265.496 213.152L265.494 213.16L268.363 214.035ZM271.176 179.083L268.178 179.173L268.178 179.181L268.178 179.189L271.176 179.083ZM270.704 163.403L269.624 160.604L267.641 161.369L267.705 163.493L270.704 163.403ZM277.795 160.669L280.793 160.554L280.633 156.359L276.715 157.87L277.795 160.669ZM278.97 191.511L275.972 191.625L275.972 191.638L275.973 191.65L278.97 191.511ZM275.117 220.434L272.347 219.282L272.333 219.315L272.32 219.35L275.117 220.434ZM263.386 237.818L261.447 235.529L261.386 235.581L261.328 235.636L263.386 237.818ZM225.714 244.628L223.641 246.796L223.699 246.853L223.761 246.905L225.714 244.628ZM217.286 229.443L214.382 230.195L214.396 230.25L214.413 230.305L217.286 229.443ZM212.438 201.303L209.459 201.664L209.46 201.672L212.438 201.303ZM193.176 42.3925L191.985 39.6388L189.928 40.5282L190.198 42.7535L193.176 42.3925ZM210.515 33.992L209.096 31.3483L209.089 31.3521L209.082 31.3559L210.515 33.992ZM225.124 24.0717L228.11 23.7868L227.553 17.943L223.143 21.8183L225.124 24.0717ZM203.157 109.477C203.792 137.747 203.315 161.976 201.734 182.179L207.716 182.647C209.317 162.183 209.794 137.743 209.155 109.343L203.157 109.477ZM201.734 182.179C200.154 202.379 197.295 219.121 193.199 232.458L198.935 234.219C203.202 220.324 206.115 203.115 207.716 182.647L201.734 182.179ZM193.186 232.5C189.33 245.758 184.203 256.104 177.905 263.685L182.521 267.519C189.496 259.122 194.939 247.959 198.947 234.176L193.186 232.5ZM177.881 263.715C171.804 271.225 164.555 276.57 156.116 279.824L158.275 285.422C167.751 281.769 175.846 275.767 182.545 267.49L177.881 263.715ZM156.116 279.824C145.509 283.914 137.499 284.221 131.648 281.627L129.215 287.112C137.154 290.632 146.986 289.775 158.275 285.422L156.116 279.824ZM131.648 281.627C125.623 278.955 121.033 273.892 117.995 266.014L112.397 268.173C115.883 277.215 121.45 283.668 129.215 287.112L131.648 281.627ZM117.995 266.014C114.877 257.928 112.966 248.006 112.336 236.182L106.344 236.501C106.998 248.761 108.991 259.34 112.397 268.173L117.995 266.014ZM112.337 236.2L106.517 113.261L100.524 113.545L106.343 236.483L112.337 236.2ZM106.517 113.264C106.122 104.727 104.766 98.0224 102.065 93.6512L96.9606 96.8046C98.8232 99.8197 100.139 105.232 100.523 113.542L106.517 113.264ZM102.065 93.6512C100.583 91.2517 98.4962 89.5394 95.7926 88.8785C93.1784 88.2393 90.3719 88.678 87.5471 89.7672L89.7057 95.3655C91.8571 94.5359 93.3532 94.4588 94.3677 94.7068C95.2931 94.933 96.1615 95.511 96.9606 96.8046L102.065 93.6512ZM87.5471 89.7672C81.7081 92.0187 77.5334 97.3464 74.6665 104.795L80.2661 106.95C82.8246 100.303 86.0899 96.7597 89.7057 95.3655L87.5471 89.7672ZM74.6386 104.87C71.9695 112.402 71.0373 124.853 71.5691 141.809L77.5661 141.621C77.0352 124.691 78.0354 113.247 80.294 106.875L74.6386 104.87ZM71.5689 141.806L72.0418 157.486L78.0391 157.305L77.5662 141.625L71.5689 141.806ZM73.9611 154.596L66.87 157.33L69.0287 162.929L76.1198 160.194L73.9611 154.596ZM70.9472 160.015L69.7721 129.173L63.7765 129.401L64.9515 160.244L70.9472 160.015ZM69.7734 129.212C69.4815 117.54 70.7545 108.335 73.4239 101.449L67.8294 99.2801C64.7677 107.179 63.4725 117.256 63.7753 129.362L69.7734 129.212ZM73.3966 101.516C76.3848 94.3313 80.0586 88.9624 84.3285 85.2415L80.3867 80.718C75.244 85.1995 71.0972 91.4203 67.8566 99.2124L73.3966 101.516ZM84.3827 85.1931C89.0286 80.9424 93.6342 77.9886 98.19 76.2319L96.0314 70.6336C90.6348 72.7145 85.405 76.1254 80.3325 80.7664L84.3827 85.1931ZM98.19 76.2319C108.891 72.1056 115.831 72.3958 120.049 75.3742L123.51 70.4728C116.732 65.6875 107.226 66.3172 96.0314 70.6336L98.19 76.2319ZM120.188 75.4664C125.005 78.4815 128.513 83.6529 130.457 91.4715L136.279 90.0239C134.074 81.1511 129.856 74.4397 123.371 70.3806L120.188 75.4664ZM130.48 91.561C132.731 99.5513 134.049 108.367 134.414 118.025L140.41 117.799C140.03 107.737 138.652 98.4436 136.256 89.9344L130.48 91.561ZM134.415 118.054L140.118 238.465L146.111 238.181L140.408 117.77L134.415 118.054ZM140.118 238.462C140.668 250.343 142.646 259.358 146.574 264.812C148.61 267.638 151.231 269.591 154.449 270.361C157.615 271.119 161.01 270.649 164.493 269.306L162.334 263.708C159.597 264.764 157.481 264.918 155.846 264.526C154.262 264.147 152.79 263.177 151.443 261.305C148.604 257.364 146.653 249.89 146.111 238.184L140.118 238.462ZM164.493 269.306C171.303 266.68 177.091 261.027 181.996 252.877L176.855 249.783C172.353 257.264 167.467 261.729 162.334 263.708L164.493 269.306ZM182.03 252.818C186.818 244.439 190.771 233.805 193.942 220.997L188.118 219.555C185.031 232.024 181.248 242.093 176.821 249.842L182.03 252.818ZM193.95 220.963C197.025 207.898 199.233 193.04 200.588 176.402L194.607 175.915C193.271 192.325 191.101 206.878 188.11 219.588L193.95 220.963ZM200.586 176.424C202.095 159.432 202.646 141.104 202.245 121.445L196.246 121.568C196.644 141.041 196.096 159.149 194.609 175.893L200.586 176.424ZM202.245 121.469C201.997 101.449 200.641 80.4345 198.181 58.4269L192.219 59.0935C194.659 80.925 196 101.741 196.246 121.544L202.245 121.469ZM192.268 59.3945L203.224 110.044L209.088 108.776L198.132 58.1259L192.268 59.3945ZM239.617 207.593C240.48 215.113 241.807 221.325 243.661 226.132L249.26 223.974C247.66 219.824 246.411 214.168 245.577 206.909L239.617 207.593ZM243.73 226.295C244.921 228.916 246.803 230.961 249.519 231.839C252.136 232.684 254.992 232.267 257.824 231.175L255.665 225.577C253.521 226.403 252.174 226.391 251.364 226.129C250.652 225.899 249.879 225.324 249.191 223.811L243.73 226.295ZM257.824 231.175C264.422 228.63 268.787 222.931 271.233 214.91L265.494 213.16C263.396 220.039 260.014 223.9 255.665 225.577L257.824 231.175ZM271.228 214.927C273.807 206.637 274.727 194.574 274.175 178.977L268.178 179.189C268.724 194.606 267.769 205.845 265.499 213.144L271.228 214.927ZM274.175 178.992L273.702 163.312L267.705 163.493L268.178 179.173L274.175 178.992ZM271.783 166.202L278.874 163.468L276.715 157.87L269.624 160.604L271.783 166.202ZM274.797 160.783L275.972 191.625L281.968 191.397L280.793 160.554L274.797 160.783ZM275.973 191.65C276.507 203.187 275.233 212.344 272.347 219.282L277.887 221.586C281.231 213.546 282.524 203.422 281.967 191.372L275.973 191.65ZM272.32 219.35C269.596 226.377 265.945 231.72 261.447 235.529L265.325 240.108C270.738 235.523 274.908 229.275 277.915 221.518L272.32 219.35ZM261.328 235.636C256.963 239.754 252.371 242.709 247.554 244.566L249.713 250.165C255.346 247.992 260.589 244.583 265.445 240L261.328 235.636ZM247.554 244.566C243.998 245.938 240.397 246.437 236.716 246.084L236.143 252.057C240.772 252.501 245.307 251.863 249.713 250.165L247.554 244.566ZM236.716 246.084C233.137 245.741 230.157 244.486 227.667 242.351L223.761 246.905C227.248 249.896 231.412 251.603 236.143 252.057L236.716 246.084ZM227.787 242.46C224.659 239.469 222.063 234.929 220.16 228.582L214.413 230.305C216.504 237.279 219.526 242.863 223.641 246.796L227.787 242.46ZM220.191 228.692C218.49 222.12 216.893 212.888 215.415 200.935L209.46 201.672C210.951 213.725 212.586 223.253 214.382 230.195L220.191 228.692ZM215.416 200.942L196.154 42.0315L190.198 42.7535L209.459 201.664L215.416 200.942ZM194.366 45.1462C200.566 42.4661 206.427 39.627 211.947 36.628L209.082 31.3559C203.732 34.263 198.034 37.0243 191.985 39.6388L194.366 45.1462ZM211.933 36.6356C217.78 33.4986 222.847 30.0666 227.104 26.3251L223.143 21.8183C219.289 25.2059 214.616 28.3873 209.096 31.3483L211.933 36.6356ZM222.137 24.3566L239.611 207.536L245.583 206.966L228.11 23.7868L222.137 24.3566Z" fill="#1B1B1B"/>
</g>
</g>
<defs>
<clipPath id="clip0_153_997">
<rect width="356" height="345" fill="white"/>
</clipPath>
</defs>
</svg>
