<svg width="650" height="273" viewBox="0 0 650 273" fill="none" xmlns="http://www.w3.org/2000/svg">
<g clip-path="url(#clip0_143_307)">
<rect width="650" height="273" fill="#EBE9E3"/>
<path d="M134.55 104.6C134.417 105.767 134.317 106.9 134.25 108C134.217 109.1 134.2 109.933 134.2 110.5C134.2 111.1 134.217 111.683 134.25 112.25C134.283 112.783 134.317 113.233 134.35 113.6H133.2C133 111.633 132.717 110.083 132.35 108.95C131.983 107.783 131.35 106.967 130.45 106.5C129.583 106 128.267 105.75 126.5 105.75H123.85C122.717 105.75 121.85 105.85 121.25 106.05C120.683 106.217 120.3 106.6 120.1 107.2C119.9 107.767 119.8 108.667 119.8 109.9V134.7C119.8 135.867 119.867 136.767 120 137.4C120.167 138.033 120.483 138.467 120.95 138.7C121.45 138.9 122.183 139 123.15 139C125.45 139 127.183 138.583 128.35 137.75C129.55 136.883 130.367 135.733 130.8 134.3C131.233 132.833 131.45 131.233 131.45 129.5C131.45 127.3 131.167 125.5 130.6 124.1C130.067 122.667 129.15 121.617 127.85 120.95C126.583 120.25 124.867 119.9 122.7 119.9C122.333 119.9 121.733 119.917 120.9 119.95C120.1 119.95 119.317 119.967 118.55 120C117.783 120 117.25 120 116.95 120L116.85 119.05C118.417 119.05 119.917 119.033 121.35 119C122.783 118.967 123.8 118.95 124.4 118.95C126.4 118.95 128.15 119.217 129.65 119.75C131.183 120.25 132.45 120.967 133.45 121.9C134.45 122.833 135.2 123.95 135.7 125.25C136.2 126.517 136.45 127.917 136.45 129.45C136.45 130.75 136.25 132.033 135.85 133.3C135.45 134.533 134.75 135.667 133.75 136.7C132.783 137.7 131.45 138.5 129.75 139.1C128.05 139.7 125.9 140 123.3 140C122.433 140 121.567 139.983 120.7 139.95C119.867 139.883 118.633 139.85 117 139.85C116.067 139.85 115.017 139.867 113.85 139.9C112.717 139.9 111.8 139.933 111.1 140V139C112.233 138.933 113.083 138.8 113.65 138.6C114.25 138.4 114.65 138 114.85 137.4C115.05 136.8 115.15 135.9 115.15 134.7V109.9C115.15 108.667 115.05 107.767 114.85 107.2C114.65 106.6 114.25 106.2 113.65 106C113.083 105.767 112.233 105.633 111.1 105.6V104.6C112.333 104.633 113.633 104.667 115 104.7C116.367 104.7 117.717 104.717 119.05 104.75C120.383 104.75 121.617 104.75 122.75 104.75C123.917 104.75 124.867 104.75 125.6 104.75C126.9 104.75 128.383 104.75 130.05 104.75C131.717 104.717 133.217 104.667 134.55 104.6ZM155.635 104.6V105.6C154.502 105.633 153.635 105.767 153.035 106C152.468 106.2 152.085 106.6 151.885 107.2C151.685 107.767 151.585 108.667 151.585 109.9V134.7C151.585 135.9 151.685 136.8 151.885 137.4C152.085 138 152.468 138.4 153.035 138.6C153.635 138.8 154.502 138.933 155.635 139V140C154.868 139.933 153.902 139.9 152.735 139.9C151.602 139.867 150.452 139.85 149.285 139.85C147.985 139.85 146.768 139.867 145.635 139.9C144.502 139.9 143.585 139.933 142.885 140V139C144.018 138.933 144.868 138.8 145.435 138.6C146.035 138.4 146.435 138 146.635 137.4C146.835 136.8 146.935 135.9 146.935 134.7V109.9C146.935 108.667 146.835 107.767 146.635 107.2C146.435 106.6 146.035 106.2 145.435 106C144.868 105.767 144.018 105.633 142.885 105.6V104.6C143.585 104.633 144.502 104.667 145.635 104.7C146.768 104.733 147.985 104.75 149.285 104.75C150.452 104.75 151.602 104.733 152.735 104.7C153.902 104.667 154.868 104.633 155.635 104.6ZM169.685 107.9C169.685 107.9 169.668 108.083 169.635 108.45C169.602 108.783 169.568 109.133 169.535 109.5C169.535 109.867 169.535 110.05 169.535 110.05L149.535 138.4L149.685 136.25L169.685 107.9ZM177.535 104.6V105.6C176.402 105.633 175.535 105.767 174.935 106C174.368 106.2 173.985 106.6 173.785 107.2C173.585 107.767 173.485 108.667 173.485 109.9V134.7C173.485 135.9 173.585 136.8 173.785 137.4C173.985 138 174.368 138.4 174.935 138.6C175.535 138.8 176.402 138.933 177.535 139V140C176.835 139.933 175.918 139.9 174.785 139.9C173.652 139.867 172.435 139.85 171.135 139.85C170.002 139.85 168.852 139.867 167.685 139.9C166.518 139.9 165.552 139.933 164.785 140V139C165.918 138.933 166.768 138.8 167.335 138.6C167.935 138.4 168.335 138 168.535 137.4C168.735 136.8 168.835 135.9 168.835 134.7V109.9C168.835 108.667 168.735 107.767 168.535 107.2C168.335 106.6 167.935 106.2 167.335 106C166.768 105.767 165.918 105.633 164.785 105.6V104.6C165.552 104.633 166.518 104.667 167.685 104.7C168.852 104.733 170.002 104.75 171.135 104.75C172.435 104.75 173.652 104.733 174.785 104.7C175.918 104.667 176.835 104.633 177.535 104.6ZM213.952 104.6V105.6C212.819 105.633 211.952 105.767 211.352 106C210.786 106.2 210.402 106.6 210.202 107.2C210.002 107.767 209.902 108.667 209.902 109.9V134.7C209.902 135.9 210.002 136.8 210.202 137.4C210.402 138 210.786 138.4 211.352 138.6C211.952 138.8 212.819 138.933 213.952 139V140C213.252 139.933 212.336 139.9 211.202 139.9C210.069 139.867 208.852 139.85 207.552 139.85C206.219 139.85 204.869 139.867 203.502 139.9C202.169 139.9 201.069 139.933 200.202 140V139C201.602 138.933 202.669 138.8 203.402 138.6C204.136 138.4 204.619 138 204.852 137.4C205.119 136.8 205.252 135.9 205.252 134.7V109.9C205.252 108.667 205.152 107.75 204.952 107.15C204.752 106.55 204.352 106.15 203.752 105.95C203.186 105.717 202.336 105.6 201.202 105.6H200.552C199.386 105.6 198.519 105.717 197.952 105.95C197.419 106.15 197.069 106.567 196.902 107.2C196.736 107.8 196.602 108.7 196.502 109.9C196.336 111.867 196.169 113.983 196.002 116.25C195.869 118.517 195.686 120.8 195.452 123.1C195.252 125.4 194.936 127.6 194.502 129.7C194.069 131.8 193.502 133.683 192.802 135.35C192.102 136.983 191.202 138.283 190.102 139.25C189.002 140.217 187.652 140.7 186.052 140.7C184.952 140.7 183.919 140.45 182.952 139.95C181.986 139.417 181.502 138.533 181.502 137.3C181.502 136.433 181.786 135.75 182.352 135.25C182.919 134.717 183.619 134.45 184.452 134.45C185.186 134.45 185.786 134.65 186.252 135.05C186.752 135.45 187.002 135.983 187.002 136.65C187.002 137.383 186.819 137.983 186.452 138.45C186.086 138.883 185.552 139.3 184.852 139.7C185.086 139.733 185.302 139.75 185.502 139.75C185.736 139.75 185.919 139.75 186.052 139.75C187.586 139.75 188.869 139.167 189.902 138C190.936 136.833 191.769 135.25 192.402 133.25C193.069 131.217 193.586 128.917 193.952 126.35C194.319 123.783 194.602 121.1 194.802 118.3C195.002 115.467 195.186 112.667 195.352 109.9C195.452 108.733 195.402 107.85 195.202 107.25C195.036 106.65 194.636 106.233 194.002 106C193.402 105.767 192.502 105.633 191.302 105.6V104.6C192.002 104.633 192.836 104.667 193.802 104.7C194.769 104.733 195.652 104.75 196.452 104.75C197.219 104.75 197.952 104.733 198.652 104.7C199.386 104.633 200.119 104.6 200.852 104.6C202.119 104.6 203.269 104.633 204.302 104.7C205.336 104.733 206.569 104.75 208.002 104.75C208.669 104.75 209.369 104.75 210.102 104.75C210.836 104.717 211.536 104.7 212.202 104.7C212.902 104.667 213.486 104.633 213.952 104.6ZM245.126 104.6C244.993 105.767 244.893 106.9 244.826 108C244.793 109.1 244.776 109.933 244.776 110.5C244.776 111.1 244.793 111.683 244.826 112.25C244.86 112.783 244.893 113.233 244.926 113.6H243.776C243.576 111.633 243.293 110.083 242.926 108.95C242.56 107.783 241.926 106.967 241.026 106.5C240.16 106 238.843 105.75 237.076 105.75H232.926C231.793 105.75 230.926 105.85 230.326 106.05C229.76 106.217 229.376 106.6 229.176 107.2C228.976 107.767 228.876 108.667 228.876 109.9V134.7C228.876 135.9 228.976 136.8 229.176 137.4C229.376 138 229.76 138.4 230.326 138.6C230.926 138.767 231.793 138.85 232.926 138.85H236.576C238.676 138.85 240.26 138.567 241.326 138C242.426 137.433 243.21 136.517 243.676 135.25C244.176 133.95 244.543 132.2 244.776 130H245.926C245.826 130.9 245.776 132.1 245.776 133.6C245.776 134.233 245.793 135.15 245.826 136.35C245.893 137.517 245.993 138.733 246.126 140C244.426 139.933 242.51 139.9 240.376 139.9C238.243 139.867 236.343 139.85 234.676 139.85C233.943 139.85 232.993 139.85 231.826 139.85C230.693 139.85 229.46 139.867 228.126 139.9C226.793 139.9 225.443 139.917 224.076 139.95C222.71 139.95 221.41 139.967 220.176 140V139C221.31 138.933 222.16 138.8 222.726 138.6C223.326 138.4 223.726 138 223.926 137.4C224.126 136.8 224.226 135.9 224.226 134.7V109.9C224.226 108.667 224.126 107.767 223.926 107.2C223.726 106.6 223.326 106.2 222.726 106C222.16 105.767 221.31 105.633 220.176 105.6V104.6C221.41 104.633 222.71 104.667 224.076 104.7C225.443 104.7 226.793 104.717 228.126 104.75C229.46 104.75 230.693 104.75 231.826 104.75C232.993 104.75 233.943 104.75 234.676 104.75C236.21 104.75 237.943 104.75 239.876 104.75C241.843 104.717 243.593 104.667 245.126 104.6ZM236.526 121.7C236.526 121.7 236.526 121.867 236.526 122.2C236.526 122.533 236.526 122.7 236.526 122.7H227.376C227.376 122.7 227.376 122.533 227.376 122.2C227.376 121.867 227.376 121.7 227.376 121.7H236.526ZM237.976 115.1C237.843 117 237.776 118.45 237.776 119.45C237.81 120.45 237.826 121.367 237.826 122.2C237.826 123.033 237.843 123.95 237.876 124.95C237.91 125.95 237.993 127.4 238.126 129.3H236.976C236.843 128.233 236.676 127.2 236.476 126.2C236.31 125.167 235.91 124.333 235.276 123.7C234.676 123.033 233.643 122.7 232.176 122.7V121.7C233.276 121.7 234.11 121.483 234.676 121.05C235.276 120.583 235.71 120 235.976 119.3C236.243 118.6 236.426 117.883 236.526 117.15C236.626 116.383 236.726 115.7 236.826 115.1H237.976ZM280.145 104.6C280.012 105.867 279.912 107.1 279.845 108.3C279.812 109.467 279.795 110.367 279.795 111C279.795 111.8 279.812 112.55 279.845 113.25C279.878 113.95 279.912 114.567 279.945 115.1H278.795C278.562 112.767 278.245 110.933 277.845 109.6C277.445 108.233 276.745 107.25 275.745 106.65C274.745 106.05 273.195 105.75 271.095 105.75H268.395V134.2C268.395 135.533 268.512 136.533 268.745 137.2C269.012 137.867 269.512 138.317 270.245 138.55C270.978 138.783 272.045 138.933 273.445 139V140C272.578 139.933 271.478 139.9 270.145 139.9C268.812 139.867 267.462 139.85 266.095 139.85C264.595 139.85 263.178 139.867 261.845 139.9C260.545 139.9 259.495 139.933 258.695 140V139C260.095 138.933 261.162 138.783 261.895 138.55C262.628 138.317 263.112 137.867 263.345 137.2C263.612 136.533 263.745 135.533 263.745 134.2V105.75H261.045C258.978 105.75 257.428 106.05 256.395 106.65C255.395 107.25 254.695 108.233 254.295 109.6C253.895 110.933 253.578 112.767 253.345 115.1H252.195C252.262 114.567 252.295 113.95 252.295 113.25C252.328 112.55 252.345 111.8 252.345 111C252.345 110.367 252.312 109.467 252.245 108.3C252.212 107.1 252.128 105.867 251.995 104.6C253.395 104.633 254.912 104.667 256.545 104.7C258.212 104.733 259.878 104.75 261.545 104.75C263.212 104.75 264.728 104.75 266.095 104.75C267.462 104.75 268.962 104.75 270.595 104.75C272.262 104.75 273.928 104.733 275.595 104.7C277.262 104.667 278.778 104.633 280.145 104.6Z" fill="black"/>
<path d="M84.531 162.413C85.037 162.413 85.474 162.237 85.842 161.884C86.21 161.516 86.4937 161.071 86.693 160.55C86.9077 160.013 87.015 159.484 87.015 158.963C87.015 158.227 86.8233 157.66 86.44 157.261C86.0567 156.847 85.5583 156.632 84.945 156.617L84.807 156.479C85.4817 156.356 86.1333 156.356 86.762 156.479C87.406 156.602 87.9273 156.855 88.326 157.238C88.74 157.621 88.947 158.15 88.947 158.825C88.947 159.3 88.832 159.776 88.602 160.251C88.372 160.726 88.0423 161.163 87.613 161.562C87.1837 161.945 86.67 162.252 86.072 162.482C85.4893 162.712 84.8377 162.827 84.117 162.827C83.197 162.827 82.4687 162.643 81.932 162.275C81.3953 161.907 81.012 161.424 80.782 160.826C80.552 160.228 80.437 159.592 80.437 158.917C80.437 158.12 80.5673 157.322 80.828 156.525C81.0887 155.712 81.4567 154.938 81.932 154.202C82.4073 153.466 82.9593 152.814 83.588 152.247C84.232 151.664 84.9297 151.204 85.681 150.867C86.4323 150.53 87.222 150.361 88.05 150.361C88.8167 150.361 89.4377 150.522 89.913 150.844C90.4037 151.151 90.649 151.641 90.649 152.316C90.649 152.975 90.4037 153.596 89.913 154.179C89.4377 154.746 88.8013 155.245 88.004 155.674C87.2067 156.088 86.325 156.395 85.359 156.594C84.393 156.793 83.427 156.855 82.461 156.778L82.599 156.41C83.381 156.487 84.14 156.441 84.876 156.272C85.6273 156.103 86.2943 155.843 86.877 155.49C87.475 155.122 87.9427 154.67 88.28 154.133C88.6327 153.596 88.809 152.998 88.809 152.339C88.809 151.787 88.694 151.396 88.464 151.166C88.234 150.921 87.9503 150.798 87.613 150.798C87.1223 150.798 86.5857 151.013 86.003 151.442C85.4203 151.856 84.8683 152.439 84.347 153.19C83.841 153.941 83.4193 154.815 83.082 155.812C82.76 156.793 82.599 157.844 82.599 158.963C82.599 159.975 82.7523 160.803 83.059 161.447C83.381 162.091 83.8717 162.413 84.531 162.413ZM107.565 154.087C106.967 155.682 106.415 157.039 105.909 158.158C105.403 159.262 104.905 160.159 104.414 160.849C103.924 161.539 103.418 162.045 102.896 162.367C102.375 162.674 101.808 162.827 101.194 162.827C100.55 162.827 100.113 162.643 99.8833 162.275C99.6533 161.907 99.5537 161.455 99.5843 160.918C99.6303 160.381 99.7377 159.86 99.9063 159.354L102.137 152.638C102.291 152.163 102.344 151.81 102.298 151.58C102.252 151.335 102.076 151.212 101.769 151.212C101.478 151.212 101.187 151.373 100.895 151.695C100.619 152.017 100.32 152.638 99.9983 153.558L99.6993 154.409H99.2623L99.8373 152.73C100.067 152.086 100.336 151.595 100.642 151.258C100.964 150.921 101.294 150.691 101.631 150.568C101.984 150.43 102.314 150.361 102.62 150.361C103.295 150.361 103.74 150.522 103.954 150.844C104.184 151.151 104.269 151.549 104.207 152.04C104.161 152.531 104.046 153.044 103.862 153.581L101.677 160.159C101.524 160.634 101.447 161.079 101.447 161.493C101.447 161.892 101.616 162.091 101.953 162.091C102.321 162.091 102.705 161.915 103.103 161.562C103.502 161.209 103.908 160.711 104.322 160.067C104.752 159.423 105.181 158.649 105.61 157.744C106.04 156.839 106.461 155.835 106.875 154.731C107.289 153.612 107.696 152.416 108.094 151.143L107.565 154.087ZM107.427 160.159C107.335 160.466 107.266 160.772 107.22 161.079C107.19 161.37 107.213 161.616 107.289 161.815C107.381 161.999 107.565 162.091 107.841 162.091C108.194 162.091 108.57 161.922 108.968 161.585C109.367 161.232 109.773 160.742 110.187 160.113C110.617 159.484 111.038 158.741 111.452 157.882C111.866 157.023 112.257 156.08 112.625 155.053C113.009 154.026 113.354 152.937 113.66 151.787L112.901 155.467C112.38 156.847 111.882 158.005 111.406 158.94C110.931 159.875 110.463 160.634 110.003 161.217C109.543 161.784 109.076 162.198 108.6 162.459C108.125 162.704 107.619 162.827 107.082 162.827C106.592 162.827 106.231 162.72 106.001 162.505C105.787 162.275 105.656 161.984 105.61 161.631C105.564 161.278 105.572 160.903 105.633 160.504C105.71 160.105 105.794 159.722 105.886 159.354L108.232 150.683C108.616 150.668 108.984 150.637 109.336 150.591C109.704 150.545 110.034 150.468 110.325 150.361L107.427 160.159ZM113.177 160.55C113.147 160.673 113.108 160.849 113.062 161.079C113.016 161.309 113.016 161.516 113.062 161.7C113.108 161.884 113.254 161.976 113.499 161.976C113.837 161.976 114.143 161.8 114.419 161.447C114.711 161.079 115.002 160.473 115.293 159.63L115.592 158.779H116.029L115.454 160.458C115.24 161.102 114.971 161.593 114.649 161.93C114.343 162.267 114.013 162.497 113.66 162.62C113.323 162.758 112.993 162.827 112.671 162.827C112.211 162.827 111.882 162.72 111.682 162.505C111.498 162.306 111.391 162.045 111.36 161.723C111.345 161.401 111.368 161.056 111.429 160.688C111.506 160.305 111.59 159.944 111.682 159.607L113.936 150.683C114.32 150.668 114.688 150.637 115.04 150.591C115.408 150.545 115.738 150.468 116.029 150.361L113.177 160.55ZM126.556 161.033C126.494 161.37 126.494 161.616 126.556 161.769C126.617 161.907 126.77 161.976 127.016 161.976C127.322 161.976 127.606 161.807 127.867 161.47C128.143 161.117 128.426 160.504 128.718 159.63L128.994 158.779H129.431L128.879 160.458C128.679 161.071 128.434 161.554 128.143 161.907C127.867 162.244 127.552 162.482 127.2 162.62C126.862 162.758 126.51 162.827 126.142 162.827C125.651 162.827 125.252 162.658 124.946 162.321C124.639 161.968 124.57 161.409 124.739 160.642L125.061 159.124C125.245 158.235 125.145 157.583 124.762 157.169C124.394 156.74 123.566 156.479 122.278 156.387V156.295C122.86 156.249 123.451 156.249 124.049 156.295C124.662 156.341 125.206 156.471 125.682 156.686C126.157 156.885 126.517 157.192 126.763 157.606C127.008 158.005 127.062 158.534 126.924 159.193L126.556 161.033ZM128.58 150.844C128.396 150.844 128.235 150.875 128.097 150.936C127.974 150.997 127.851 151.074 127.729 151.166C127.437 151.396 127.184 151.726 126.97 152.155C126.77 152.584 126.563 153.044 126.349 153.535C126.149 154.01 125.896 154.47 125.59 154.915C125.298 155.344 124.907 155.697 124.417 155.973C123.941 156.249 123.32 156.379 122.554 156.364L122.324 156.387L122.37 156.134C123.121 156.088 123.727 155.919 124.187 155.628C124.647 155.337 125.015 154.976 125.291 154.547C125.567 154.118 125.797 153.673 125.981 153.213C126.18 152.738 126.379 152.293 126.579 151.879C126.793 151.465 127.062 151.135 127.384 150.89C127.66 150.675 127.905 150.537 128.12 150.476C128.35 150.399 128.564 150.361 128.764 150.361C129.3 150.361 129.668 150.499 129.868 150.775C130.067 151.036 130.151 151.35 130.121 151.718C130.105 151.902 130.052 152.109 129.96 152.339C129.868 152.569 129.722 152.768 129.523 152.937C129.339 153.106 129.093 153.19 128.787 153.19C128.449 153.19 128.212 153.09 128.074 152.891C127.936 152.676 127.874 152.446 127.89 152.201C127.905 151.986 127.982 151.756 128.12 151.511C128.258 151.25 128.426 151.028 128.626 150.844C128.61 150.844 128.603 150.844 128.603 150.844C128.603 150.844 128.595 150.844 128.58 150.844ZM120.576 162.505H118.598L121.68 152.638C121.741 152.485 121.795 152.301 121.841 152.086C121.887 151.856 121.887 151.657 121.841 151.488C121.795 151.304 121.649 151.212 121.404 151.212C121.066 151.212 120.752 151.388 120.461 151.741C120.169 152.094 119.863 152.699 119.541 153.558L119.219 154.409H118.782L119.403 152.73C119.648 152.086 119.932 151.595 120.254 151.258C120.591 150.921 120.936 150.691 121.289 150.568C121.641 150.43 121.971 150.361 122.278 150.361C122.738 150.361 123.06 150.468 123.244 150.683C123.428 150.882 123.527 151.143 123.543 151.465C123.558 151.787 123.52 152.14 123.428 152.523C123.336 152.891 123.244 153.244 123.152 153.581L120.576 162.505ZM138.873 150.821C138.383 150.821 137.907 151.02 137.447 151.419C137.003 151.802 136.589 152.331 136.205 153.006C135.837 153.665 135.508 154.409 135.216 155.237C134.94 156.065 134.726 156.924 134.572 157.813C134.419 158.702 134.342 159.553 134.342 160.366C134.342 161.056 134.45 161.562 134.664 161.884C134.894 162.206 135.224 162.367 135.653 162.367C136.144 162.367 136.612 162.175 137.056 161.792C137.516 161.393 137.938 160.864 138.321 160.205C138.705 159.53 139.034 158.779 139.31 157.951C139.586 157.123 139.801 156.272 139.954 155.398C140.108 154.509 140.184 153.65 140.184 152.822C140.184 152.117 140.077 151.611 139.862 151.304C139.648 150.982 139.318 150.821 138.873 150.821ZM132.364 159.216C132.364 158.541 132.456 157.805 132.64 157.008C132.824 156.211 133.1 155.421 133.468 154.639C133.836 153.857 134.281 153.144 134.802 152.5C135.339 151.856 135.96 151.342 136.665 150.959C137.371 150.56 138.153 150.361 139.011 150.361C139.962 150.361 140.721 150.66 141.288 151.258C141.871 151.841 142.162 152.745 142.162 153.972C142.162 154.647 142.07 155.383 141.886 156.18C141.702 156.977 141.426 157.767 141.058 158.549C140.69 159.331 140.238 160.044 139.701 160.688C139.18 161.332 138.567 161.853 137.861 162.252C137.156 162.635 136.374 162.827 135.515 162.827C134.565 162.827 133.798 162.528 133.215 161.93C132.648 161.332 132.364 160.427 132.364 159.216ZM152.381 160.527C152.35 160.665 152.304 160.849 152.243 161.079C152.197 161.294 152.197 161.493 152.243 161.677C152.304 161.861 152.465 161.953 152.726 161.953C153.032 161.953 153.331 161.784 153.623 161.447C153.914 161.11 154.205 160.496 154.497 159.607L154.773 158.756H155.21L154.635 160.435C154.297 161.355 153.883 161.984 153.393 162.321C152.902 162.658 152.434 162.827 151.99 162.827C151.698 162.827 151.445 162.773 151.231 162.666C151.016 162.559 150.847 162.413 150.725 162.229C150.525 161.876 150.472 161.47 150.564 161.01C150.656 160.535 150.763 160.059 150.886 159.584L153.14 150.683C153.508 150.668 153.876 150.637 154.244 150.591C154.612 150.545 154.949 150.468 155.256 150.361L152.381 160.527ZM144.032 162.482C144.492 162.39 144.898 162.168 145.251 161.815C145.619 161.447 145.933 161.002 146.194 160.481C146.47 159.944 146.707 159.385 146.907 158.802C147.121 158.204 147.305 157.621 147.459 157.054C147.612 156.471 147.742 155.965 147.85 155.536C148.141 154.447 148.44 153.52 148.747 152.753C149.053 151.971 149.406 151.381 149.805 150.982C150.203 150.568 150.679 150.361 151.231 150.361C151.859 150.361 152.304 150.637 152.565 151.189C152.825 151.741 152.871 152.469 152.703 153.374L152.45 153.512C152.557 152.699 152.503 152.048 152.289 151.557C152.074 151.051 151.706 150.798 151.185 150.798C150.74 150.798 150.357 150.974 150.035 151.327C149.728 151.68 149.46 152.132 149.23 152.684C149 153.236 148.793 153.834 148.609 154.478C148.44 155.107 148.279 155.697 148.126 156.249C147.88 157.169 147.62 158.051 147.344 158.894C147.068 159.722 146.738 160.458 146.355 161.102C145.987 161.731 145.527 162.198 144.975 162.505C144.729 162.643 144.492 162.727 144.262 162.758C144.032 162.804 143.84 162.827 143.687 162.827C143.303 162.827 143.02 162.743 142.836 162.574C142.636 162.421 142.537 162.206 142.537 161.93C142.537 161.577 142.667 161.255 142.928 160.964C143.188 160.673 143.51 160.527 143.894 160.527C144.154 160.527 144.346 160.596 144.469 160.734C144.591 160.857 144.653 161.025 144.653 161.24C144.653 161.455 144.591 161.677 144.469 161.907C144.346 162.122 144.193 162.313 144.009 162.482C144.009 162.482 144.016 162.482 144.032 162.482ZM163.59 161.585L162.049 163.264L160.301 152.684C160.224 152.209 160.132 151.879 160.025 151.695C159.917 151.511 159.764 151.419 159.565 151.419C159.396 151.419 159.204 151.557 158.99 151.833C158.775 152.094 158.514 152.661 158.208 153.535L157.909 154.386H157.472L158.047 152.707C158.369 151.772 158.767 151.151 159.243 150.844C159.718 150.522 160.201 150.361 160.692 150.361C161.167 150.361 161.535 150.514 161.796 150.821C162.056 151.112 162.24 151.664 162.348 152.477L163.59 161.585ZM158.553 165.748C159.212 165.395 159.91 164.912 160.646 164.299C161.397 163.701 162.171 162.888 162.969 161.861C163.873 160.711 164.694 159.423 165.43 157.997C166.181 156.556 166.702 155.107 166.994 153.65C166.748 153.512 166.48 153.343 166.189 153.144C165.913 152.929 165.683 152.684 165.499 152.408C165.315 152.117 165.23 151.795 165.246 151.442C165.276 151.089 165.399 150.821 165.614 150.637C165.828 150.453 166.097 150.361 166.419 150.361C166.833 150.361 167.132 150.522 167.316 150.844C167.515 151.151 167.615 151.611 167.615 152.224C167.615 153.006 167.484 153.849 167.224 154.754C166.963 155.643 166.61 156.548 166.166 157.468C165.736 158.388 165.253 159.277 164.717 160.136C164.18 160.979 163.636 161.746 163.084 162.436C162.838 162.743 162.501 163.126 162.072 163.586C161.642 164.046 161.129 164.514 160.531 164.989C159.948 165.48 159.289 165.901 158.553 166.254C158.093 166.469 157.694 166.614 157.357 166.691C157.035 166.783 156.766 166.829 156.552 166.829C156.245 166.829 155.977 166.745 155.747 166.576C155.517 166.423 155.402 166.193 155.402 165.886C155.402 165.549 155.532 165.288 155.793 165.104C156.038 164.935 156.322 164.851 156.644 164.851C156.996 164.851 157.326 164.943 157.633 165.127C157.955 165.311 158.261 165.518 158.553 165.748ZM180.342 162.413C180.848 162.413 181.285 162.237 181.653 161.884C182.021 161.516 182.305 161.071 182.504 160.55C182.719 160.013 182.826 159.484 182.826 158.963C182.826 158.227 182.635 157.66 182.251 157.261C181.868 156.847 181.37 156.632 180.756 156.617L180.618 156.479C181.293 156.356 181.945 156.356 182.573 156.479C183.217 156.602 183.739 156.855 184.137 157.238C184.551 157.621 184.758 158.15 184.758 158.825C184.758 159.3 184.643 159.776 184.413 160.251C184.183 160.726 183.854 161.163 183.424 161.562C182.995 161.945 182.481 162.252 181.883 162.482C181.301 162.712 180.649 162.827 179.928 162.827C179.008 162.827 178.28 162.643 177.743 162.275C177.207 161.907 176.823 161.424 176.593 160.826C176.363 160.228 176.248 159.592 176.248 158.917C176.248 158.12 176.379 157.322 176.639 156.525C176.9 155.712 177.268 154.938 177.743 154.202C178.219 153.466 178.771 152.814 179.399 152.247C180.043 151.664 180.741 151.204 181.492 150.867C182.244 150.53 183.033 150.361 183.861 150.361C184.628 150.361 185.249 150.522 185.724 150.844C186.215 151.151 186.46 151.641 186.46 152.316C186.46 152.975 186.215 153.596 185.724 154.179C185.249 154.746 184.613 155.245 183.815 155.674C183.018 156.088 182.136 156.395 181.17 156.594C180.204 156.793 179.238 156.855 178.272 156.778L178.41 156.41C179.192 156.487 179.951 156.441 180.687 156.272C181.439 156.103 182.106 155.843 182.688 155.49C183.286 155.122 183.754 154.67 184.091 154.133C184.444 153.596 184.62 152.998 184.62 152.339C184.62 151.787 184.505 151.396 184.275 151.166C184.045 150.921 183.762 150.798 183.424 150.798C182.934 150.798 182.397 151.013 181.814 151.442C181.232 151.856 180.68 152.439 180.158 153.19C179.652 153.941 179.231 154.815 178.893 155.812C178.571 156.793 178.41 157.844 178.41 158.963C178.41 159.975 178.564 160.803 178.87 161.447C179.192 162.091 179.683 162.413 180.342 162.413ZM194.684 150.821C194.193 150.821 193.718 151.02 193.258 151.419C192.813 151.802 192.399 152.331 192.016 153.006C191.648 153.665 191.318 154.409 191.027 155.237C190.751 156.065 190.536 156.924 190.383 157.813C190.23 158.702 190.153 159.553 190.153 160.366C190.153 161.056 190.26 161.562 190.475 161.884C190.705 162.206 191.035 162.367 191.464 162.367C191.955 162.367 192.422 162.175 192.867 161.792C193.327 161.393 193.749 160.864 194.132 160.205C194.515 159.53 194.845 158.779 195.121 157.951C195.397 157.123 195.612 156.272 195.765 155.398C195.918 154.509 195.995 153.65 195.995 152.822C195.995 152.117 195.888 151.611 195.673 151.304C195.458 150.982 195.129 150.821 194.684 150.821ZM188.175 159.216C188.175 158.541 188.267 157.805 188.451 157.008C188.635 156.211 188.911 155.421 189.279 154.639C189.647 153.857 190.092 153.144 190.613 152.5C191.15 151.856 191.771 151.342 192.476 150.959C193.181 150.56 193.963 150.361 194.822 150.361C195.773 150.361 196.532 150.66 197.099 151.258C197.682 151.841 197.973 152.745 197.973 153.972C197.973 154.647 197.881 155.383 197.697 156.18C197.513 156.977 197.237 157.767 196.869 158.549C196.501 159.331 196.049 160.044 195.512 160.688C194.991 161.332 194.377 161.853 193.672 162.252C192.967 162.635 192.185 162.827 191.326 162.827C190.375 162.827 189.609 162.528 189.026 161.93C188.459 161.332 188.175 160.427 188.175 159.216ZM208.192 160.527C208.161 160.665 208.115 160.849 208.054 161.079C208.008 161.294 208.008 161.493 208.054 161.677C208.115 161.861 208.276 161.953 208.537 161.953C208.843 161.953 209.142 161.784 209.434 161.447C209.725 161.11 210.016 160.496 210.308 159.607L210.584 158.756H211.021L210.446 160.435C210.108 161.355 209.694 161.984 209.204 162.321C208.713 162.658 208.245 162.827 207.801 162.827C207.509 162.827 207.256 162.773 207.042 162.666C206.827 162.559 206.658 162.413 206.536 162.229C206.336 161.876 206.283 161.47 206.375 161.01C206.467 160.535 206.574 160.059 206.697 159.584L208.951 150.683C209.319 150.668 209.687 150.637 210.055 150.591C210.423 150.545 210.76 150.468 211.067 150.361L208.192 160.527ZM199.843 162.482C200.303 162.39 200.709 162.168 201.062 161.815C201.43 161.447 201.744 161.002 202.005 160.481C202.281 159.944 202.518 159.385 202.718 158.802C202.932 158.204 203.116 157.621 203.27 157.054C203.423 156.471 203.553 155.965 203.661 155.536C203.952 154.447 204.251 153.52 204.558 152.753C204.864 151.971 205.217 151.381 205.616 150.982C206.014 150.568 206.49 150.361 207.042 150.361C207.67 150.361 208.115 150.637 208.376 151.189C208.636 151.741 208.682 152.469 208.514 153.374L208.261 153.512C208.368 152.699 208.314 152.048 208.1 151.557C207.885 151.051 207.517 150.798 206.996 150.798C206.551 150.798 206.168 150.974 205.846 151.327C205.539 151.68 205.271 152.132 205.041 152.684C204.811 153.236 204.604 153.834 204.42 154.478C204.251 155.107 204.09 155.697 203.937 156.249C203.691 157.169 203.431 158.051 203.155 158.894C202.879 159.722 202.549 160.458 202.166 161.102C201.798 161.731 201.338 162.198 200.786 162.505C200.54 162.643 200.303 162.727 200.073 162.758C199.843 162.804 199.651 162.827 199.498 162.827C199.114 162.827 198.831 162.743 198.647 162.574C198.447 162.421 198.348 162.206 198.348 161.93C198.348 161.577 198.478 161.255 198.739 160.964C198.999 160.673 199.321 160.527 199.705 160.527C199.965 160.527 200.157 160.596 200.28 160.734C200.402 160.857 200.464 161.025 200.464 161.24C200.464 161.455 200.402 161.677 200.28 161.907C200.157 162.122 200.004 162.313 199.82 162.482C199.82 162.482 199.827 162.482 199.843 162.482ZM222.018 154.087C221.42 155.682 220.868 157.039 220.362 158.158C219.856 159.262 219.358 160.159 218.867 160.849C218.377 161.539 217.871 162.045 217.349 162.367C216.828 162.674 216.261 162.827 215.647 162.827C215.003 162.827 214.566 162.643 214.336 162.275C214.106 161.907 214.007 161.455 214.037 160.918C214.083 160.381 214.191 159.86 214.359 159.354L216.59 152.638C216.744 152.163 216.797 151.81 216.751 151.58C216.705 151.335 216.529 151.212 216.222 151.212C215.931 151.212 215.64 151.373 215.348 151.695C215.072 152.017 214.773 152.638 214.451 153.558L214.152 154.409H213.715L214.29 152.73C214.52 152.086 214.789 151.595 215.095 151.258C215.417 150.921 215.747 150.691 216.084 150.568C216.437 150.43 216.767 150.361 217.073 150.361C217.748 150.361 218.193 150.522 218.407 150.844C218.637 151.151 218.722 151.549 218.66 152.04C218.614 152.531 218.499 153.044 218.315 153.581L216.13 160.159C215.977 160.634 215.9 161.079 215.9 161.493C215.9 161.892 216.069 162.091 216.406 162.091C216.774 162.091 217.158 161.915 217.556 161.562C217.955 161.209 218.361 160.711 218.775 160.067C219.205 159.423 219.634 158.649 220.063 157.744C220.493 156.839 220.914 155.835 221.328 154.731C221.742 153.612 222.149 152.416 222.547 151.143L222.018 154.087ZM221.88 160.159C221.788 160.466 221.719 160.772 221.673 161.079C221.643 161.37 221.666 161.616 221.742 161.815C221.834 161.999 222.018 162.091 222.294 162.091C222.647 162.091 223.023 161.922 223.421 161.585C223.82 161.232 224.226 160.742 224.64 160.113C225.07 159.484 225.491 158.741 225.905 157.882C226.319 157.023 226.71 156.08 227.078 155.053C227.462 154.026 227.807 152.937 228.113 151.787L227.354 155.467C226.833 156.847 226.335 158.005 225.859 158.94C225.384 159.875 224.916 160.634 224.456 161.217C223.996 161.784 223.529 162.198 223.053 162.459C222.578 162.704 222.072 162.827 221.535 162.827C221.045 162.827 220.684 162.72 220.454 162.505C220.24 162.275 220.109 161.984 220.063 161.631C220.017 161.278 220.025 160.903 220.086 160.504C220.163 160.105 220.247 159.722 220.339 159.354L222.685 150.683C223.069 150.668 223.437 150.637 223.789 150.591C224.157 150.545 224.487 150.468 224.778 150.361L221.88 160.159ZM227.63 160.55C227.6 160.673 227.561 160.849 227.515 161.079C227.469 161.309 227.469 161.516 227.515 161.7C227.561 161.884 227.707 161.976 227.952 161.976C228.29 161.976 228.596 161.8 228.872 161.447C229.164 161.079 229.455 160.473 229.746 159.63L230.045 158.779H230.482L229.907 160.458C229.693 161.102 229.424 161.593 229.102 161.93C228.796 162.267 228.466 162.497 228.113 162.62C227.776 162.758 227.446 162.827 227.124 162.827C226.664 162.827 226.335 162.72 226.135 162.505C225.951 162.306 225.844 162.045 225.813 161.723C225.798 161.401 225.821 161.056 225.882 160.688C225.959 160.305 226.043 159.944 226.135 159.607L228.389 150.683C228.773 150.668 229.141 150.637 229.493 150.591C229.861 150.545 230.191 150.468 230.482 150.361L227.63 160.55ZM234.453 157.284C235.312 156.993 236.086 156.709 236.776 156.433C237.482 156.142 238.041 155.835 238.455 155.513C239.007 155.068 239.444 154.532 239.766 153.903C240.088 153.274 240.249 152.584 240.249 151.833C240.249 151.388 240.219 151.105 240.157 150.982C240.096 150.859 240.004 150.798 239.881 150.798C239.498 150.798 239.084 150.967 238.639 151.304C238.195 151.641 237.758 152.109 237.328 152.707C236.899 153.29 236.5 153.957 236.132 154.708C235.78 155.459 235.496 156.264 235.281 157.123C235.067 157.966 234.959 158.81 234.959 159.653C234.959 160.435 235.105 161.002 235.396 161.355C235.688 161.692 236.071 161.861 236.546 161.861C237.098 161.861 237.681 161.692 238.294 161.355C238.908 161.018 239.506 160.42 240.088 159.561L240.456 159.745C240.165 160.251 239.782 160.742 239.306 161.217C238.831 161.692 238.294 162.083 237.696 162.39C237.114 162.681 236.493 162.827 235.833 162.827C235.22 162.827 234.683 162.704 234.223 162.459C233.763 162.214 233.411 161.853 233.165 161.378C232.92 160.887 232.797 160.289 232.797 159.584C232.797 158.925 232.92 158.189 233.165 157.376C233.411 156.548 233.756 155.728 234.2 154.915C234.66 154.087 235.205 153.328 235.833 152.638C236.462 151.948 237.16 151.396 237.926 150.982C238.693 150.568 239.513 150.361 240.387 150.361C240.863 150.361 241.261 150.491 241.583 150.752C241.921 150.997 242.089 151.373 242.089 151.879C242.089 152.492 241.905 153.067 241.537 153.604C241.185 154.125 240.709 154.608 240.111 155.053C239.529 155.482 238.892 155.866 238.202 156.203C237.512 156.54 236.838 156.832 236.178 157.077C235.519 157.322 234.936 157.522 234.43 157.675L234.453 157.284ZM244.107 159.193C244.107 158.564 244.137 158.043 244.199 157.629C244.26 157.2 244.344 156.694 244.452 156.111C244.59 155.513 244.766 154.861 244.981 154.156C245.195 153.451 245.456 152.738 245.763 152.017C246.069 151.281 246.422 150.576 246.821 149.901C247.235 149.211 247.702 148.605 248.224 148.084C248.592 147.716 249.006 147.394 249.466 147.118C249.941 146.842 250.539 146.62 251.26 146.451C251.796 146.328 252.333 146.236 252.87 146.175C253.406 146.098 253.897 146.029 254.342 145.968C255.032 145.861 255.599 145.715 256.044 145.531C256.504 145.332 256.925 144.964 257.309 144.427L257.631 144.519C257.355 145.025 257.071 145.462 256.78 145.83C256.504 146.183 256.197 146.489 255.86 146.75C255.476 147.026 255.101 147.233 254.733 147.371C254.365 147.494 253.889 147.601 253.307 147.693C252.923 147.754 252.555 147.808 252.203 147.854C251.865 147.9 251.428 147.984 250.892 148.107C250.248 148.26 249.665 148.467 249.144 148.728C248.638 148.973 248.17 149.334 247.741 149.809C247.311 150.269 246.905 150.882 246.522 151.649C246.154 152.416 245.77 153.389 245.372 154.57L244.107 159.193ZM250.616 150.821C250.125 150.821 249.65 151.02 249.19 151.419C248.745 151.802 248.331 152.331 247.948 153.006C247.58 153.665 247.25 154.409 246.959 155.237C246.683 156.065 246.468 156.924 246.315 157.813C246.161 158.702 246.085 159.553 246.085 160.366C246.085 161.056 246.192 161.562 246.407 161.884C246.637 162.206 246.966 162.367 247.396 162.367C247.886 162.367 248.354 162.175 248.799 161.792C249.259 161.393 249.68 160.864 250.064 160.205C250.447 159.53 250.777 158.779 251.053 157.951C251.329 157.123 251.543 156.272 251.697 155.398C251.85 154.509 251.927 153.65 251.927 152.822C251.927 152.117 251.819 151.611 251.605 151.304C251.39 150.982 251.06 150.821 250.616 150.821ZM244.107 159.216C244.107 158.541 244.199 157.805 244.383 157.008C244.567 156.211 244.843 155.421 245.211 154.639C245.579 153.857 246.023 153.144 246.545 152.5C247.081 151.856 247.702 151.342 248.408 150.959C249.113 150.56 249.895 150.361 250.754 150.361C251.704 150.361 252.463 150.66 253.031 151.258C253.613 151.841 253.905 152.745 253.905 153.972C253.905 154.647 253.813 155.383 253.629 156.18C253.445 156.977 253.169 157.767 252.801 158.549C252.433 159.331 251.98 160.044 251.444 160.688C250.922 161.332 250.309 161.853 249.604 162.252C248.898 162.635 248.116 162.827 247.258 162.827C246.307 162.827 245.54 162.528 244.958 161.93C244.39 161.332 244.107 160.427 244.107 159.216ZM263.196 150.821C262.613 150.821 262.03 151.059 261.448 151.534C260.88 152.009 260.359 152.661 259.884 153.489C259.408 154.317 259.025 155.26 258.734 156.318C258.458 157.376 258.32 158.488 258.32 159.653C258.32 160.435 258.465 161.002 258.757 161.355C259.063 161.692 259.454 161.861 259.93 161.861C260.482 161.861 261.049 161.692 261.632 161.355C262.214 161.018 262.797 160.42 263.38 159.561L263.84 159.745C263.548 160.251 263.165 160.742 262.69 161.217C262.214 161.692 261.678 162.083 261.08 162.39C260.497 162.681 259.876 162.827 259.217 162.827C258.297 162.827 257.561 162.543 257.009 161.976C256.457 161.409 256.181 160.565 256.181 159.446C256.181 158.741 256.28 157.982 256.48 157.169C256.694 156.341 256.993 155.528 257.377 154.731C257.775 153.918 258.258 153.19 258.826 152.546C259.393 151.887 260.037 151.358 260.758 150.959C261.478 150.56 262.268 150.361 263.127 150.361C263.801 150.361 264.384 150.537 264.875 150.89C265.365 151.227 265.611 151.703 265.611 152.316C265.611 152.607 265.542 152.899 265.404 153.19C265.281 153.466 265.097 153.696 264.852 153.88C264.606 154.064 264.315 154.156 263.978 154.156C263.656 154.156 263.418 154.072 263.265 153.903C263.111 153.719 263.035 153.504 263.035 153.259C263.035 152.814 263.211 152.439 263.564 152.132C263.916 151.81 264.315 151.611 264.76 151.534C264.606 151.319 264.407 151.151 264.162 151.028C263.916 150.89 263.594 150.821 263.196 150.821ZM269.397 162.505H267.396L270.156 152.638C270.202 152.5 270.241 152.324 270.271 152.109C270.317 151.879 270.317 151.672 270.271 151.488C270.225 151.304 270.08 151.212 269.834 151.212C269.497 151.212 269.19 151.388 268.914 151.741C268.638 152.094 268.347 152.699 268.04 153.558L267.741 154.409H267.304L267.879 152.73C268.109 152.086 268.378 151.595 268.684 151.258C269.006 150.921 269.336 150.691 269.673 150.568C270.026 150.43 270.356 150.361 270.662 150.361C271.122 150.361 271.452 150.468 271.651 150.683C271.851 150.882 271.958 151.151 271.973 151.488C272.004 151.81 271.981 152.155 271.904 152.523C271.828 152.891 271.743 153.244 271.651 153.581L269.397 162.505ZM275.906 153.029C276.014 152.707 276.083 152.4 276.113 152.109C276.159 151.818 276.136 151.58 276.044 151.396C275.968 151.197 275.784 151.097 275.492 151.097C275.063 151.097 274.588 151.365 274.066 151.902C273.56 152.423 273.039 153.159 272.502 154.11C271.981 155.045 271.475 156.142 270.984 157.399C270.494 158.641 270.057 159.975 269.673 161.401L270.432 157.721C271.138 155.881 271.797 154.424 272.41 153.351C273.024 152.278 273.637 151.511 274.25 151.051C274.879 150.591 275.546 150.361 276.251 150.361C276.742 150.361 277.095 150.476 277.309 150.706C277.539 150.921 277.677 151.204 277.723 151.557C277.769 151.91 277.754 152.285 277.677 152.684C277.616 153.083 277.539 153.466 277.447 153.834L275.101 162.505H273.031L275.906 153.029ZM281.656 153.029C281.81 152.554 281.886 152.117 281.886 151.718C281.886 151.304 281.718 151.097 281.38 151.097C280.92 151.097 280.437 151.365 279.931 151.902C279.425 152.439 278.904 153.205 278.367 154.202C277.831 155.183 277.294 156.341 276.757 157.675C276.236 158.994 275.73 160.45 275.239 162.045L275.768 159.101C276.366 157.506 276.918 156.157 277.424 155.053C277.93 153.934 278.429 153.029 278.919 152.339C279.41 151.649 279.916 151.151 280.437 150.844C280.959 150.522 281.526 150.361 282.139 150.361C282.783 150.361 283.22 150.545 283.45 150.913C283.68 151.281 283.772 151.733 283.726 152.27C283.696 152.791 283.596 153.313 283.427 153.834L281.196 160.55C281.043 161.025 280.989 161.386 281.035 161.631C281.081 161.861 281.258 161.976 281.564 161.976C281.856 161.976 282.139 161.815 282.415 161.493C282.707 161.171 283.013 160.55 283.335 159.63L283.634 158.779H284.071L283.496 160.458C283.282 161.102 283.013 161.593 282.691 161.93C282.385 162.267 282.055 162.497 281.702 162.62C281.365 162.758 281.035 162.827 280.713 162.827C280.33 162.827 280.023 162.766 279.793 162.643C279.579 162.536 279.41 162.39 279.287 162.206C279.103 161.915 279.042 161.554 279.103 161.125C279.165 160.68 279.287 160.174 279.471 159.607L281.656 153.029ZM290.663 162.413C291.169 162.413 291.606 162.237 291.974 161.884C292.342 161.516 292.626 161.071 292.825 160.55C293.04 160.013 293.147 159.484 293.147 158.963C293.147 158.227 292.955 157.66 292.572 157.261C292.189 156.847 291.69 156.632 291.077 156.617L290.939 156.479C291.614 156.356 292.265 156.356 292.894 156.479C293.538 156.602 294.059 156.855 294.458 157.238C294.872 157.621 295.079 158.15 295.079 158.825C295.079 159.3 294.964 159.776 294.734 160.251C294.504 160.726 294.174 161.163 293.745 161.562C293.316 161.945 292.802 162.252 292.204 162.482C291.621 162.712 290.97 162.827 290.249 162.827C289.329 162.827 288.601 162.643 288.064 162.275C287.527 161.907 287.144 161.424 286.914 160.826C286.684 160.228 286.569 159.592 286.569 158.917C286.569 158.12 286.699 157.322 286.96 156.525C287.221 155.712 287.589 154.938 288.064 154.202C288.539 153.466 289.091 152.814 289.72 152.247C290.364 151.664 291.062 151.204 291.813 150.867C292.564 150.53 293.354 150.361 294.182 150.361C294.949 150.361 295.57 150.522 296.045 150.844C296.536 151.151 296.781 151.641 296.781 152.316C296.781 152.975 296.536 153.596 296.045 154.179C295.57 154.746 294.933 155.245 294.136 155.674C293.339 156.088 292.457 156.395 291.491 156.594C290.525 156.793 289.559 156.855 288.593 156.778L288.731 156.41C289.513 156.487 290.272 156.441 291.008 156.272C291.759 156.103 292.426 155.843 293.009 155.49C293.607 155.122 294.075 154.67 294.412 154.133C294.765 153.596 294.941 152.998 294.941 152.339C294.941 151.787 294.826 151.396 294.596 151.166C294.366 150.921 294.082 150.798 293.745 150.798C293.254 150.798 292.718 151.013 292.135 151.442C291.552 151.856 291 152.439 290.479 153.19C289.973 153.941 289.551 154.815 289.214 155.812C288.892 156.793 288.731 157.844 288.731 158.963C288.731 159.975 288.884 160.803 289.191 161.447C289.513 162.091 290.004 162.413 290.663 162.413ZM301.049 162.091C301.417 162.091 301.839 161.861 302.314 161.401C302.789 160.926 303.272 160.289 303.763 159.492C304.254 158.695 304.706 157.79 305.12 156.778C305.534 155.766 305.864 154.716 306.109 153.627L305.718 156.111C305.135 157.736 304.553 159.047 303.97 160.044C303.387 161.025 302.797 161.738 302.199 162.183C301.601 162.612 300.995 162.827 300.382 162.827C299.661 162.827 299.117 162.566 298.749 162.045C298.396 161.524 298.22 160.857 298.22 160.044C298.22 159.308 298.343 158.511 298.588 157.652C298.833 156.778 299.171 155.912 299.6 155.053C300.045 154.194 300.551 153.412 301.118 152.707C301.685 152.002 302.299 151.434 302.958 151.005C303.633 150.576 304.315 150.361 305.005 150.361C305.542 150.361 305.948 150.629 306.224 151.166C306.515 151.687 306.577 152.423 306.408 153.374L306.155 153.512C306.262 152.699 306.209 152.048 305.994 151.557C305.779 151.051 305.427 150.798 304.936 150.798C304.537 150.798 304.116 150.997 303.671 151.396C303.242 151.779 302.82 152.308 302.406 152.983C302.007 153.642 301.639 154.386 301.302 155.214C300.98 156.042 300.719 156.901 300.52 157.79C300.336 158.664 300.244 159.507 300.244 160.32C300.244 160.979 300.313 161.439 300.451 161.7C300.604 161.961 300.804 162.091 301.049 162.091ZM306.845 150.683C307.213 150.668 307.581 150.637 307.949 150.591C308.317 150.545 308.654 150.468 308.961 150.361L306.086 160.527C306.055 160.665 306.009 160.849 305.948 161.079C305.902 161.294 305.902 161.493 305.948 161.677C306.009 161.861 306.17 161.953 306.431 161.953C306.738 161.953 307.037 161.784 307.328 161.447C307.619 161.11 307.911 160.496 308.202 159.607L308.478 158.756H308.915L308.34 160.435C308.125 161.048 307.865 161.531 307.558 161.884C307.267 162.221 306.96 162.459 306.638 162.597C306.316 162.75 306.002 162.827 305.695 162.827C305.097 162.827 304.675 162.628 304.43 162.229C304.231 161.876 304.177 161.47 304.269 161.01C304.361 160.535 304.468 160.059 304.591 159.584L306.845 150.683Z" fill="black"/>
<path d="M66 182H326.5" stroke="black" stroke-width="2" stroke-linecap="round"/>
<path d="M65 86H325.5" stroke="black" stroke-width="2" stroke-linecap="round"/>
<path d="M564 0V273" stroke="black" stroke-width="2" stroke-linecap="round" stroke-dasharray="14 14"/>
<path d="M587.528 118.513C587.865 118.574 588.111 118.574 588.264 118.513C588.402 118.452 588.471 118.298 588.471 118.053C588.471 117.746 588.302 117.463 587.965 117.202C587.612 116.926 586.999 116.642 586.125 116.351L585.274 116.075V115.638L586.953 116.19C587.566 116.389 588.049 116.635 588.402 116.926C588.739 117.202 588.977 117.516 589.115 117.869C589.253 118.206 589.322 118.559 589.322 118.927C589.322 119.418 589.153 119.816 588.816 120.123C588.463 120.43 587.904 120.499 587.137 120.33L585.619 120.008C584.73 119.824 584.078 119.924 583.664 120.307C583.235 120.675 582.974 121.503 582.882 122.791H582.79C582.744 122.208 582.744 121.618 582.79 121.02C582.836 120.407 582.966 119.862 583.181 119.387C583.38 118.912 583.687 118.551 584.101 118.306C584.5 118.061 585.029 118.007 585.688 118.145L587.528 118.513ZM577.339 116.489C577.339 116.673 577.37 116.834 577.431 116.972C577.492 117.095 577.569 117.217 577.661 117.34C577.891 117.631 578.221 117.884 578.65 118.099C579.079 118.298 579.539 118.505 580.03 118.72C580.505 118.919 580.965 119.172 581.41 119.479C581.839 119.77 582.192 120.161 582.468 120.652C582.744 121.127 582.874 121.748 582.859 122.515L582.882 122.745L582.629 122.699C582.583 121.948 582.414 121.342 582.123 120.882C581.832 120.422 581.471 120.054 581.042 119.778C580.613 119.502 580.168 119.272 579.708 119.088C579.233 118.889 578.788 118.689 578.374 118.49C577.96 118.275 577.63 118.007 577.385 117.685C577.17 117.409 577.032 117.164 576.971 116.949C576.894 116.719 576.856 116.504 576.856 116.305C576.856 115.768 576.994 115.4 577.27 115.201C577.531 115.002 577.845 114.917 578.213 114.948C578.397 114.963 578.604 115.017 578.834 115.109C579.064 115.201 579.263 115.347 579.432 115.546C579.601 115.73 579.685 115.975 579.685 116.282C579.685 116.619 579.585 116.857 579.386 116.995C579.171 117.133 578.941 117.194 578.696 117.179C578.481 117.164 578.251 117.087 578.006 116.949C577.745 116.811 577.523 116.642 577.339 116.443C577.339 116.458 577.339 116.466 577.339 116.466C577.339 116.466 577.339 116.474 577.339 116.489ZM589 124.493V126.471L579.133 123.389C578.98 123.328 578.796 123.274 578.581 123.228C578.351 123.182 578.152 123.182 577.983 123.228C577.799 123.274 577.707 123.42 577.707 123.665C577.707 124.002 577.883 124.317 578.236 124.608C578.589 124.899 579.194 125.206 580.053 125.528L580.904 125.85V126.287L579.225 125.666C578.581 125.421 578.09 125.137 577.753 124.815C577.416 124.478 577.186 124.133 577.063 123.78C576.925 123.427 576.856 123.098 576.856 122.791C576.856 122.331 576.963 122.009 577.178 121.825C577.377 121.641 577.638 121.541 577.96 121.526C578.282 121.511 578.635 121.549 579.018 121.641C579.386 121.733 579.739 121.825 580.076 121.917L589 124.493ZM577.316 106.195C577.316 106.686 577.515 107.161 577.914 107.621C578.297 108.066 578.826 108.48 579.501 108.863C580.16 109.231 580.904 109.561 581.732 109.852C582.56 110.128 583.419 110.343 584.308 110.496C585.197 110.65 586.048 110.726 586.861 110.726C587.551 110.726 588.057 110.619 588.379 110.404C588.701 110.174 588.862 109.845 588.862 109.415C588.862 108.925 588.67 108.457 588.287 108.012C587.888 107.552 587.359 107.131 586.7 106.747C586.025 106.364 585.274 106.034 584.446 105.758C583.618 105.482 582.767 105.268 581.893 105.114C581.004 104.961 580.145 104.884 579.317 104.884C578.612 104.884 578.106 104.992 577.799 105.206C577.477 105.421 577.316 105.751 577.316 106.195ZM585.711 112.704C585.036 112.704 584.3 112.612 583.503 112.428C582.706 112.244 581.916 111.968 581.134 111.6C580.352 111.232 579.639 110.788 578.995 110.266C578.351 109.73 577.837 109.109 577.454 108.403C577.055 107.698 576.856 106.916 576.856 106.057C576.856 105.107 577.155 104.348 577.753 103.78C578.336 103.198 579.24 102.906 580.467 102.906C581.142 102.906 581.878 102.998 582.675 103.182C583.472 103.366 584.262 103.642 585.044 104.01C585.826 104.378 586.539 104.831 587.183 105.367C587.827 105.889 588.348 106.502 588.747 107.207C589.13 107.913 589.322 108.695 589.322 109.553C589.322 110.504 589.023 111.271 588.425 111.853C587.827 112.421 586.922 112.704 585.711 112.704ZM582.583 97.518V91.308H583.043V97.518H582.583ZM589 98.254V100.255L579.133 97.495C578.98 97.449 578.796 97.403 578.581 97.357C578.351 97.311 578.152 97.3186 577.983 97.38C577.799 97.426 577.707 97.5716 577.707 97.817C577.707 98.1543 577.883 98.461 578.236 98.737C578.589 99.013 579.194 99.3043 580.053 99.611L580.904 99.91V100.347L579.225 99.772C578.581 99.542 578.09 99.2736 577.753 98.967C577.416 98.645 577.186 98.3153 577.063 97.978C576.925 97.6253 576.856 97.2956 576.856 96.989C576.856 96.529 576.963 96.207 577.178 96.023C577.377 95.8236 577.638 95.7163 577.96 95.701C578.282 95.6703 578.635 95.6933 579.018 95.77C579.386 95.8313 579.739 95.908 580.076 96L589 98.254ZM587.045 91.538C587.459 91.6453 587.804 91.699 588.08 91.699C588.341 91.6836 588.471 91.5226 588.471 91.216C588.471 90.8786 588.295 90.572 587.942 90.296C587.574 90.0046 586.968 89.7133 586.125 89.422L585.274 89.123V88.686L586.953 89.261C587.597 89.4756 588.088 89.744 588.425 90.066C588.762 90.3726 588.992 90.7023 589.115 91.055C589.253 91.3923 589.322 91.722 589.322 92.044C589.322 92.2893 589.268 92.5193 589.161 92.734C589.054 92.9486 588.9 93.1096 588.701 93.217C588.44 93.3396 588.111 93.3856 587.712 93.355C587.313 93.309 586.777 93.2016 586.102 93.033L577.178 90.779C577.163 90.3956 577.132 90.0276 577.086 89.675C577.04 89.307 576.963 88.9773 576.856 88.686L587.045 91.538ZM589 83.8574V85.8584L579.133 83.0984C578.995 83.0524 578.819 83.0141 578.604 82.9834C578.374 82.9374 578.167 82.9374 577.983 82.9834C577.799 83.0294 577.707 83.1751 577.707 83.4204C577.707 83.7577 577.883 84.0644 578.236 84.3404C578.589 84.6164 579.194 84.9077 580.053 85.2144L580.904 85.5134V85.9504L579.225 85.3754C578.581 85.1454 578.09 84.8771 577.753 84.5704C577.416 84.2484 577.186 83.9187 577.063 83.5814C576.925 83.2287 576.856 82.8991 576.856 82.5924C576.856 82.1324 576.963 81.8027 577.178 81.6034C577.377 81.4041 577.646 81.2967 577.983 81.2814C578.305 81.2507 578.65 81.2737 579.018 81.3504C579.386 81.4271 579.739 81.5114 580.076 81.6034L589 83.8574ZM579.524 77.3484C579.202 77.2411 578.895 77.1721 578.604 77.1414C578.313 77.0954 578.075 77.1184 577.891 77.2104C577.692 77.2871 577.592 77.4711 577.592 77.7624C577.592 78.1917 577.86 78.6671 578.397 79.1884C578.918 79.6944 579.654 80.2157 580.605 80.7524C581.54 81.2737 582.637 81.7797 583.894 82.2704C585.136 82.7611 586.47 83.1981 587.896 83.5814L584.216 82.8224C582.376 82.1171 580.919 81.4577 579.846 80.8444C578.773 80.2311 578.006 79.6177 577.546 79.0044C577.086 78.3757 576.856 77.7087 576.856 77.0034C576.856 76.5127 576.971 76.1601 577.201 75.9454C577.416 75.7154 577.699 75.5774 578.052 75.5314C578.405 75.4854 578.78 75.5007 579.179 75.5774C579.578 75.6387 579.961 75.7154 580.329 75.8074L589 78.1534V80.2234L579.524 77.3484ZM579.524 71.5984C579.049 71.4451 578.612 71.3684 578.213 71.3684C577.799 71.3684 577.592 71.5371 577.592 71.8744C577.592 72.3344 577.86 72.8174 578.397 73.3234C578.934 73.8294 579.7 74.3507 580.697 74.8874C581.678 75.4241 582.836 75.9607 584.17 76.4974C585.489 77.0187 586.945 77.5247 588.54 78.0154L585.596 77.4864C584.001 76.8884 582.652 76.3364 581.548 75.8304C580.429 75.3244 579.524 74.8261 578.834 74.3354C578.144 73.8447 577.646 73.3387 577.339 72.8174C577.017 72.2961 576.856 71.7287 576.856 71.1154C576.856 70.4714 577.04 70.0344 577.408 69.8044C577.776 69.5744 578.228 69.4824 578.765 69.5284C579.286 69.5591 579.808 69.6587 580.329 69.8274L587.045 72.0584C587.52 72.2117 587.881 72.2654 588.126 72.2194C588.356 72.1734 588.471 71.9971 588.471 71.6904C588.471 71.3991 588.31 71.1154 587.988 70.8394C587.666 70.5481 587.045 70.2414 586.125 69.9194L585.274 69.6204V69.1834L586.953 69.7584C587.597 69.9731 588.088 70.2414 588.425 70.5634C588.762 70.8701 588.992 71.1997 589.115 71.5524C589.253 71.8897 589.322 72.2194 589.322 72.5414C589.322 72.9247 589.261 73.2314 589.138 73.4614C589.031 73.6761 588.885 73.8447 588.701 73.9674C588.41 74.1514 588.049 74.2127 587.62 74.1514C587.175 74.0901 586.669 73.9674 586.102 73.7834L579.524 71.5984ZM577.592 58.3827C577.592 58.7814 577.876 59.2337 578.443 59.7397C578.995 60.2304 579.754 60.7364 580.72 61.2577C581.671 61.7637 582.744 62.2467 583.94 62.7067C585.136 63.1514 586.378 63.5271 587.666 63.8337L585.182 63.4197C583.173 62.7604 581.563 62.1241 580.352 61.5107C579.125 60.8974 578.236 60.2841 577.684 59.6707C577.132 59.0421 576.856 58.3904 576.856 57.7157C576.856 56.9951 577.124 56.4201 577.661 55.9907C578.198 55.5461 579.01 55.3237 580.099 55.3237C580.789 55.3237 581.548 55.4234 582.376 55.6227C583.204 55.8067 584.024 56.0904 584.837 56.4737C585.65 56.8417 586.401 57.3017 587.091 57.8537C587.766 58.3904 588.31 59.0114 588.724 59.7167C589.123 60.4221 589.322 61.2041 589.322 62.0627C589.322 62.5227 589.184 62.9367 588.908 63.3047C588.632 63.6574 588.233 63.8951 587.712 64.0177L587.252 63.8337C587.819 63.6191 588.218 63.3737 588.448 63.0977C588.678 62.8064 588.793 62.4691 588.793 62.0857C588.793 61.5644 588.594 61.0661 588.195 60.5907C587.781 60.1154 587.237 59.6784 586.562 59.2797C585.887 58.8811 585.144 58.5361 584.331 58.2447C583.503 57.9381 582.683 57.7081 581.87 57.5547C581.042 57.3861 580.283 57.3017 579.593 57.3017C578.918 57.3017 578.42 57.4014 578.098 57.6007C577.761 57.7847 577.592 58.0454 577.592 58.3827ZM573.659 61.8327C573.644 61.4647 573.613 61.1044 573.567 60.7517C573.521 60.3837 573.444 60.0464 573.337 59.7397L591.024 64.7997C591.668 64.9837 592.105 64.8917 592.335 64.5237C592.565 64.1557 592.68 63.6267 592.68 62.9367L593.163 63.0747C593.148 63.3814 593.125 63.8184 593.094 64.3857C593.079 64.9377 593.071 65.5281 593.071 66.1567C593.071 66.6321 593.079 67.1151 593.094 67.6057C593.125 68.0964 593.148 68.4644 593.163 68.7097L592.68 68.5717C592.68 68.0197 592.573 67.6211 592.358 67.3757C592.159 67.1304 591.791 66.9311 591.254 66.7777L573.659 61.8327ZM580.789 66.6167C580.206 66.0187 579.631 65.4591 579.064 64.9377C578.481 64.4164 577.791 63.9104 576.994 63.4197C576.197 62.9291 575.192 62.4307 573.981 61.9247L574.349 61.8557C575.392 62.1931 576.312 62.5994 577.109 63.0747C577.891 63.5347 578.604 64.0407 579.248 64.5927C579.877 65.1447 580.49 65.7351 581.088 66.3637L580.789 66.6167ZM577.316 46.5428C577.316 47.0334 577.515 47.5088 577.914 47.9688C578.297 48.4134 578.826 48.8274 579.501 49.2108C580.16 49.5788 580.904 49.9084 581.732 50.1998C582.56 50.4758 583.419 50.6904 584.308 50.8438C585.197 50.9971 586.048 51.0738 586.861 51.0738C587.551 51.0738 588.057 50.9664 588.379 50.7518C588.701 50.5218 588.862 50.1921 588.862 49.7628C588.862 49.2721 588.67 48.8044 588.287 48.3598C587.888 47.8998 587.359 47.4781 586.7 47.0948C586.025 46.7114 585.274 46.3818 584.446 46.1058C583.618 45.8298 582.767 45.6151 581.893 45.4618C581.004 45.3084 580.145 45.2318 579.317 45.2318C578.612 45.2318 578.106 45.3391 577.799 45.5538C577.477 45.7684 577.316 46.0981 577.316 46.5428ZM585.711 53.0518C585.036 53.0518 584.3 52.9598 583.503 52.7758C582.706 52.5918 581.916 52.3158 581.134 51.9478C580.352 51.5798 579.639 51.1351 578.995 50.6138C578.351 50.0771 577.837 49.4561 577.454 48.7508C577.055 48.0454 576.856 47.2634 576.856 46.4048C576.856 45.4541 577.155 44.6951 577.753 44.1278C578.336 43.5451 579.24 43.2538 580.467 43.2538C581.142 43.2538 581.878 43.3458 582.675 43.5298C583.472 43.7138 584.262 43.9898 585.044 44.3578C585.826 44.7258 586.539 45.1781 587.183 45.7148C587.827 46.2361 588.348 46.8494 588.747 47.5548C589.13 48.2601 589.322 49.0421 589.322 49.9008C589.322 50.8514 589.023 51.6181 588.425 52.2008C587.827 52.7681 586.922 53.0518 585.711 53.0518ZM587.022 33.0353C587.16 33.066 587.344 33.112 587.574 33.1733C587.789 33.2193 587.988 33.2193 588.172 33.1733C588.356 33.112 588.448 32.951 588.448 32.6903C588.448 32.3836 588.279 32.0846 587.942 31.7933C587.605 31.502 586.991 31.2106 586.102 30.9193L585.251 30.6433V30.2063L586.93 30.7813C587.85 31.1186 588.479 31.5326 588.816 32.0233C589.153 32.514 589.322 32.9816 589.322 33.4263C589.322 33.7176 589.268 33.9706 589.161 34.1853C589.054 34.4 588.908 34.5686 588.724 34.6913C588.371 34.8906 587.965 34.9443 587.505 34.8523C587.03 34.7603 586.554 34.653 586.079 34.5303L577.178 32.2763C577.163 31.9083 577.132 31.5403 577.086 31.1723C577.04 30.8043 576.963 30.467 576.856 30.1603L587.022 33.0353ZM588.977 41.3843C588.885 40.9243 588.663 40.518 588.31 40.1653C587.942 39.7973 587.497 39.483 586.976 39.2223C586.439 38.9463 585.88 38.7086 585.297 38.5093C584.699 38.2946 584.116 38.1106 583.549 37.9573C582.966 37.804 582.46 37.6736 582.031 37.5663C580.942 37.275 580.015 36.976 579.248 36.6693C578.466 36.3626 577.876 36.01 577.477 35.6113C577.063 35.2126 576.856 34.7373 576.856 34.1853C576.856 33.5566 577.132 33.112 577.684 32.8513C578.236 32.5906 578.964 32.5446 579.869 32.7133L580.007 32.9663C579.194 32.859 578.543 32.9126 578.052 33.1273C577.546 33.342 577.293 33.71 577.293 34.2313C577.293 34.676 577.469 35.0593 577.822 35.3813C578.175 35.688 578.627 35.9563 579.179 36.1863C579.731 36.4163 580.329 36.6233 580.973 36.8073C581.602 36.976 582.192 37.137 582.744 37.2903C583.664 37.5356 584.546 37.7963 585.389 38.0723C586.217 38.3483 586.953 38.678 587.597 39.0613C588.226 39.4293 588.693 39.8893 589 40.4413C589.138 40.6866 589.222 40.9243 589.253 41.1543C589.299 41.3843 589.322 41.576 589.322 41.7293C589.322 42.1126 589.238 42.3963 589.069 42.5803C588.916 42.7796 588.701 42.8793 588.425 42.8793C588.072 42.8793 587.75 42.749 587.459 42.4883C587.168 42.2276 587.022 41.9056 587.022 41.5223C587.022 41.2616 587.091 41.07 587.229 40.9473C587.352 40.8246 587.52 40.7633 587.735 40.7633C587.95 40.7633 588.172 40.8246 588.402 40.9473C588.617 41.07 588.808 41.2233 588.977 41.4073C588.977 41.4073 588.977 41.3996 588.977 41.3843ZM582.376 21.6467C582.376 20.834 582.598 20.2054 583.043 19.7607C583.488 19.316 584.078 19.0937 584.814 19.0937C585.504 19.0937 586.202 19.293 586.907 19.6917C587.597 20.0904 588.172 20.6577 588.632 21.3937C589.092 22.1144 589.322 22.9884 589.322 24.0157C589.322 24.583 589.23 25.1044 589.046 25.5797C588.862 26.0397 588.563 26.4077 588.149 26.6837C587.72 26.9597 587.168 27.09 586.493 27.0747C585.803 27.0594 584.952 26.86 583.94 26.4767L579.133 24.6137C578.934 24.537 578.727 24.4834 578.512 24.4527C578.282 24.4067 578.09 24.422 577.937 24.4987C577.784 24.56 577.707 24.7134 577.707 24.9587C577.707 25.296 577.899 25.6027 578.282 25.8787C578.65 26.1547 579.24 26.4384 580.053 26.7297L580.904 27.0287V27.4657L579.225 26.8907C578.612 26.676 578.136 26.4154 577.799 26.1087C577.446 25.802 577.201 25.4724 577.063 25.1197C576.925 24.767 576.856 24.4297 576.856 24.1077C576.856 23.2644 577.132 22.789 577.684 22.6817C578.236 22.559 579.033 22.7047 580.076 23.1187L584.607 24.9127C585.696 25.342 586.554 25.5567 587.183 25.5567C587.812 25.5414 588.256 25.3957 588.517 25.1197C588.778 24.8284 588.908 24.491 588.908 24.1077C588.908 23.6324 588.755 23.157 588.448 22.6817C588.126 22.191 587.674 21.777 587.091 21.4397C586.508 21.1024 585.811 20.9337 584.998 20.9337C584.415 20.9337 583.948 21.0487 583.595 21.2787C583.227 21.4934 583.043 21.8767 583.043 22.4287C583.043 22.858 583.173 23.318 583.434 23.8087C583.695 24.2994 584.078 24.6827 584.584 24.9587L584.331 25.0967C583.626 24.652 583.127 24.1154 582.836 23.4867C582.529 22.8427 582.376 22.2294 582.376 21.6467Z" fill="black"/>
</g>
<rect x="1.5" y="1.5" width="647" height="270" stroke="black" stroke-width="3"/>
<defs>
<clipPath id="clip0_143_307">
<rect width="650" height="273" fill="white"/>
</clipPath>
</defs>
</svg>
