<svg width="781" height="981" viewBox="0 0 781 981" fill="none" xmlns="http://www.w3.org/2000/svg">
<path d="M477.572 305.543V374.535V419.737C472.815 490.156 474.003 518.07 475.191 523.225V511.33C476.381 491.108 489.189 483.038 505.841 484.228C525 485.596 529.311 502.656 530.5 509C534.437 530 516.426 543.843 509.685 548.205C522.769 563.669 539.422 646.935 539.422 656.451C539.422 665.967 551.316 712.358 560.832 724.254C568.445 733.77 565.59 744.872 563.211 749.233C557.66 755.578 546.796 771.359 547.748 783.729C548.7 796.1 537.043 799.193 531.096 799.193C534.883 805.822 550.762 907.221 558.341 957.837C558.408 958.291 558.78 958.62 559.236 958.672C574.957 960.49 582.801 969.795 585.783 976.455C586.569 978.212 585.168 980 583.244 980H540.413C536.432 980 532.997 977.078 532.657 973.111C532.273 968.617 532.249 963.952 533.474 961.5C535.378 957.694 534.267 946.693 533.474 943.125C512.54 864.141 496.998 830.121 491.844 822.984C462.107 811.088 443.379 919.731 441 958.589C451.606 960.104 461.869 969.762 465.813 976.037C467.059 978.019 465.493 980 463.153 980H413.289C410.384 980 407.532 978.437 407.051 975.572C405.733 967.735 410.522 958.636 414.5 953C421.161 925.403 427.613 866.203 428.803 842.016C380.035 908.629 338.404 887.218 321.752 874.133C308.43 863.665 293.998 863.427 288.447 864.617C270.209 870.961 233.494 877.939 232.542 855.101C231.353 826.552 221.838 811.088 188.533 789.677C161.889 772.548 170.295 730.994 177.828 712.358C199.238 796.814 269.565 759.939 278.931 749.233C287.258 739.717 309.857 705.221 315.805 699.274C321.752 693.326 381.225 652.882 413.34 632.661C445.455 612.439 441.887 548.205 431.182 526.793C422.618 509.664 415.719 469.697 413.34 451.854L462.109 409.031C453.544 396.66 462.505 380.879 468.056 374.535L477.572 305.543Z" fill="#1B1B1B"/>
<path d="M477.572 305.543V374.535C477.572 381.196 477.572 407.445 477.572 419.737C472.815 490.156 474.003 518.07 475.191 523.225V511.33C476.381 491.108 489.189 483.038 505.841 484.228C525 485.596 529.311 502.656 530.5 509C534.437 530 516.426 543.843 509.685 548.205C522.769 563.669 539.422 646.935 539.422 656.451C539.422 665.967 551.316 712.358 560.832 724.254C568.445 733.77 565.59 744.872 563.211 749.233C557.66 755.578 546.796 771.359 547.748 783.729C548.7 796.1 537.043 799.193 531.096 799.193C534.883 805.822 550.762 907.221 558.341 957.837C558.408 958.291 558.78 958.62 559.236 958.672C574.957 960.49 582.801 969.795 585.783 976.455C586.569 978.212 585.168 980 583.244 980H540.413C536.432 980 532.997 977.078 532.657 973.111C532.273 968.617 532.249 963.952 533.474 961.5C535.378 957.694 534.267 946.693 533.474 943.125C512.54 864.141 496.998 830.121 491.844 822.984C462.107 811.088 443.379 919.731 441 958.589C451.606 960.104 461.869 969.762 465.813 976.037C467.059 978.019 465.493 980 463.153 980H413.289C410.384 980 407.532 978.437 407.051 975.572C405.733 967.735 410.522 958.636 414.5 953C421.161 925.403 427.613 866.203 428.803 842.016C380.035 908.629 338.404 887.218 321.752 874.133C308.43 863.665 293.998 863.427 288.447 864.617C270.209 870.961 233.494 877.939 232.542 855.101C231.353 826.552 221.838 811.088 188.533 789.677C161.889 772.548 170.295 730.994 177.828 712.358C199.238 796.814 269.565 759.939 278.931 749.233C287.258 739.717 309.857 705.221 315.805 699.274C321.752 693.326 381.225 652.882 413.34 632.661C445.455 612.439 441.887 548.205 431.182 526.793C422.618 509.664 415.719 469.697 413.34 451.854L462.109 409.031C453.545 396.66 462.505 380.879 468.056 374.535L477.572 305.543ZM477.572 305.543L130 74M477.572 305.543L531.096 224.5M477.572 305.543L660 283.5M477.572 305.543L779.5 117.5M477.572 305.543L373.5 74M477.572 305.543L521.5 1M477.572 305.543L0.5 238" stroke="#1B1B1B" stroke-width="2"/>
</svg>
