<svg width="374" height="430" viewBox="0 0 374 430" fill="none" xmlns="http://www.w3.org/2000/svg">
<path d="M-72.7349 -33.996C-75.4167 -16.705 -54.1738 4.92832 -26.2984 27.6627C30.9895 74.3851 115.817 148.611 190.946 215.512M-72.7349 -33.996C-70.21 -50.2761 -46.4761 -62.7069 12.8996 -68.5831C73.2487 -72.4563 134.111 -56.9311 192.606 -24.6146M-72.7349 -33.996C-23.2809 -44.4089 98.8613 -61.9593 138.605 -49.3875M-72.7349 -33.996C-26.2374 -22.8715 57.0482 23.3312 132.719 69.9767M-72.7349 -33.996C22.1599 -48.7816 280.976 56.0917 257.218 151.145M168.534 34.4931L192.606 -24.6146M257.218 151.145V151.145C268.189 140.592 283.709 136.22 298.576 139.494L387.507 159.084M257.218 151.145C226.665 130.002 181.259 99.898 132.719 69.9767M257.218 151.145C266.809 157.785 279.707 169.687 286.749 183.548M132.719 69.9767C144.189 86.968 160.552 113.944 173.27 140.888M190.946 215.512C196.513 199.119 187.023 170.022 173.27 140.888M190.946 215.512C226.334 247.025 259.571 276.912 286.764 301.534M282.92 225.733C258.911 201.63 203.367 150.917 173.27 140.888M282.92 225.733C288.932 233.863 296.504 248.392 298.219 264.024M282.92 225.733C285.29 222.966 287.135 220.156 288.518 217.326M286.764 301.534C318.335 330.119 341.761 351.609 350.953 360.307C400.072 406.787 485.129 453.74 498.46 409.696M286.764 301.534C289.668 298.36 291.954 295.02 293.709 291.575M293.709 291.575L498.46 409.696M293.709 291.575C298.218 282.723 299.224 273.184 298.219 264.024M498.46 409.696C500.637 402.503 500.901 392.884 498.784 380.439M298.219 264.024L498.784 380.439M498.784 380.439C496.523 367.154 491.548 350.648 483.288 330.438M288.518 217.326L483.288 330.438M288.518 217.326C294.094 205.906 292.136 194.153 286.749 183.548M483.288 330.438C479.731 321.734 475.564 312.344 470.743 302.227C461.664 283.177 452.201 264.736 442.386 246.934M286.749 183.548L442.386 246.934M442.386 246.934C425.121 215.62 406.769 186.283 387.507 159.084M387.507 159.084C329.222 76.7821 262.61 14.0597 192.606 -24.6146M225.995 76.9981L325.384 82.1253" stroke="#E4DED1" stroke-width="4" stroke-linecap="round"/>
</svg>
