<svg width="234" height="346" viewBox="0 0 234 346" fill="none" xmlns="http://www.w3.org/2000/svg">
<path d="M156.4 89.4L154.161 87.4031L154.158 87.4069L156.4 89.4ZM130 129L127.36 127.575L127.356 127.583L127.352 127.59L130 129ZM104.8 185L102 183.923L101.994 183.939L101.988 183.955L104.8 185ZM85.2 249.8L82.2408 249.307L88.1184 250.495L85.2 249.8ZM92.4 206.6L89.5496 205.664L89.4784 205.881L89.4408 206.107L92.4 206.6ZM125.6 122.6L128.276 123.955L128.28 123.948L128.283 123.942L125.6 122.6ZM157.6 76.2L155.621 73.9457L155.607 73.9578L155.593 73.9701L157.6 76.2ZM221.6 75.8L219.257 77.6741L219.274 77.6942L219.29 77.714L221.6 75.8ZM228 157.8L225.083 157.098L225.077 157.123L225.071 157.149L228 157.8ZM213.2 200.6L210.487 199.32L210.477 199.341L210.467 199.362L213.2 200.6ZM189.2 239.8L186.857 237.926L186.852 237.932L189.2 239.8ZM156.8 268.2L158.276 270.812L158.297 270.8L158.319 270.787L156.8 268.2ZM94.4 271.4L92.5511 273.763L92.5753 273.782L92.6 273.8L94.4 271.4ZM82 250.6L79.2146 249.486L78.8628 250.365L79.0798 251.287L82 250.6ZM85.2 242.6L88.0059 241.538L85.2777 234.328L82.4146 241.486L85.2 242.6ZM98 263.4L96.0795 265.705L96.1099 265.73L96.1411 265.755L98 263.4ZM141.6 259L143.528 261.299L143.549 261.281L143.57 261.262L141.6 259ZM164.4 230.6L161.817 229.074L161.817 229.074L164.4 230.6ZM182.4 191.8L179.587 190.758L179.581 190.773L179.576 190.788L182.4 191.8ZM194.4 149L191.46 148.401L191.456 148.422L191.452 148.444L194.4 149ZM193.6 83.4L190.966 84.8365L191.006 84.9089L191.049 84.979L193.6 83.4ZM120 6.19998L119.875 3.20258L117.701 3.29318L117.112 5.38829L120 6.19998ZM138.8 4.6L138.428 1.62317L138.42 1.62416L138.412 1.6252L138.8 4.6ZM156.4 0.599978L159.284 1.42513L160.878 -4.14579L155.409 -2.2316L156.4 0.599978ZM68.4 308.2L65.5157 307.375L65.5154 307.376L68.4 308.2ZM100.8 337L103.685 337.824L104.777 334H100.8V337ZM98.4 345.4L98.2502 348.396L100.63 348.515L101.285 346.224L98.4 345.4ZM75.6 344.2L75.7619 341.204L75.7226 341.202L75.6833 341.201L75.6 344.2ZM19.6 344.2L19.5063 341.201L19.4595 341.203L19.4129 341.206L19.6 344.2ZM0.399998 345.4L-2.48457 344.576L-3.65121 348.659L0.587133 348.394L0.399998 345.4ZM2.8 337V334H0.537096L-0.0845721 336.176L2.8 337ZM23.6 331.4L21.7082 329.072L21.6657 329.106L21.6245 329.142L23.6 331.4ZM34 312.2L36.8846 313.024L36.8881 313.012L34 312.2ZM36.8 130.2L34.7064 128.051L32.7034 130.003L34.5098 132.138L36.8 130.2ZM66 100.2L68.209 102.23L68.2225 102.215L68.2357 102.2L66 100.2ZM92.4 64.2L94.955 65.7723L94.955 65.7723L92.4 64.2ZM118.4 11.8L121.349 11.2471L119.499 1.38478L115.632 10.6436L118.4 11.8ZM119.6 18.2L122.454 19.1235L122.689 18.3973L122.549 17.6471L119.6 18.2ZM98.4 66.2L95.8232 64.6638L95.8187 64.6714L95.8142 64.6789L98.4 66.2ZM72 103.4L74.2543 105.379L74.2661 105.366L74.2778 105.352L72 103.4ZM41.2 135.4L38.9098 137.338L40.9638 139.765L43.2676 137.574L41.2 135.4ZM180 71.6C171.699 71.6 163.064 77.4214 154.161 87.4031L158.639 91.3968C167.336 81.6452 174.434 77.6 180 77.6V71.6ZM154.158 87.4069C145.415 97.2421 136.489 110.66 127.36 127.575L132.64 130.425C141.644 113.74 150.318 100.758 158.642 91.3931L154.158 87.4069ZM127.352 127.59C118.485 144.249 110.036 163.03 102 183.923L107.6 186.077C115.564 165.37 123.915 146.817 132.648 130.41L127.352 127.59ZM101.988 183.955C94.2106 204.873 87.6422 226.591 82.2816 249.105L88.1184 250.495C93.4245 228.209 99.9228 206.727 107.612 186.045L101.988 183.955ZM88.1592 250.293L95.3592 207.093L89.4408 206.107L82.2408 249.307L88.1592 250.293ZM95.2504 207.536C106.693 172.676 117.705 144.834 128.276 123.955L122.924 121.245C112.162 142.499 101.041 170.657 89.5496 205.664L95.2504 207.536ZM128.283 123.942C138.878 102.751 149.344 87.6665 159.607 78.4299L155.593 73.9701C144.523 83.9335 133.655 99.7818 122.917 121.258L128.283 123.942ZM159.579 78.4543C170.102 69.2151 180.758 64.8 191.6 64.8V58.8C178.975 58.8 166.965 63.9849 155.621 73.9457L159.579 78.4543ZM191.6 64.8C203.273 64.8 212.391 69.0914 219.257 77.6741L223.943 73.9259C215.875 63.8419 204.993 58.8 191.6 58.8V64.8ZM219.29 77.714C226.387 86.2794 230.2 99.5937 230.2 118.2H236.2C236.2 98.9396 232.28 83.9873 223.91 73.8859L219.29 77.714ZM230.2 118.2C230.2 129.916 228.507 142.876 225.083 157.098L230.917 158.502C234.426 143.923 236.2 130.484 236.2 118.2H230.2ZM225.071 157.149C221.922 171.32 217.064 185.376 210.487 199.32L215.913 201.88C222.669 187.557 227.678 173.08 230.929 158.451L225.071 157.149ZM210.467 199.362C204.169 213.27 196.3 226.123 186.857 237.926L191.543 241.674C201.3 229.477 209.431 216.196 215.933 201.838L210.467 199.362ZM186.852 237.932C177.736 249.393 167.213 258.61 155.281 265.613L158.319 270.787C170.921 263.39 181.997 253.674 191.548 241.668L186.852 237.932ZM155.324 265.588C143.535 272.252 130.448 275.6 116 275.6V281.6C131.419 281.6 145.532 278.015 158.276 270.812L155.324 265.588ZM116 275.6C108.649 275.6 102.081 273.411 96.2 269L92.6 273.8C99.5193 278.989 107.351 281.6 116 281.6V275.6ZM96.2489 269.037C90.7527 264.736 86.9291 258.451 84.9203 249.913L79.0798 251.287C81.3375 260.883 85.7806 268.464 92.5511 273.763L96.2489 269.037ZM84.7854 251.714L87.9854 243.714L82.4146 241.486L79.2146 249.486L84.7854 251.714ZM82.3941 243.662C86.1996 253.719 90.696 261.218 96.0795 265.705L99.9206 261.095C95.704 257.582 91.6671 251.214 88.0059 241.538L82.3941 243.662ZM96.1411 265.755C101.756 270.187 108.283 272.4 115.6 272.4V266.4C109.584 266.4 104.378 264.613 99.8589 261.045L96.1411 265.755ZM115.6 272.4C125.5 272.4 134.828 268.595 143.528 261.299L139.672 256.701C131.838 263.272 123.833 266.4 115.6 266.4V272.4ZM143.57 261.262C152.13 253.807 159.924 244.072 166.983 232.126L161.817 229.074C155.009 240.595 147.603 249.793 139.63 256.738L143.57 261.262ZM166.983 232.126C174.022 220.214 180.1 207.106 185.224 192.812L179.576 190.788C174.567 204.76 168.645 217.519 161.817 229.074L166.983 232.126ZM185.213 192.842C190.601 178.295 194.648 163.866 197.348 149.556L191.452 148.444C188.819 162.401 184.866 176.505 179.587 190.758L185.213 192.842ZM197.34 149.599C200.305 135.044 201.8 121.64 201.8 109.4H195.8C195.8 121.16 194.362 134.156 191.46 148.401L197.34 149.599ZM201.8 109.4C201.8 97.4866 200.061 88.1375 196.151 81.8209L191.049 84.979C194.072 89.8625 195.8 97.8467 195.8 109.4H201.8ZM196.234 81.9634C192.597 75.2956 187.138 71.6 180 71.6V77.6C184.595 77.6 188.203 79.771 190.966 84.8365L196.234 81.9634ZM120.125 9.19738C126.61 8.92718 132.964 8.38658 139.188 7.5748L138.412 1.6252C132.369 2.4134 126.19 2.93945 119.875 3.20258L120.125 9.19738ZM139.172 7.57683C145.754 6.75409 151.831 5.37748 157.391 3.43155L155.409 -2.2316C150.302 -0.444171 144.646 0.845892 138.428 1.62317L139.172 7.57683ZM153.516 -0.225176L65.5157 307.375L71.2843 309.025L159.284 1.42513L153.516 -0.225176ZM65.5154 307.376C63.8429 313.23 63.326 318.461 64.2644 322.918C65.2269 327.49 67.6959 331.098 71.61 333.544L74.79 328.456C72.3041 326.902 70.7731 324.71 70.1357 321.682C69.474 318.539 69.7571 314.37 71.2846 309.024L65.5154 307.376ZM71.61 333.544C78.6907 337.969 88.5399 340 100.8 340V334C89.0601 334 80.5093 332.031 74.79 328.456L71.61 333.544ZM97.9154 336.176L95.5154 344.576L101.285 346.224L103.685 337.824L97.9154 336.176ZM98.5498 342.404C93.2226 342.137 85.6273 341.738 75.7619 341.204L75.4381 347.196C85.306 347.729 92.9108 348.129 98.2502 348.396L98.5498 342.404ZM75.6833 341.201C66.0521 340.934 55.7574 340.8 44.8 340.8V346.8C55.7093 346.8 65.9479 346.933 75.5167 347.199L75.6833 341.201ZM44.8 340.8C36.5011 340.8 28.0698 340.934 19.5063 341.201L19.6937 347.199C28.1968 346.933 36.5656 346.8 44.8 346.8V340.8ZM19.4129 341.206C10.8795 341.739 4.47953 342.139 0.212863 342.406L0.587133 348.394C4.8538 348.127 11.2538 347.727 19.7871 347.194L19.4129 341.206ZM3.28457 346.224L5.68457 337.824L-0.0845721 336.176L-2.48457 344.576L3.28457 346.224ZM2.8 340C12.6625 340 20.4921 338.106 25.5755 333.658L21.6245 329.142C18.1745 332.161 12.1375 334 2.8 334V340ZM25.4918 333.728C30.4794 329.676 34.1629 322.55 36.8846 313.024L31.1154 311.376C28.5038 320.516 25.254 326.191 21.7082 329.072L25.4918 333.728ZM36.8881 313.012L122.888 7.01167L117.112 5.38829L31.1119 311.388L36.8881 313.012ZM38.8936 132.349C49.3299 122.18 59.102 112.14 68.209 102.23L63.791 98.1701C54.7647 107.993 45.0701 117.953 34.7064 128.051L38.8936 132.349ZM68.2357 102.2C77.4419 91.9112 86.3458 79.7622 94.955 65.7723L89.845 62.6277C81.3875 76.3712 72.6915 88.2221 63.7643 98.1996L68.2357 102.2ZM94.955 65.7723C103.595 51.7318 112.33 34.1145 121.168 12.9563L115.632 10.6436C106.87 31.6188 98.2714 48.9349 89.845 62.6277L94.955 65.7723ZM115.451 12.3528L116.651 18.7529L122.549 17.6471L121.349 11.2471L115.451 12.3528ZM116.746 17.2765C110.936 35.2331 103.956 51.0213 95.8232 64.6638L100.977 67.7362C109.377 53.6454 116.53 37.4335 122.454 19.1235L116.746 17.2765ZM95.8142 64.6789C87.8978 78.1369 79.1994 90.391 69.7222 101.448L74.2778 105.352C84.0006 94.009 92.9022 81.4631 100.986 67.7211L95.8142 64.6789ZM69.7457 101.421C60.2071 112.284 50.003 122.886 39.1324 133.226L43.2676 137.574C54.2637 127.114 64.5929 116.383 74.2543 105.379L69.7457 101.421ZM43.4902 133.462L39.0902 128.262L34.5098 132.138L38.9098 137.338L43.4902 133.462Z" fill="black"/>
</svg>
